STARTFONT 2.1
FONT -FontForge-STIX Two Math-Book-R-Normal--16-160-72-72-P-110-ISO10646-1
SIZE 16 72 72
FONTBOUNDINGBOX 65 69 -16 -26
COMMENT "Generated by fontforge, http://fontforge.sourceforge.net"
COMMENT "Copyright 2001-2021 The STIX Fonts Project Authors (https://github.com/stipub/stixfonts)"
STARTPROPERTIES 40
FOUNDRY "FontForge"
FAMILY_NAME "STIX Two Math"
WEIGHT_NAME "Book"
SLANT "R"
SETWIDTH_NAME "Normal"
ADD_STYLE_NAME ""
PIXEL_SIZE 16
POINT_SIZE 160
RESOLUTION_X 72
RESOLUTION_Y 72
SPACING "P"
AVERAGE_WIDTH 110
CHARSET_REGISTRY "ISO10646"
CHARSET_ENCODING "1"
FONTNAME_REGISTRY ""
CHARSET_COLLECTIONS "ASCII ISOLatin1Encoding ISO8859-2 ISO8859-5 ISO8859-7 ISO8859-9 ISO8859-4 ISO10646-1"
FONT_NAME "STIXTwoMath-Regular"
FACE_NAME "STIX Two Math Regular"
COPYRIGHT "Copyright 2001-2021 The STIX Fonts Project Authors (https://github.com/stipub/stixfonts)"
FONT_VERSION "2.12 b168a"
FONT_ASCENT 12
FONT_DESCENT 4
UNDERLINE_POSITION -2
UNDERLINE_THICKNESS 1
X_HEIGHT 7
CAP_HEIGHT 10
RAW_ASCENT 762
RAW_DESCENT 238
NORM_SPACE 4
RELATIVE_WEIGHT 40
RELATIVE_SETWIDTH 50
SUPERSCRIPT_X 0
SUPERSCRIPT_Y 8
SUPERSCRIPT_SIZE 8
SUBSCRIPT_X 0
SUBSCRIPT_Y 4
SUBSCRIPT_SIZE 8
FIGURE_WIDTH 8
AVG_LOWERCASE_WIDTH 79
AVG_UPPERCASE_WIDTH 108
ENDPROPERTIES
CHARS 6611
STARTCHAR space
ENCODING 32
SWIDTH 235 0
DWIDTH 4 0
BBX 1 1 0 0
BITMAP
00
ENDCHAR
STARTCHAR exclam
ENCODING 33
SWIDTH 283 0
DWIDTH 5 0
BBX 2 11 1 0
BITMAP
40
C0
C0
40
40
40
40
40
00
C0
C0
ENDCHAR
STARTCHAR quotedbl
ENCODING 34
SWIDTH 334 0
DWIDTH 5 0
BBX 4 3 1 8
BITMAP
B0
A0
A0
ENDCHAR
STARTCHAR numbersign
ENCODING 35
SWIDTH 702 0
DWIDTH 11 0
BBX 9 11 1 0
BITMAP
1100
1100
1200
FF80
2200
2200
2200
FF80
2200
2400
4400
ENDCHAR
STARTCHAR dollar
ENCODING 36
SWIDTH 495 0
DWIDTH 8 0
BBX 6 12 1 -1
BITMAP
78
A4
A4
E0
E0
38
2C
24
A4
A4
F8
20
ENDCHAR
STARTCHAR percent
ENCODING 37
SWIDTH 692 0
DWIDTH 11 0
BBX 9 11 1 0
BITMAP
7100
9F00
9200
9400
9400
EB80
0E80
1480
2480
2480
4300
ENDCHAR
STARTCHAR ampersand
ENCODING 38
SWIDTH 736 0
DWIDTH 12 0
BBX 11 11 0 0
BITMAP
1E00
1200
1200
1200
1DE0
1880
6C80
4500
C700
4320
7DE0
ENDCHAR
STARTCHAR quotesingle
ENCODING 39
SWIDTH 187 0
DWIDTH 3 0
BBX 1 3 1 8
BITMAP
80
80
80
ENDCHAR
STARTCHAR parenleft
ENCODING 40
SWIDTH 357 0
DWIDTH 6 0
BBX 4 15 1 -3
BITMAP
10
20
40
40
80
80
80
80
80
80
80
C0
40
20
10
ENDCHAR
STARTCHAR parenright
ENCODING 41
SWIDTH 357 0
DWIDTH 6 0
BBX 5 15 0 -3
BITMAP
80
60
20
10
10
08
08
08
08
08
18
10
10
20
C0
ENDCHAR
STARTCHAR asterisk
ENCODING 42
SWIDTH 410 0
DWIDTH 7 0
BBX 5 6 1 5
BITMAP
20
A8
70
70
A8
20
ENDCHAR
STARTCHAR plus
ENCODING 43
SWIDTH 720 0
DWIDTH 12 0
BBX 10 10 1 0
BITMAP
0800
0800
0800
0800
0800
FFC0
0800
0800
0800
0800
ENDCHAR
STARTCHAR comma
ENCODING 44
SWIDTH 245 0
DWIDTH 4 0
BBX 2 4 1 -2
BITMAP
C0
C0
40
80
ENDCHAR
STARTCHAR hyphen
ENCODING 45
SWIDTH 315 0
DWIDTH 5 0
BBX 3 1 1 4
BITMAP
E0
ENDCHAR
STARTCHAR period
ENCODING 46
SWIDTH 245 0
DWIDTH 4 0
BBX 2 2 1 0
BITMAP
C0
C0
ENDCHAR
STARTCHAR slash
ENCODING 47
SWIDTH 386 0
DWIDTH 6 0
BBX 5 13 1 -2
BITMAP
08
10
10
10
20
20
20
40
40
40
80
80
80
ENDCHAR
STARTCHAR zero
ENCODING 48
SWIDTH 495 0
DWIDTH 8 0
BBX 7 11 0 0
BITMAP
3C
66
42
42
C2
C2
C2
42
42
66
3C
ENDCHAR
STARTCHAR one
ENCODING 49
SWIDTH 495 0
DWIDTH 8 0
BBX 6 11 1 0
BITMAP
70
B0
30
30
30
30
30
30
30
30
FC
ENDCHAR
STARTCHAR two
ENCODING 50
SWIDTH 495 0
DWIDTH 8 0
BBX 6 11 1 0
BITMAP
78
8C
8C
0C
0C
08
10
20
44
44
FC
ENDCHAR
STARTCHAR three
ENCODING 51
SWIDTH 495 0
DWIDTH 8 0
BBX 6 11 1 0
BITMAP
78
88
08
08
10
38
0C
04
04
88
F0
ENDCHAR
STARTCHAR four
ENCODING 52
SWIDTH 495 0
DWIDTH 8 0
BBX 8 11 0 0
BITMAP
04
0C
14
14
24
44
44
FF
04
04
04
ENDCHAR
STARTCHAR five
ENCODING 53
SWIDTH 495 0
DWIDTH 8 0
BBX 6 11 1 0
BITMAP
7C
40
40
40
70
0C
04
04
04
88
F0
ENDCHAR
STARTCHAR six
ENCODING 54
SWIDTH 495 0
DWIDTH 8 0
BBX 6 11 1 0
BITMAP
1C
20
40
C0
B8
CC
84
84
84
C4
78
ENDCHAR
STARTCHAR seven
ENCODING 55
SWIDTH 495 0
DWIDTH 8 0
BBX 6 10 1 0
BITMAP
FC
84
04
08
08
10
10
30
20
60
ENDCHAR
STARTCHAR eight
ENCODING 56
SWIDTH 495 0
DWIDTH 8 0
BBX 6 11 1 0
BITMAP
78
8C
84
CC
68
30
4C
84
84
84
78
ENDCHAR
STARTCHAR nine
ENCODING 57
SWIDTH 495 0
DWIDTH 8 0
BBX 6 11 1 0
BITMAP
78
8C
84
84
84
CC
74
0C
08
18
E0
ENDCHAR
STARTCHAR colon
ENCODING 58
SWIDTH 245 0
DWIDTH 4 0
BBX 2 8 1 0
BITMAP
C0
C0
00
00
00
00
C0
C0
ENDCHAR
STARTCHAR semicolon
ENCODING 59
SWIDTH 245 0
DWIDTH 4 0
BBX 2 10 1 -2
BITMAP
C0
C0
00
00
00
00
C0
C0
40
80
ENDCHAR
STARTCHAR less
ENCODING 60
SWIDTH 720 0
DWIDTH 12 0
BBX 9 9 1 0
BITMAP
0080
0180
0600
1800
E000
7000
1C00
0700
0080
ENDCHAR
STARTCHAR equal
ENCODING 61
SWIDTH 720 0
DWIDTH 12 0
BBX 10 5 1 2
BITMAP
FFC0
0000
0000
0000
FFC0
ENDCHAR
STARTCHAR greater
ENCODING 62
SWIDTH 720 0
DWIDTH 12 0
BBX 9 9 1 0
BITMAP
8000
E000
3800
0E00
0180
0300
0C00
3000
C000
ENDCHAR
STARTCHAR question
ENCODING 63
SWIDTH 411 0
DWIDTH 7 0
BBX 6 11 0 0
BITMAP
78
44
C4
04
08
08
10
10
00
10
30
ENDCHAR
STARTCHAR at
ENCODING 64
SWIDTH 905 0
DWIDTH 14 0
BBX 13 14 1 -3
BITMAP
0F80
3060
6020
4690
8990
9890
9098
9090
9090
9990
4EE0
6000
3020
0FC0
ENDCHAR
STARTCHAR A
ENCODING 65
SWIDTH 718 0
DWIDTH 11 0
BBX 11 11 0 0
BITMAP
0400
0600
0E00
0A00
1300
1100
1180
3F80
20C0
40C0
E1E0
ENDCHAR
STARTCHAR B
ENCODING 66
SWIDTH 618 0
DWIDTH 10 0
BBX 8 11 1 0
BITMAP
FE
63
63
63
62
7E
63
61
61
63
FE
ENDCHAR
STARTCHAR C
ENCODING 67
SWIDTH 670 0
DWIDTH 11 0
BBX 9 11 1 0
BITMAP
1F80
6180
C080
C080
C000
8000
C000
C000
C000
6080
3F00
ENDCHAR
STARTCHAR D
ENCODING 68
SWIDTH 730 0
DWIDTH 12 0
BBX 10 11 1 0
BITMAP
FE00
6380
6180
60C0
60C0
60C0
60C0
60C0
6080
6100
FE00
ENDCHAR
STARTCHAR E
ENCODING 69
SWIDTH 626 0
DWIDTH 10 0
BBX 9 11 1 0
BITMAP
FF00
6100
6000
6200
6200
7E00
6200
6000
6080
6100
FF00
ENDCHAR
STARTCHAR F
ENCODING 70
SWIDTH 588 0
DWIDTH 9 0
BBX 8 11 1 0
BITMAP
FF
61
60
62
62
7E
62
60
60
60
F0
ENDCHAR
STARTCHAR G
ENCODING 71
SWIDTH 720 0
DWIDTH 12 0
BBX 10 11 1 0
BITMAP
1F80
6180
C080
C080
C000
83C0
C180
C180
C180
6180
3F00
ENDCHAR
STARTCHAR H
ENCODING 72
SWIDTH 777 0
DWIDTH 12 0
BBX 11 11 1 0
BITMAP
F1E0
60C0
60C0
60C0
60C0
7FC0
60C0
60C0
60C0
60C0
F1E0
ENDCHAR
STARTCHAR I
ENCODING 73
SWIDTH 357 0
DWIDTH 6 0
BBX 4 11 1 0
BITMAP
F0
60
60
60
60
60
60
60
60
60
F0
ENDCHAR
STARTCHAR J
ENCODING 74
SWIDTH 396 0
DWIDTH 6 0
BBX 6 11 0 0
BITMAP
7C
18
18
18
18
18
18
18
18
D0
F0
ENDCHAR
STARTCHAR K
ENCODING 75
SWIDTH 702 0
DWIDTH 11 0
BBX 10 11 1 0
BITMAP
F380
6300
6200
6400
6800
7000
7800
6C00
6600
6300
F3C0
ENDCHAR
STARTCHAR L
ENCODING 76
SWIDTH 585 0
DWIDTH 9 0
BBX 8 11 1 0
BITMAP
F0
60
60
60
60
60
60
60
61
61
FF
ENDCHAR
STARTCHAR M
ENCODING 77
SWIDTH 895 0
DWIDTH 14 0
BBX 14 11 0 0
BITMAP
F03C
3030
3830
3850
2C50
2C90
2490
2710
2310
2310
F27C
ENDCHAR
STARTCHAR N
ENCODING 78
SWIDTH 742 0
DWIDTH 12 0
BBX 11 11 0 0
BITMAP
F0E0
3040
3840
2C40
2E40
2640
2340
21C0
20C0
20C0
F040
ENDCHAR
STARTCHAR O
ENCODING 79
SWIDTH 738 0
DWIDTH 12 0
BBX 10 11 1 0
BITMAP
1E00
6180
C080
C0C0
C0C0
C0C0
C0C0
C0C0
C080
6180
1E00
ENDCHAR
STARTCHAR P
ENCODING 80
SWIDTH 569 0
DWIDTH 9 0
BBX 8 11 1 0
BITMAP
FC
62
63
63
62
7C
60
60
60
60
F0
ENDCHAR
STARTCHAR Q
ENCODING 81
SWIDTH 737 0
DWIDTH 12 0
BBX 10 14 1 -3
BITMAP
1E00
6180
C080
C0C0
C0C0
80C0
C0C0
C0C0
C080
6180
3E00
0600
0700
01C0
ENDCHAR
STARTCHAR R
ENCODING 82
SWIDTH 659 0
DWIDTH 11 0
BBX 10 11 1 0
BITMAP
FC00
6300
6300
6300
6600
7800
6C00
6600
6600
6300
F1C0
ENDCHAR
STARTCHAR S
ENCODING 83
SWIDTH 504 0
DWIDTH 8 0
BBX 7 11 1 0
BITMAP
7C
84
84
C0
60
38
0C
04
86
84
F8
ENDCHAR
STARTCHAR T
ENCODING 84
SWIDTH 603 0
DWIDTH 10 0
BBX 9 11 0 0
BITMAP
FF80
8C80
8C80
0C00
0C00
0C00
0C00
0C00
0C00
0C00
1E00
ENDCHAR
STARTCHAR U
ENCODING 85
SWIDTH 752 0
DWIDTH 12 0
BBX 12 11 0 0
BITMAP
F8F0
2040
2040
2040
2040
2040
2040
2040
3040
3040
0F80
ENDCHAR
STARTCHAR V
ENCODING 86
SWIDTH 680 0
DWIDTH 11 0
BBX 11 11 0 0
BITMAP
F0E0
6040
2080
3080
3080
1900
1900
0A00
0E00
0400
0400
ENDCHAR
STARTCHAR W
ENCODING 87
SWIDTH 944 0
DWIDTH 15 0
BBX 15 11 0 0
BITMAP
F78E
6104
2184
3188
3188
11C8
1A50
0A50
0C60
0C20
0420
ENDCHAR
STARTCHAR X
ENCODING 88
SWIDTH 664 0
DWIDTH 11 0
BBX 11 11 0 0
BITMAP
F9C0
3080
1100
1A00
0C00
0400
0E00
1300
2100
2180
F3E0
ENDCHAR
STARTCHAR Y
ENCODING 89
SWIDTH 647 0
DWIDTH 10 0
BBX 10 11 0 0
BITMAP
F1C0
6080
3100
1100
1A00
0C00
0C00
0C00
0C00
0C00
1F00
ENDCHAR
STARTCHAR Z
ENCODING 90
SWIDTH 594 0
DWIDTH 10 0
BBX 9 11 0 0
BITMAP
7F80
4300
4300
0600
0C00
0C00
1800
3000
3080
6080
FF80
ENDCHAR
STARTCHAR bracketleft
ENCODING 91
SWIDTH 349 0
DWIDTH 6 0
BBX 4 16 1 -4
BITMAP
F0
C0
C0
C0
C0
C0
C0
C0
C0
C0
C0
C0
C0
C0
C0
F0
ENDCHAR
STARTCHAR backslash
ENCODING 92
SWIDTH 385 0
DWIDTH 6 0
BBX 5 13 1 -2
BITMAP
80
80
80
40
40
40
20
20
20
10
10
10
18
ENDCHAR
STARTCHAR bracketright
ENCODING 93
SWIDTH 349 0
DWIDTH 6 0
BBX 3 16 1 -4
BITMAP
E0
20
20
20
20
20
20
20
20
20
20
20
20
20
20
E0
ENDCHAR
STARTCHAR asciicircum
ENCODING 94
SWIDTH 480 0
DWIDTH 8 0
BBX 6 6 1 5
BITMAP
30
30
48
48
88
84
ENDCHAR
STARTCHAR underscore
ENCODING 95
SWIDTH 512 0
DWIDTH 8 0
BBX 8 1 0 -2
BITMAP
FF
ENDCHAR
STARTCHAR grave
ENCODING 96
SWIDTH 222 0
DWIDTH 4 0
BBX 3 3 0 9
BITMAP
C0
40
20
ENDCHAR
STARTCHAR a
ENCODING 97
SWIDTH 480 0
DWIDTH 8 0
BBX 7 8 1 0
BITMAP
70
88
88
18
68
88
88
FE
ENDCHAR
STARTCHAR b
ENCODING 98
SWIDTH 522 0
DWIDTH 8 0
BBX 8 11 0 0
BITMAP
E0
60
60
7E
62
63
63
63
63
62
3C
ENDCHAR
STARTCHAR c
ENCODING 99
SWIDTH 446 0
DWIDTH 7 0
BBX 6 8 1 0
BITMAP
78
8C
88
80
80
80
C4
78
ENDCHAR
STARTCHAR d
ENCODING 100
SWIDTH 539 0
DWIDTH 9 0
BBX 7 11 1 0
BITMAP
0C
04
04
7C
C4
84
84
84
84
84
7E
ENDCHAR
STARTCHAR e
ENCODING 101
SWIDTH 464 0
DWIDTH 7 0
BBX 6 8 1 0
BITMAP
78
88
8C
FC
80
80
C4
78
ENDCHAR
STARTCHAR f
ENCODING 102
SWIDTH 307 0
DWIDTH 5 0
BBX 6 11 0 0
BITMAP
1C
24
20
F8
20
20
20
20
20
20
F8
ENDCHAR
STARTCHAR g
ENCODING 103
SWIDTH 484 0
DWIDTH 8 0
BBX 8 12 0 -4
BITMAP
3F
44
46
46
24
78
40
7E
42
C2
C2
7C
ENDCHAR
STARTCHAR h
ENCODING 104
SWIDTH 577 0
DWIDTH 9 0
BBX 9 11 0 0
BITMAP
E000
2000
2000
2E00
3300
2300
2300
2300
2300
2300
F780
ENDCHAR
STARTCHAR i
ENCODING 105
SWIDTH 285 0
DWIDTH 5 0
BBX 3 11 1 0
BITMAP
C0
40
00
C0
40
40
40
40
40
40
E0
ENDCHAR
STARTCHAR j
ENCODING 106
SWIDTH 263 0
DWIDTH 4 0
BBX 5 15 -2 -4
BITMAP
18
18
00
38
08
08
08
08
08
08
08
08
08
D8
70
ENDCHAR
STARTCHAR k
ENCODING 107
SWIDTH 542 0
DWIDTH 9 0
BBX 9 11 0 0
BITMAP
E000
2000
2000
2700
2400
2800
3000
2800
2C00
2600
F780
ENDCHAR
STARTCHAR l
ENCODING 108
SWIDTH 283 0
DWIDTH 5 0
BBX 4 11 0 0
BITMAP
E0
20
20
20
20
20
20
20
20
20
F0
ENDCHAR
STARTCHAR m
ENCODING 109
SWIDTH 852 0
DWIDTH 14 0
BBX 12 8 1 0
BITMAP
DDC0
6620
4620
4620
4620
4620
4620
EF70
ENDCHAR
STARTCHAR n
ENCODING 110
SWIDTH 576 0
DWIDTH 9 0
BBX 8 8 1 0
BITMAP
DC
66
46
46
46
46
46
EF
ENDCHAR
STARTCHAR o
ENCODING 111
SWIDTH 514 0
DWIDTH 8 0
BBX 7 8 1 0
BITMAP
78
C4
86
86
86
84
C4
78
ENDCHAR
STARTCHAR p
ENCODING 112
SWIDTH 537 0
DWIDTH 9 0
BBX 8 12 0 -4
BITMAP
FE
23
23
21
21
23
22
3C
20
20
60
F0
ENDCHAR
STARTCHAR q
ENCODING 113
SWIDTH 521 0
DWIDTH 8 0
BBX 7 12 1 -4
BITMAP
7C
CC
84
84
84
84
84
7C
04
04
04
1E
ENDCHAR
STARTCHAR r
ENCODING 114
SWIDTH 380 0
DWIDTH 6 0
BBX 6 8 0 0
BITMAP
6C
34
20
20
20
20
20
F0
ENDCHAR
STARTCHAR s
ENCODING 115
SWIDTH 395 0
DWIDTH 6 0
BBX 5 8 1 0
BITMAP
F0
90
88
E0
30
98
88
F0
ENDCHAR
STARTCHAR t
ENCODING 116
SWIDTH 315 0
DWIDTH 5 0
BBX 4 10 1 0
BITMAP
40
40
F0
C0
C0
C0
C0
C0
C0
70
ENDCHAR
STARTCHAR u
ENCODING 117
SWIDTH 570 0
DWIDTH 9 0
BBX 9 8 0 0
BITMAP
E700
6300
6300
6300
6300
6300
2300
3F80
ENDCHAR
STARTCHAR v
ENCODING 118
SWIDTH 481 0
DWIDTH 8 0
BBX 8 8 0 0
BITMAP
E7
42
62
24
34
38
18
10
ENDCHAR
STARTCHAR w
ENCODING 119
SWIDTH 749 0
DWIDTH 12 0
BBX 12 8 0 0
BITMAP
EF70
4620
6220
2740
3540
1940
1980
1080
ENDCHAR
STARTCHAR x
ENCODING 120
SWIDTH 479 0
DWIDTH 8 0
BBX 8 8 0 0
BITMAP
F6
64
34
18
18
2C
46
EF
ENDCHAR
STARTCHAR y
ENCODING 121
SWIDTH 483 0
DWIDTH 8 0
BBX 8 12 0 -4
BITMAP
E7
42
62
24
34
14
18
18
10
10
E0
E0
ENDCHAR
STARTCHAR z
ENCODING 122
SWIDTH 458 0
DWIDTH 7 0
BBX 7 8 0 0
BITMAP
7E
4C
08
18
30
22
62
FE
ENDCHAR
STARTCHAR braceleft
ENCODING 123
SWIDTH 327 0
DWIDTH 5 0
BBX 5 16 0 -4
BITMAP
18
20
20
20
20
20
20
40
C0
20
20
20
20
20
20
38
ENDCHAR
STARTCHAR bar
ENCODING 124
SWIDTH 267 0
DWIDTH 4 0
BBX 1 15 2 -4
BITMAP
80
80
80
80
80
80
80
80
80
80
80
80
80
80
80
ENDCHAR
STARTCHAR braceright
ENCODING 125
SWIDTH 327 0
DWIDTH 5 0
BBX 4 16 1 -4
BITMAP
C0
60
20
60
60
40
40
20
30
40
40
60
60
20
60
C0
ENDCHAR
STARTCHAR asciitilde
ENCODING 126
SWIDTH 557 0
DWIDTH 9 0
BBX 8 2 0 3
BITMAP
79
C6
ENDCHAR
STARTCHAR uni00A0
ENCODING 160
SWIDTH 235 0
DWIDTH 4 0
BBX 1 1 0 0
BITMAP
00
ENDCHAR
STARTCHAR exclamdown
ENCODING 161
SWIDTH 282 0
DWIDTH 5 0
BBX 2 12 1 -4
BITMAP
C0
C0
00
40
40
40
40
40
40
C0
C0
40
ENDCHAR
STARTCHAR cent
ENCODING 162
SWIDTH 495 0
DWIDTH 8 0
BBX 6 11 1 0
BITMAP
10
10
7C
9C
90
90
90
90
D4
78
20
ENDCHAR
STARTCHAR sterling
ENCODING 163
SWIDTH 495 0
DWIDTH 8 0
BBX 8 11 0 0
BITMAP
0E
12
30
30
30
7C
30
10
10
F1
FE
ENDCHAR
STARTCHAR currency
ENCODING 164
SWIDTH 617 0
DWIDTH 10 0
BBX 8 9 1 0
BITMAP
81
FE
42
42
82
42
42
FF
81
ENDCHAR
STARTCHAR yen
ENCODING 165
SWIDTH 495 0
DWIDTH 8 0
BBX 8 11 0 0
BITMAP
F7
62
62
34
34
18
7E
18
7E
18
3C
ENDCHAR
STARTCHAR brokenbar
ENCODING 166
SWIDTH 267 0
DWIDTH 4 0
BBX 1 12 2 -1
BITMAP
80
80
80
80
80
00
00
80
80
80
80
80
ENDCHAR
STARTCHAR section
ENCODING 167
SWIDTH 491 0
DWIDTH 8 0
BBX 6 15 1 -4
BITMAP
38
48
48
40
30
78
88
8C
44
68
30
18
88
88
70
ENDCHAR
STARTCHAR dieresis
ENCODING 168
SWIDTH 392 0
DWIDTH 6 0
BBX 6 2 0 9
BITMAP
4C
CC
ENDCHAR
STARTCHAR copyright
ENCODING 169
SWIDTH 781 0
DWIDTH 13 0
BBX 11 12 1 0
BITMAP
1E00
2180
4040
9F40
9120
B020
B020
9120
8E40
4040
2080
1F00
ENDCHAR
STARTCHAR ordfeminine
ENCODING 170
SWIDTH 410 0
DWIDTH 7 0
BBX 5 6 1 4
BITMAP
F0
90
30
D0
90
F8
ENDCHAR
STARTCHAR guillemotleft
ENCODING 171
SWIDTH 517 0
DWIDTH 8 0
BBX 6 6 1 1
BITMAP
24
48
98
90
48
24
ENDCHAR
STARTCHAR logicalnot
ENCODING 172
SWIDTH 720 0
DWIDTH 12 0
BBX 9 5 1 2
BITMAP
FF80
0080
0080
0080
0080
ENDCHAR
STARTCHAR uni00AD
ENCODING 173
SWIDTH 315 0
DWIDTH 5 0
BBX 3 1 1 4
BITMAP
E0
ENDCHAR
STARTCHAR registered
ENCODING 174
SWIDTH 413 0
DWIDTH 7 0
BBX 5 6 1 6
BITMAP
60
F8
E8
E8
D8
60
ENDCHAR
STARTCHAR macron
ENCODING 175
SWIDTH 350 0
DWIDTH 6 0
BBX 5 1 0 9
BITMAP
F8
ENDCHAR
STARTCHAR degree
ENCODING 176
SWIDTH 409 0
DWIDTH 7 0
BBX 5 5 1 6
BITMAP
70
88
88
88
70
ENDCHAR
STARTCHAR plusminus
ENCODING 177
SWIDTH 720 0
DWIDTH 12 0
BBX 10 10 1 0
BITMAP
0800
0800
0800
FFC0
0800
0800
0800
0800
0000
FFC0
ENDCHAR
STARTCHAR twosuperior
ENCODING 178
SWIDTH 373 0
DWIDTH 6 0
BBX 6 7 0 4
BITMAP
78
88
08
08
30
44
F8
ENDCHAR
STARTCHAR threesuperior
ENCODING 179
SWIDTH 374 0
DWIDTH 6 0
BBX 4 7 1 4
BITMAP
F0
10
60
10
10
10
E0
ENDCHAR
STARTCHAR acute
ENCODING 180
SWIDTH 222 0
DWIDTH 4 0
BBX 3 3 0 9
BITMAP
20
40
C0
ENDCHAR
STARTCHAR uni00B5
ENCODING 181
SWIDTH 556 0
DWIDTH 9 0
BBX 8 11 1 -3
BITMAP
C4
C4
84
84
84
8C
CC
F7
80
80
80
ENDCHAR
STARTCHAR paragraph
ENCODING 182
SWIDTH 605 0
DWIDTH 10 0
BBX 8 13 1 -2
BITMAP
7F
D4
94
94
94
D4
34
14
14
14
14
14
37
ENDCHAR
STARTCHAR periodcentered
ENCODING 183
SWIDTH 282 0
DWIDTH 5 0
BBX 2 2 1 3
BITMAP
C0
C0
ENDCHAR
STARTCHAR cedilla
ENCODING 184
SWIDTH 247 0
DWIDTH 4 0
BBX 3 4 0 -4
BITMAP
40
60
20
E0
ENDCHAR
STARTCHAR onesuperior
ENCODING 185
SWIDTH 343 0
DWIDTH 5 0
BBX 4 7 1 4
BITMAP
C0
40
40
40
40
40
F0
ENDCHAR
STARTCHAR ordmasculine
ENCODING 186
SWIDTH 432 0
DWIDTH 7 0
BBX 6 6 0 4
BITMAP
38
44
C4
44
44
38
ENDCHAR
STARTCHAR guillemotright
ENCODING 187
SWIDTH 517 0
DWIDTH 8 0
BBX 7 6 1 1
BITMAP
90
48
24
26
4C
98
ENDCHAR
STARTCHAR onequarter
ENCODING 188
SWIDTH 861 0
DWIDTH 14 0
BBX 12 12 1 0
BITMAP
40C0
C080
4100
4100
4200
4220
4460
F8A0
0920
11F0
1020
2020
ENDCHAR
STARTCHAR onehalf
ENCODING 189
SWIDTH 889 0
DWIDTH 14 0
BBX 13 12 1 0
BITMAP
0040
C080
4080
4100
4200
4270
4490
F418
0810
0820
1048
20F8
ENDCHAR
STARTCHAR threequarters
ENCODING 190
SWIDTH 861 0
DWIDTH 14 0
BBX 12 12 1 0
BITMAP
60C0
9080
1100
6100
1220
1220
9460
E8A0
0920
11F0
1020
2020
ENDCHAR
STARTCHAR questiondown
ENCODING 191
SWIDTH 411 0
DWIDTH 7 0
BBX 6 12 0 -4
BITMAP
30
10
00
10
10
20
60
40
44
C4
44
38
ENDCHAR
STARTCHAR Agrave
ENCODING 192
SWIDTH 718 0
DWIDTH 11 0
BBX 11 14 0 0
BITMAP
0C00
0200
0000
0400
0600
0E00
0A00
1300
1100
1180
3F80
20C0
40C0
E1E0
ENDCHAR
STARTCHAR Aacute
ENCODING 193
SWIDTH 718 0
DWIDTH 11 0
BBX 11 14 0 0
BITMAP
0600
0C00
0000
0400
0600
0E00
0A00
1300
1100
1180
3F80
20C0
40C0
E1E0
ENDCHAR
STARTCHAR Acircumflex
ENCODING 194
SWIDTH 718 0
DWIDTH 11 0
BBX 11 15 0 0
BITMAP
0400
0E00
1900
0000
0400
0600
0E00
0A00
1300
1100
1180
3F80
20C0
40C0
E1E0
ENDCHAR
STARTCHAR Atilde
ENCODING 195
SWIDTH 718 0
DWIDTH 11 0
BBX 11 14 0 0
BITMAP
0C80
1300
0000
0400
0600
0E00
0A00
1300
1100
1180
3F80
20C0
40C0
E1E0
ENDCHAR
STARTCHAR Adieresis
ENCODING 196
SWIDTH 718 0
DWIDTH 11 0
BBX 11 14 0 0
BITMAP
1900
1900
0000
0400
0600
0E00
0A00
1300
1100
1180
3F80
20C0
40C0
E1E0
ENDCHAR
STARTCHAR Aring
ENCODING 197
SWIDTH 718 0
DWIDTH 11 0
BBX 11 14 0 0
BITMAP
0E00
0A00
0E00
0400
0600
0E00
0A00
1300
1100
1180
3F80
20C0
40C0
E1E0
ENDCHAR
STARTCHAR AE
ENCODING 198
SWIDTH 894 0
DWIDTH 14 0
BBX 14 11 0 0
BITMAP
07F8
0508
0504
0900
0910
1FF0
1110
2110
4104
4104
E7F8
ENDCHAR
STARTCHAR Ccedilla
ENCODING 199
SWIDTH 670 0
DWIDTH 11 0
BBX 9 15 1 -4
BITMAP
1F80
6180
C080
C080
C000
8000
C000
C000
C000
6080
3F00
0800
0C00
0400
1C00
ENDCHAR
STARTCHAR Egrave
ENCODING 200
SWIDTH 626 0
DWIDTH 10 0
BBX 9 14 1 0
BITMAP
3000
0C00
0000
FF00
6100
6000
6200
6200
7E00
6200
6000
6080
6100
FF00
ENDCHAR
STARTCHAR Eacute
ENCODING 201
SWIDTH 626 0
DWIDTH 10 0
BBX 9 14 1 0
BITMAP
0C00
1000
0000
FF00
6100
6000
6200
6200
7E00
6200
6000
6080
6100
FF00
ENDCHAR
STARTCHAR Ecircumflex
ENCODING 202
SWIDTH 626 0
DWIDTH 10 0
BBX 9 15 1 0
BITMAP
0800
1800
2400
0000
FF00
6100
6000
6200
6200
7E00
6200
6000
6080
6100
FF00
ENDCHAR
STARTCHAR Edieresis
ENCODING 203
SWIDTH 626 0
DWIDTH 10 0
BBX 9 14 1 0
BITMAP
2600
6600
0000
FF00
6100
6000
6200
6200
7E00
6200
6000
6080
6100
FF00
ENDCHAR
STARTCHAR Igrave
ENCODING 204
SWIDTH 357 0
DWIDTH 6 0
BBX 4 14 1 0
BITMAP
C0
20
00
F0
60
60
60
60
60
60
60
60
60
F0
ENDCHAR
STARTCHAR Iacute
ENCODING 205
SWIDTH 357 0
DWIDTH 6 0
BBX 4 14 1 0
BITMAP
30
C0
00
F0
60
60
60
60
60
60
60
60
60
F0
ENDCHAR
STARTCHAR Icircumflex
ENCODING 206
SWIDTH 357 0
DWIDTH 6 0
BBX 4 15 1 0
BITMAP
40
60
90
00
F0
60
60
60
60
60
60
60
60
60
F0
ENDCHAR
STARTCHAR Idieresis
ENCODING 207
SWIDTH 357 0
DWIDTH 6 0
BBX 6 14 0 0
BITMAP
C8
CC
00
78
30
30
30
30
30
30
30
30
30
78
ENDCHAR
STARTCHAR Eth
ENCODING 208
SWIDTH 737 0
DWIDTH 12 0
BBX 10 11 1 0
BITMAP
FE00
6180
6180
60C0
60C0
F8C0
60C0
60C0
6080
6180
FE00
ENDCHAR
STARTCHAR Ntilde
ENCODING 209
SWIDTH 742 0
DWIDTH 12 0
BBX 11 14 0 0
BITMAP
0C80
1300
0000
F0E0
3040
3840
2C40
2E40
2640
2340
21C0
20C0
20C0
F040
ENDCHAR
STARTCHAR Ograve
ENCODING 210
SWIDTH 738 0
DWIDTH 12 0
BBX 10 14 1 0
BITMAP
1800
0400
0000
1E00
6180
C080
C0C0
C0C0
C0C0
C0C0
C0C0
C080
6180
1E00
ENDCHAR
STARTCHAR Oacute
ENCODING 211
SWIDTH 738 0
DWIDTH 12 0
BBX 10 14 1 0
BITMAP
0600
1800
0000
1E00
6180
C080
C0C0
C0C0
C0C0
C0C0
C0C0
C080
6180
1E00
ENDCHAR
STARTCHAR Ocircumflex
ENCODING 212
SWIDTH 738 0
DWIDTH 12 0
BBX 10 15 1 0
BITMAP
0800
0C00
1200
0000
1E00
6180
C080
C0C0
C0C0
C0C0
C0C0
C0C0
C080
6180
1E00
ENDCHAR
STARTCHAR Otilde
ENCODING 213
SWIDTH 738 0
DWIDTH 12 0
BBX 10 14 1 0
BITMAP
1900
2600
0000
1E00
6180
C080
C0C0
C0C0
C0C0
C0C0
C0C0
C080
6180
1E00
ENDCHAR
STARTCHAR Odieresis
ENCODING 214
SWIDTH 738 0
DWIDTH 12 0
BBX 10 14 1 0
BITMAP
3200
3300
0000
1E00
6180
C080
C0C0
C0C0
C0C0
C0C0
C0C0
C080
6180
1E00
ENDCHAR
STARTCHAR multiply
ENCODING 215
SWIDTH 720 0
DWIDTH 12 0
BBX 9 9 1 0
BITMAP
8080
4180
2300
1600
0C00
1C00
3200
6100
C080
ENDCHAR
STARTCHAR Oslash
ENCODING 216
SWIDTH 737 0
DWIDTH 12 0
BBX 10 11 1 0
BITMAP
1E80
6100
C180
C2C0
C4C0
88C0
D0C0
D0C0
E080
6180
9E00
ENDCHAR
STARTCHAR Ugrave
ENCODING 217
SWIDTH 752 0
DWIDTH 12 0
BBX 12 14 0 0
BITMAP
0600
0300
0000
F8F0
2040
2040
2040
2040
2040
2040
2040
3040
3040
0F80
ENDCHAR
STARTCHAR Uacute
ENCODING 218
SWIDTH 752 0
DWIDTH 12 0
BBX 12 14 0 0
BITMAP
0300
0400
0000
F8F0
2040
2040
2040
2040
2040
2040
2040
3040
3040
0F80
ENDCHAR
STARTCHAR Ucircumflex
ENCODING 219
SWIDTH 752 0
DWIDTH 12 0
BBX 12 15 0 0
BITMAP
0200
0700
0980
0000
F8F0
2040
2040
2040
2040
2040
2040
2040
3040
3040
0F80
ENDCHAR
STARTCHAR Udieresis
ENCODING 220
SWIDTH 752 0
DWIDTH 12 0
BBX 12 14 0 0
BITMAP
0980
0D80
0000
F8F0
2040
2040
2040
2040
2040
2040
2040
3040
3040
0F80
ENDCHAR
STARTCHAR Yacute
ENCODING 221
SWIDTH 647 0
DWIDTH 10 0
BBX 10 14 0 0
BITMAP
0600
0800
0000
F1C0
6080
3100
1100
1A00
0C00
0C00
0C00
0C00
0C00
1F00
ENDCHAR
STARTCHAR Thorn
ENCODING 222
SWIDTH 572 0
DWIDTH 9 0
BBX 8 11 1 0
BITMAP
F0
60
7C
62
63
63
62
7C
60
60
F0
ENDCHAR
STARTCHAR germandbls
ENCODING 223
SWIDTH 563 0
DWIDTH 9 0
BBX 9 11 0 0
BITMAP
1E00
2300
2200
E600
2C00
2300
2100
2180
2100
2900
EE00
ENDCHAR
STARTCHAR agrave
ENCODING 224
SWIDTH 480 0
DWIDTH 8 0
BBX 7 12 1 0
BITMAP
40
20
30
00
70
88
88
18
68
88
88
FE
ENDCHAR
STARTCHAR aacute
ENCODING 225
SWIDTH 480 0
DWIDTH 8 0
BBX 7 12 1 0
BITMAP
10
10
20
00
70
88
88
18
68
88
88
FE
ENDCHAR
STARTCHAR acircumflex
ENCODING 226
SWIDTH 480 0
DWIDTH 8 0
BBX 7 12 1 0
BITMAP
20
70
C8
00
70
88
88
18
68
88
88
FE
ENDCHAR
STARTCHAR atilde
ENCODING 227
SWIDTH 480 0
DWIDTH 8 0
BBX 7 11 1 0
BITMAP
68
98
00
70
88
88
18
68
88
88
FE
ENDCHAR
STARTCHAR adieresis
ENCODING 228
SWIDTH 480 0
DWIDTH 8 0
BBX 7 11 1 0
BITMAP
C8
C8
00
70
88
88
18
68
88
88
FE
ENDCHAR
STARTCHAR aring
ENCODING 229
SWIDTH 480 0
DWIDTH 8 0
BBX 7 13 1 0
BITMAP
30
50
50
30
00
70
88
88
18
68
88
88
FE
ENDCHAR
STARTCHAR ae
ENCODING 230
SWIDTH 709 0
DWIDTH 11 0
BBX 10 8 1 0
BITMAP
7700
9880
88C0
1FC0
6800
8800
8C40
F780
ENDCHAR
STARTCHAR ccedilla
ENCODING 231
SWIDTH 446 0
DWIDTH 7 0
BBX 6 12 1 -4
BITMAP
78
8C
88
80
80
80
C4
78
20
30
08
30
ENDCHAR
STARTCHAR egrave
ENCODING 232
SWIDTH 464 0
DWIDTH 7 0
BBX 6 12 1 0
BITMAP
60
20
10
00
78
88
8C
FC
80
80
C4
78
ENDCHAR
STARTCHAR eacute
ENCODING 233
SWIDTH 464 0
DWIDTH 7 0
BBX 6 12 1 0
BITMAP
18
10
20
00
78
88
8C
FC
80
80
C4
78
ENDCHAR
STARTCHAR ecircumflex
ENCODING 234
SWIDTH 464 0
DWIDTH 7 0
BBX 6 12 1 0
BITMAP
20
30
48
00
78
88
8C
FC
80
80
C4
78
ENDCHAR
STARTCHAR edieresis
ENCODING 235
SWIDTH 464 0
DWIDTH 7 0
BBX 6 11 1 0
BITMAP
C8
CC
00
78
88
8C
FC
80
80
C4
78
ENDCHAR
STARTCHAR igrave
ENCODING 236
SWIDTH 285 0
DWIDTH 5 0
BBX 4 12 0 0
BITMAP
C0
40
20
00
60
20
20
20
20
20
20
70
ENDCHAR
STARTCHAR iacute
ENCODING 237
SWIDTH 285 0
DWIDTH 5 0
BBX 3 12 1 0
BITMAP
60
40
80
00
C0
40
40
40
40
40
40
E0
ENDCHAR
STARTCHAR icircumflex
ENCODING 238
SWIDTH 285 0
DWIDTH 5 0
BBX 4 11 0 0
BITMAP
60
90
00
60
20
20
20
20
20
20
70
ENDCHAR
STARTCHAR idieresis
ENCODING 239
SWIDTH 285 0
DWIDTH 5 0
BBX 4 11 0 0
BITMAP
90
90
00
60
20
20
20
20
20
20
70
ENDCHAR
STARTCHAR eth
ENCODING 240
SWIDTH 532 0
DWIDTH 9 0
BBX 7 11 1 0
BITMAP
F2
1C
24
7C
C6
86
86
86
84
C4
78
ENDCHAR
STARTCHAR ntilde
ENCODING 241
SWIDTH 576 0
DWIDTH 9 0
BBX 8 11 1 0
BITMAP
32
4C
00
DC
66
46
46
46
46
46
EF
ENDCHAR
STARTCHAR ograve
ENCODING 242
SWIDTH 514 0
DWIDTH 8 0
BBX 7 12 1 0
BITMAP
60
20
10
00
78
C4
86
86
86
84
C4
78
ENDCHAR
STARTCHAR oacute
ENCODING 243
SWIDTH 514 0
DWIDTH 8 0
BBX 7 12 1 0
BITMAP
18
10
20
00
78
C4
86
86
86
84
C4
78
ENDCHAR
STARTCHAR ocircumflex
ENCODING 244
SWIDTH 514 0
DWIDTH 8 0
BBX 7 12 1 0
BITMAP
10
30
48
00
78
C4
86
86
86
84
C4
78
ENDCHAR
STARTCHAR otilde
ENCODING 245
SWIDTH 514 0
DWIDTH 8 0
BBX 7 11 1 0
BITMAP
64
98
00
78
C4
86
86
86
84
C4
78
ENDCHAR
STARTCHAR odieresis
ENCODING 246
SWIDTH 514 0
DWIDTH 8 0
BBX 7 11 1 0
BITMAP
4C
4C
00
78
C4
86
86
86
84
C4
78
ENDCHAR
STARTCHAR divide
ENCODING 247
SWIDTH 720 0
DWIDTH 12 0
BBX 10 9 1 0
BITMAP
0800
0C00
0000
0000
FFC0
0000
0000
0800
0C00
ENDCHAR
STARTCHAR oslash
ENCODING 248
SWIDTH 514 0
DWIDTH 8 0
BBX 7 8 1 0
BITMAP
7C
CC
8C
96
A6
C4
C4
F8
ENDCHAR
STARTCHAR ugrave
ENCODING 249
SWIDTH 570 0
DWIDTH 9 0
BBX 9 12 0 0
BITMAP
1000
1800
0800
0000
E700
6300
6300
6300
6300
6300
2300
3F80
ENDCHAR
STARTCHAR uacute
ENCODING 250
SWIDTH 570 0
DWIDTH 9 0
BBX 9 12 0 0
BITMAP
0400
0C00
0800
0000
E700
6300
6300
6300
6300
6300
2300
3F80
ENDCHAR
STARTCHAR ucircumflex
ENCODING 251
SWIDTH 570 0
DWIDTH 9 0
BBX 9 12 0 0
BITMAP
0800
1C00
2600
0000
E700
6300
6300
6300
6300
6300
2300
3F80
ENDCHAR
STARTCHAR udieresis
ENCODING 252
SWIDTH 570 0
DWIDTH 9 0
BBX 9 11 0 0
BITMAP
2600
3600
0000
E700
6300
6300
6300
6300
6300
2300
3F80
ENDCHAR
STARTCHAR yacute
ENCODING 253
SWIDTH 483 0
DWIDTH 8 0
BBX 8 16 0 -4
BITMAP
0C
08
10
00
E7
42
62
24
34
14
18
18
10
10
E0
E0
ENDCHAR
STARTCHAR thorn
ENCODING 254
SWIDTH 524 0
DWIDTH 8 0
BBX 8 15 0 -4
BITMAP
E0
60
60
7E
62
63
63
63
63
62
7C
60
60
60
F0
ENDCHAR
STARTCHAR ydieresis
ENCODING 255
SWIDTH 483 0
DWIDTH 8 0
BBX 8 15 0 -4
BITMAP
26
26
00
E7
42
62
24
34
14
18
18
10
10
E0
E0
ENDCHAR
STARTCHAR Amacron
ENCODING 256
SWIDTH 718 0
DWIDTH 11 0
BBX 11 13 0 0
BITMAP
1F00
0000
0400
0600
0E00
0A00
1300
1100
1180
3F80
20C0
40C0
E1E0
ENDCHAR
STARTCHAR amacron
ENCODING 257
SWIDTH 480 0
DWIDTH 8 0
BBX 7 10 1 0
BITMAP
F8
00
70
88
88
18
68
88
88
FE
ENDCHAR
STARTCHAR Abreve
ENCODING 258
SWIDTH 718 0
DWIDTH 11 0
BBX 11 15 0 0
BITMAP
1100
1100
0E00
0000
0400
0600
0E00
0A00
1300
1100
1180
3F80
20C0
40C0
E1E0
ENDCHAR
STARTCHAR abreve
ENCODING 259
SWIDTH 480 0
DWIDTH 8 0
BBX 7 12 1 0
BITMAP
88
88
70
00
70
88
88
18
68
88
88
FE
ENDCHAR
STARTCHAR Aogonek
ENCODING 260
SWIDTH 719 0
DWIDTH 12 0
BBX 11 15 0 -4
BITMAP
0400
0600
0E00
0B00
1300
1100
1180
3F80
20C0
40C0
E0E0
0100
0200
0200
0380
ENDCHAR
STARTCHAR aogonek
ENCODING 261
SWIDTH 480 0
DWIDTH 8 0
BBX 7 12 1 -4
BITMAP
70
88
88
18
68
88
88
FE
08
10
12
0C
ENDCHAR
STARTCHAR Cacute
ENCODING 262
SWIDTH 670 0
DWIDTH 11 0
BBX 9 14 1 0
BITMAP
0600
0800
1000
1F80
6180
C080
C080
C000
8000
C000
C000
C000
6080
3F00
ENDCHAR
STARTCHAR cacute
ENCODING 263
SWIDTH 446 0
DWIDTH 7 0
BBX 6 12 1 0
BITMAP
18
10
20
00
78
8C
88
80
80
80
C4
78
ENDCHAR
STARTCHAR Ccircumflex
ENCODING 264
SWIDTH 670 0
DWIDTH 11 0
BBX 9 15 1 0
BITMAP
0C00
0C00
1200
0000
1F80
6180
C080
C080
C000
8000
C000
C000
C000
6080
3F00
ENDCHAR
STARTCHAR ccircumflex
ENCODING 265
SWIDTH 446 0
DWIDTH 7 0
BBX 6 12 1 0
BITMAP
20
30
48
00
78
8C
88
80
80
80
C4
78
ENDCHAR
STARTCHAR Cdotaccent
ENCODING 266
SWIDTH 670 0
DWIDTH 11 0
BBX 9 14 1 0
BITMAP
0C00
0C00
0000
1F80
6180
C080
C080
C000
8000
C000
C000
C000
6080
3F00
ENDCHAR
STARTCHAR cdotaccent
ENCODING 267
SWIDTH 446 0
DWIDTH 7 0
BBX 6 11 1 0
BITMAP
30
30
00
78
8C
88
80
80
80
C4
78
ENDCHAR
STARTCHAR Ccaron
ENCODING 268
SWIDTH 670 0
DWIDTH 11 0
BBX 9 15 1 0
BITMAP
1100
1A00
0C00
0000
1F80
6180
C080
C080
C000
8000
C000
C000
C000
6080
3F00
ENDCHAR
STARTCHAR ccaron
ENCODING 269
SWIDTH 446 0
DWIDTH 7 0
BBX 6 12 1 0
BITMAP
88
50
30
00
78
8C
88
80
80
80
C4
78
ENDCHAR
STARTCHAR Dcaron
ENCODING 270
SWIDTH 730 0
DWIDTH 12 0
BBX 10 15 1 0
BITMAP
2200
1400
0800
0000
FE00
6380
6180
60C0
60C0
60C0
60C0
60C0
6080
6100
FE00
ENDCHAR
STARTCHAR dcaron
ENCODING 271
SWIDTH 626 0
DWIDTH 10 0
BBX 9 12 1 0
BITMAP
0180
0D00
0500
0400
7C00
C400
8400
8400
8400
8400
8400
7E00
ENDCHAR
STARTCHAR Dcroat
ENCODING 272
SWIDTH 733 0
DWIDTH 12 0
BBX 10 11 1 0
BITMAP
FE00
6380
6180
60C0
60C0
F8C0
60C0
60C0
6080
6180
FE00
ENDCHAR
STARTCHAR dcroat
ENCODING 273
SWIDTH 540 0
DWIDTH 9 0
BBX 7 11 1 0
BITMAP
0C
3E
04
7C
C4
84
84
84
84
84
7E
ENDCHAR
STARTCHAR Emacron
ENCODING 274
SWIDTH 626 0
DWIDTH 10 0
BBX 9 13 1 0
BITMAP
3C00
0000
FF00
6100
6000
6200
6200
7E00
6200
6000
6080
6100
FF00
ENDCHAR
STARTCHAR emacron
ENCODING 275
SWIDTH 464 0
DWIDTH 7 0
BBX 6 10 1 0
BITMAP
78
00
78
88
8C
FC
80
80
C4
78
ENDCHAR
STARTCHAR Ebreve
ENCODING 276
SWIDTH 626 0
DWIDTH 10 0
BBX 9 15 1 0
BITMAP
2200
2400
1C00
0000
FF00
6100
6000
6200
6200
7E00
6200
6000
6080
6100
FF00
ENDCHAR
STARTCHAR ebreve
ENCODING 277
SWIDTH 464 0
DWIDTH 7 0
BBX 6 12 1 0
BITMAP
88
48
70
00
78
88
8C
FC
80
80
C4
78
ENDCHAR
STARTCHAR Edotaccent
ENCODING 278
SWIDTH 626 0
DWIDTH 10 0
BBX 9 14 1 0
BITMAP
1800
1800
0000
FF00
6100
6000
6200
6200
7E00
6200
6000
6080
6100
FF00
ENDCHAR
STARTCHAR edotaccent
ENCODING 279
SWIDTH 464 0
DWIDTH 7 0
BBX 6 11 1 0
BITMAP
30
30
00
78
88
8C
FC
80
80
C4
78
ENDCHAR
STARTCHAR Eogonek
ENCODING 280
SWIDTH 625 0
DWIDTH 10 0
BBX 9 15 1 -4
BITMAP
FF00
6100
6000
6200
6200
7E00
6200
6000
6080
6100
FF00
0200
0400
0480
0700
ENDCHAR
STARTCHAR eogonek
ENCODING 281
SWIDTH 464 0
DWIDTH 7 0
BBX 6 12 1 -4
BITMAP
78
88
8C
FC
80
80
C4
78
10
20
20
38
ENDCHAR
STARTCHAR Ecaron
ENCODING 282
SWIDTH 626 0
DWIDTH 10 0
BBX 9 15 1 0
BITMAP
2200
3400
1800
0000
FF00
6100
6000
6200
6200
7E00
6200
6000
6080
6100
FF00
ENDCHAR
STARTCHAR ecaron
ENCODING 283
SWIDTH 464 0
DWIDTH 7 0
BBX 6 12 1 0
BITMAP
88
50
30
00
78
88
8C
FC
80
80
C4
78
ENDCHAR
STARTCHAR Gcircumflex
ENCODING 284
SWIDTH 720 0
DWIDTH 12 0
BBX 10 15 1 0
BITMAP
0C00
0C00
1200
0000
1F80
6180
C080
C080
C000
83C0
C180
C180
C180
6180
3F00
ENDCHAR
STARTCHAR gcircumflex
ENCODING 285
SWIDTH 484 0
DWIDTH 8 0
BBX 8 16 0 -4
BITMAP
10
18
24
00
3F
44
46
46
24
78
40
7E
42
C2
C2
7C
ENDCHAR
STARTCHAR Gbreve
ENCODING 286
SWIDTH 720 0
DWIDTH 12 0
BBX 10 15 1 0
BITMAP
2100
1200
0C00
0000
1F80
6180
C080
C080
C000
83C0
C180
C180
C180
6180
3F00
ENDCHAR
STARTCHAR gbreve
ENCODING 287
SWIDTH 484 0
DWIDTH 8 0
BBX 8 16 0 -4
BITMAP
44
24
38
00
3F
44
46
46
24
78
40
7E
42
C2
C2
7C
ENDCHAR
STARTCHAR Gdotaccent
ENCODING 288
SWIDTH 720 0
DWIDTH 12 0
BBX 10 14 1 0
BITMAP
0C00
0C00
0000
1F80
6180
C080
C080
C000
83C0
C180
C180
C180
6180
3F00
ENDCHAR
STARTCHAR gdotaccent
ENCODING 289
SWIDTH 484 0
DWIDTH 8 0
BBX 8 15 0 -4
BITMAP
18
18
00
3F
44
46
46
24
78
40
7E
42
C2
C2
7C
ENDCHAR
STARTCHAR Gcommaaccent
ENCODING 290
SWIDTH 720 0
DWIDTH 12 0
BBX 10 16 1 -5
BITMAP
1F80
6180
C080
C080
C000
83C0
C180
C180
C180
6180
3F00
0000
0C00
0C00
0400
0800
ENDCHAR
STARTCHAR gcommaaccent
ENCODING 291
SWIDTH 484 0
DWIDTH 8 0
BBX 8 17 0 -4
BITMAP
08
10
18
18
00
3F
44
46
46
24
78
40
7E
42
C2
C2
7C
ENDCHAR
STARTCHAR Hcircumflex
ENCODING 292
SWIDTH 777 0
DWIDTH 12 0
BBX 11 15 1 0
BITMAP
0400
0E00
1300
0000
F3E0
6080
6080
6080
6080
7F80
6080
6080
6080
6080
F3E0
ENDCHAR
STARTCHAR hcircumflex
ENCODING 293
SWIDTH 577 0
DWIDTH 9 0
BBX 9 16 0 0
BITMAP
0800
1C00
2600
0000
0000
E000
2000
2000
2E00
3300
2300
2300
2300
2300
2300
F780
ENDCHAR
STARTCHAR Hbar
ENCODING 294
SWIDTH 788 0
DWIDTH 13 0
BBX 11 11 1 0
BITMAP
F3E0
6080
6080
FFE0
6080
7F80
6080
6080
6080
6080
F3E0
ENDCHAR
STARTCHAR hbar
ENCODING 295
SWIDTH 579 0
DWIDTH 9 0
BBX 9 11 0 0
BITMAP
E000
FC00
2000
2E00
3300
2300
2300
2300
2300
2300
7780
ENDCHAR
STARTCHAR Itilde
ENCODING 296
SWIDTH 357 0
DWIDTH 6 0
BBX 6 14 0 0
BITMAP
64
98
00
78
30
30
30
30
30
30
30
30
30
78
ENDCHAR
STARTCHAR itilde
ENCODING 297
SWIDTH 285 0
DWIDTH 5 0
BBX 4 11 0 0
BITMAP
D0
B0
00
60
20
20
20
20
20
20
70
ENDCHAR
STARTCHAR Imacron
ENCODING 298
SWIDTH 357 0
DWIDTH 6 0
BBX 4 13 1 0
BITMAP
F0
00
F0
60
60
60
60
60
60
60
60
60
F0
ENDCHAR
STARTCHAR imacron
ENCODING 299
SWIDTH 285 0
DWIDTH 5 0
BBX 4 10 0 0
BITMAP
F0
00
60
20
20
20
20
20
20
70
ENDCHAR
STARTCHAR Ibreve
ENCODING 300
SWIDTH 357 0
DWIDTH 6 0
BBX 5 15 0 0
BITMAP
88
48
70
00
78
30
30
30
30
30
30
30
30
30
78
ENDCHAR
STARTCHAR ibreve
ENCODING 301
SWIDTH 285 0
DWIDTH 5 0
BBX 4 11 0 0
BITMAP
90
60
00
60
20
20
20
20
20
20
70
ENDCHAR
STARTCHAR Iogonek
ENCODING 302
SWIDTH 357 0
DWIDTH 6 0
BBX 4 15 1 -4
BITMAP
F0
60
60
60
60
60
60
60
60
60
F0
40
40
80
70
ENDCHAR
STARTCHAR iogonek
ENCODING 303
SWIDTH 285 0
DWIDTH 5 0
BBX 3 15 1 -4
BITMAP
C0
40
00
C0
40
40
40
40
40
40
E0
40
80
80
E0
ENDCHAR
STARTCHAR Idotaccent
ENCODING 304
SWIDTH 357 0
DWIDTH 6 0
BBX 4 14 1 0
BITMAP
60
60
00
F0
60
60
60
60
60
60
60
60
60
F0
ENDCHAR
STARTCHAR dotlessi
ENCODING 305
SWIDTH 285 0
DWIDTH 5 0
BBX 3 8 1 0
BITMAP
C0
40
40
40
40
40
40
E0
ENDCHAR
STARTCHAR IJ
ENCODING 306
SWIDTH 753 0
DWIDTH 12 0
BBX 11 11 1 0
BITMAP
F3E0
6080
6080
6080
6080
6080
6080
6080
6080
6480
F700
ENDCHAR
STARTCHAR ij
ENCODING 307
SWIDTH 548 0
DWIDTH 9 0
BBX 7 15 1 -4
BITMAP
C6
46
00
CC
44
44
44
44
44
44
E4
04
04
24
38
ENDCHAR
STARTCHAR Jcircumflex
ENCODING 308
SWIDTH 396 0
DWIDTH 6 0
BBX 6 15 0 0
BITMAP
10
18
64
00
7C
18
18
18
18
18
18
18
18
D0
F0
ENDCHAR
STARTCHAR jcircumflex
ENCODING 309
SWIDTH 263 0
DWIDTH 4 0
BBX 6 16 -2 -4
BITMAP
08
18
24
00
38
08
08
08
08
08
08
08
08
08
D8
70
ENDCHAR
STARTCHAR Kcommaaccent
ENCODING 310
SWIDTH 702 0
DWIDTH 11 0
BBX 10 16 1 -5
BITMAP
F380
6300
6200
6400
6800
7000
7800
6C00
6600
6300
F3C0
0000
0800
0C00
0400
0800
ENDCHAR
STARTCHAR kcommaaccent
ENCODING 311
SWIDTH 542 0
DWIDTH 9 0
BBX 9 16 0 -5
BITMAP
E000
2000
2000
2700
2400
2800
3000
2800
2C00
2600
F780
0000
0800
1800
0800
1000
ENDCHAR
STARTCHAR kgreenlandic
ENCODING 312
SWIDTH 542 0
DWIDTH 9 0
BBX 9 8 0 0
BITMAP
E700
2400
2800
3000
3800
2C00
2600
7780
ENDCHAR
STARTCHAR Lacute
ENCODING 313
SWIDTH 585 0
DWIDTH 9 0
BBX 8 14 1 0
BITMAP
30
40
00
F0
60
60
60
60
60
60
60
61
61
FF
ENDCHAR
STARTCHAR lacute
ENCODING 314
SWIDTH 283 0
DWIDTH 5 0
BBX 4 15 0 0
BITMAP
30
40
00
00
E0
20
20
20
20
20
20
20
20
20
F0
ENDCHAR
STARTCHAR Lcommaaccent
ENCODING 315
SWIDTH 585 0
DWIDTH 9 0
BBX 8 16 1 -5
BITMAP
F0
60
60
60
60
60
60
60
61
61
FF
00
10
18
08
10
ENDCHAR
STARTCHAR lcommaaccent
ENCODING 316
SWIDTH 283 0
DWIDTH 5 0
BBX 4 16 0 -5
BITMAP
E0
20
20
20
20
20
20
20
20
20
F0
00
60
60
20
40
ENDCHAR
STARTCHAR Lcaron
ENCODING 317
SWIDTH 585 0
DWIDTH 9 0
BBX 8 11 1 0
BITMAP
F2
62
62
60
60
60
60
60
61
61
FF
ENDCHAR
STARTCHAR lcaron
ENCODING 318
SWIDTH 366 0
DWIDTH 6 0
BBX 6 12 0 0
BITMAP
0C
E8
28
20
20
20
20
20
20
20
20
F0
ENDCHAR
STARTCHAR Ldot
ENCODING 319
SWIDTH 605 0
DWIDTH 10 0
BBX 8 11 1 0
BITMAP
F0
60
60
60
62
63
60
60
61
61
FF
ENDCHAR
STARTCHAR ldot
ENCODING 320
SWIDTH 357 0
DWIDTH 6 0
BBX 6 11 0 0
BITMAP
E0
20
20
20
2C
2C
20
20
20
20
F0
ENDCHAR
STARTCHAR Lslash
ENCODING 321
SWIDTH 590 0
DWIDTH 9 0
BBX 9 11 0 0
BITMAP
7800
3000
3000
3200
3C00
3000
F000
3000
3080
3080
7F80
ENDCHAR
STARTCHAR lslash
ENCODING 322
SWIDTH 290 0
DWIDTH 5 0
BBX 5 11 0 0
BITMAP
E0
20
20
28
30
60
A0
20
20
20
70
ENDCHAR
STARTCHAR Nacute
ENCODING 323
SWIDTH 742 0
DWIDTH 12 0
BBX 11 14 0 0
BITMAP
0300
0400
0000
F0E0
3040
3840
2C40
2E40
2640
2340
21C0
20C0
20C0
F040
ENDCHAR
STARTCHAR nacute
ENCODING 324
SWIDTH 576 0
DWIDTH 9 0
BBX 8 12 1 0
BITMAP
0C
08
10
00
DC
66
46
46
46
46
46
EF
ENDCHAR
STARTCHAR Ncommaaccent
ENCODING 325
SWIDTH 742 0
DWIDTH 12 0
BBX 11 16 0 -5
BITMAP
F0E0
3040
3840
2C40
2E40
2640
2340
21C0
20C0
20C0
F040
0000
0600
0600
0200
0400
ENDCHAR
STARTCHAR ncommaaccent
ENCODING 326
SWIDTH 576 0
DWIDTH 9 0
BBX 8 13 1 -5
BITMAP
DC
66
46
46
46
46
46
EF
00
10
38
08
10
ENDCHAR
STARTCHAR Ncaron
ENCODING 327
SWIDTH 742 0
DWIDTH 12 0
BBX 11 15 0 0
BITMAP
0880
0D00
0600
0000
F0E0
3040
3840
2C40
2E40
2640
2340
21C0
20C0
20C0
F040
ENDCHAR
STARTCHAR ncaron
ENCODING 328
SWIDTH 576 0
DWIDTH 9 0
BBX 8 12 1 0
BITMAP
44
28
18
00
DC
66
46
46
46
46
46
EF
ENDCHAR
STARTCHAR napostrophe
ENCODING 329
SWIDTH 576 0
DWIDTH 9 0
BBX 11 11 -2 0
BITMAP
C000
C000
4000
9B80
0CC0
08C0
08C0
08C0
08C0
08C0
1DE0
ENDCHAR
STARTCHAR Eng
ENCODING 330
SWIDTH 742 0
DWIDTH 12 0
BBX 11 15 0 -4
BITMAP
F0E0
3040
3840
2C40
2C40
2640
2340
21C0
21C0
20C0
F040
0040
0040
0640
0380
ENDCHAR
STARTCHAR eng
ENCODING 331
SWIDTH 559 0
DWIDTH 9 0
BBX 7 12 1 -4
BITMAP
DC
66
46
46
46
46
46
E6
06
06
34
1C
ENDCHAR
STARTCHAR Omacron
ENCODING 332
SWIDTH 738 0
DWIDTH 12 0
BBX 10 13 1 0
BITMAP
1E00
0000
1E00
6180
C080
C0C0
C0C0
C0C0
C0C0
C0C0
C080
6180
1E00
ENDCHAR
STARTCHAR omacron
ENCODING 333
SWIDTH 514 0
DWIDTH 8 0
BBX 7 10 1 0
BITMAP
7C
00
78
C4
86
86
86
84
C4
78
ENDCHAR
STARTCHAR Obreve
ENCODING 334
SWIDTH 738 0
DWIDTH 12 0
BBX 10 15 1 0
BITMAP
2200
1200
1C00
0000
1E00
6180
C080
C0C0
C0C0
C0C0
C0C0
C0C0
C080
6180
1E00
ENDCHAR
STARTCHAR obreve
ENCODING 335
SWIDTH 514 0
DWIDTH 8 0
BBX 7 12 1 0
BITMAP
44
48
38
00
78
C4
86
86
86
84
C4
78
ENDCHAR
STARTCHAR Ohungarumlaut
ENCODING 336
SWIDTH 738 0
DWIDTH 12 0
BBX 10 14 1 0
BITMAP
0F00
1A00
0000
1E00
6180
C080
C0C0
C0C0
C0C0
C0C0
C0C0
C080
6180
1E00
ENDCHAR
STARTCHAR ohungarumlaut
ENCODING 337
SWIDTH 514 0
DWIDTH 8 0
BBX 7 12 1 0
BITMAP
14
2C
28
00
78
C4
86
86
86
84
C4
78
ENDCHAR
STARTCHAR OE
ENCODING 338
SWIDTH 945 0
DWIDTH 15 0
BBX 14 11 1 0
BITMAP
1FF8
6308
C300
C310
C310
83F0
C310
C300
C304
6308
3FF8
ENDCHAR
STARTCHAR oe
ENCODING 339
SWIDTH 807 0
DWIDTH 13 0
BBX 11 8 1 0
BITMAP
79C0
C660
8620
87E0
8400
8600
C620
7BC0
ENDCHAR
STARTCHAR Racute
ENCODING 340
SWIDTH 659 0
DWIDTH 11 0
BBX 10 14 1 0
BITMAP
0C00
3000
0000
FC00
6300
6300
6300
6600
7800
6C00
6600
6600
6300
F1C0
ENDCHAR
STARTCHAR racute
ENCODING 341
SWIDTH 380 0
DWIDTH 6 0
BBX 6 12 0 0
BITMAP
18
10
20
00
6C
34
20
20
20
20
20
F0
ENDCHAR
STARTCHAR Rcommaaccent
ENCODING 342
SWIDTH 659 0
DWIDTH 11 0
BBX 10 16 1 -5
BITMAP
FC00
6300
6300
6300
6600
7800
6C00
6600
6600
6300
F1C0
0000
1800
1800
0800
1000
ENDCHAR
STARTCHAR rcommaaccent
ENCODING 343
SWIDTH 380 0
DWIDTH 6 0
BBX 6 13 0 -5
BITMAP
6C
34
20
20
20
20
20
F0
00
20
70
10
20
ENDCHAR
STARTCHAR Rcaron
ENCODING 344
SWIDTH 659 0
DWIDTH 11 0
BBX 10 15 1 0
BITMAP
4200
2400
1800
0000
FC00
6300
6300
6300
6600
7800
6C00
6600
6600
6300
F1C0
ENDCHAR
STARTCHAR rcaron
ENCODING 345
SWIDTH 380 0
DWIDTH 6 0
BBX 6 12 0 0
BITMAP
44
28
30
00
6C
34
20
20
20
20
20
F0
ENDCHAR
STARTCHAR Sacute
ENCODING 346
SWIDTH 504 0
DWIDTH 8 0
BBX 7 14 1 0
BITMAP
18
60
00
7C
84
84
C0
60
38
0C
04
86
84
F8
ENDCHAR
STARTCHAR sacute
ENCODING 347
SWIDTH 394 0
DWIDTH 6 0
BBX 5 12 1 0
BITMAP
30
20
40
00
F0
90
88
E0
30
98
88
F0
ENDCHAR
STARTCHAR Scircumflex
ENCODING 348
SWIDTH 504 0
DWIDTH 8 0
BBX 7 15 1 0
BITMAP
30
30
48
00
7C
84
84
C0
60
38
0C
04
86
84
F8
ENDCHAR
STARTCHAR scircumflex
ENCODING 349
SWIDTH 394 0
DWIDTH 6 0
BBX 5 12 1 0
BITMAP
20
60
90
00
F0
90
88
E0
30
98
88
F0
ENDCHAR
STARTCHAR uni015E
ENCODING 350
SWIDTH 504 0
DWIDTH 8 0
BBX 7 15 1 -4
BITMAP
7C
84
84
C0
60
38
0C
04
86
84
F8
20
30
08
30
ENDCHAR
STARTCHAR uni015F
ENCODING 351
SWIDTH 394 0
DWIDTH 6 0
BBX 5 12 1 -4
BITMAP
F0
90
88
E0
30
98
88
F0
40
60
10
60
ENDCHAR
STARTCHAR Scaron
ENCODING 352
SWIDTH 504 0
DWIDTH 8 0
BBX 7 15 1 0
BITMAP
44
68
30
00
7C
84
84
C0
60
38
0C
04
86
84
F8
ENDCHAR
STARTCHAR scaron
ENCODING 353
SWIDTH 394 0
DWIDTH 6 0
BBX 5 12 1 0
BITMAP
88
50
60
00
F0
90
88
E0
30
98
88
F0
ENDCHAR
STARTCHAR uni0162
ENCODING 354
SWIDTH 603 0
DWIDTH 10 0
BBX 9 15 0 -4
BITMAP
FF80
8C80
8C80
0C00
0C00
0C00
0C00
0C00
0C00
0C00
1E00
0800
0C00
0400
1C00
ENDCHAR
STARTCHAR uni0163
ENCODING 355
SWIDTH 315 0
DWIDTH 5 0
BBX 4 14 1 -4
BITMAP
40
40
F0
C0
C0
C0
C0
C0
C0
70
40
60
10
60
ENDCHAR
STARTCHAR Tcaron
ENCODING 356
SWIDTH 603 0
DWIDTH 10 0
BBX 9 15 0 0
BITMAP
2200
1400
0C00
0000
FF80
8C80
8C80
0C00
0C00
0C00
0C00
0C00
0C00
0C00
1E00
ENDCHAR
STARTCHAR tcaron
ENCODING 357
SWIDTH 353 0
DWIDTH 6 0
BBX 4 12 1 0
BITMAP
10
10
50
40
F0
C0
C0
C0
C0
C0
C0
70
ENDCHAR
STARTCHAR Tbar
ENCODING 358
SWIDTH 603 0
DWIDTH 10 0
BBX 9 11 0 0
BITMAP
FF80
8C80
8C80
0C00
0C00
3F00
0C00
0C00
0C00
0C00
1E00
ENDCHAR
STARTCHAR tbar
ENCODING 359
SWIDTH 328 0
DWIDTH 5 0
BBX 4 10 1 0
BITMAP
40
40
F0
40
F0
40
40
40
50
60
ENDCHAR
STARTCHAR Utilde
ENCODING 360
SWIDTH 752 0
DWIDTH 12 0
BBX 12 14 0 0
BITMAP
0680
0B00
0000
F8F0
2040
2040
2040
2040
2040
2040
2040
3040
3040
0F80
ENDCHAR
STARTCHAR utilde
ENCODING 361
SWIDTH 570 0
DWIDTH 9 0
BBX 9 11 0 0
BITMAP
1A00
2C00
0000
E700
6300
6300
6300
6300
6300
2300
3F80
ENDCHAR
STARTCHAR Umacron
ENCODING 362
SWIDTH 752 0
DWIDTH 12 0
BBX 12 13 0 0
BITMAP
0F80
0000
F8F0
2040
2040
2040
2040
2040
2040
2040
3040
3040
0F80
ENDCHAR
STARTCHAR umacron
ENCODING 363
SWIDTH 570 0
DWIDTH 9 0
BBX 9 10 0 0
BITMAP
3E00
0000
E700
6300
6300
6300
6300
6300
2300
3F80
ENDCHAR
STARTCHAR Ubreve
ENCODING 364
SWIDTH 752 0
DWIDTH 12 0
BBX 12 15 0 0
BITMAP
0880
0880
0700
0000
F8F0
2040
2040
2040
2040
2040
2040
2040
3040
3040
0F80
ENDCHAR
STARTCHAR ubreve
ENCODING 365
SWIDTH 570 0
DWIDTH 9 0
BBX 9 12 0 0
BITMAP
2200
2200
1C00
0000
E700
6300
6300
6300
6300
6300
2300
3F80
ENDCHAR
STARTCHAR Uring
ENCODING 366
SWIDTH 752 0
DWIDTH 12 0
BBX 12 14 0 0
BITMAP
0700
0500
0700
F8F0
2040
2040
2040
2040
2040
2040
2040
3040
3040
0F80
ENDCHAR
STARTCHAR uring
ENCODING 367
SWIDTH 570 0
DWIDTH 9 0
BBX 9 13 0 0
BITMAP
1800
1400
1400
1800
0000
E700
6300
6300
6300
6300
6300
2300
3F80
ENDCHAR
STARTCHAR Uhungarumlaut
ENCODING 368
SWIDTH 752 0
DWIDTH 12 0
BBX 12 14 0 0
BITMAP
03C0
0500
0000
F8F0
2040
2040
2040
2040
2040
2040
2040
3040
3040
0F80
ENDCHAR
STARTCHAR uhungarumlaut
ENCODING 369
SWIDTH 570 0
DWIDTH 9 0
BBX 9 12 0 0
BITMAP
0B00
1A00
1400
0000
E700
6300
6300
6300
6300
6300
2300
3F80
ENDCHAR
STARTCHAR Uogonek
ENCODING 370
SWIDTH 753 0
DWIDTH 12 0
BBX 12 15 0 -4
BITMAP
F8F0
2040
2040
2040
2040
2040
2040
2040
3040
3040
0F80
0300
0200
0480
0300
ENDCHAR
STARTCHAR uogonek
ENCODING 371
SWIDTH 570 0
DWIDTH 9 0
BBX 9 12 0 -4
BITMAP
E700
6300
6300
6300
6300
6300
2300
3F80
0200
0400
0400
0700
ENDCHAR
STARTCHAR Wcircumflex
ENCODING 372
SWIDTH 944 0
DWIDTH 15 0
BBX 15 15 0 0
BITMAP
0100
0380
04C0
0000
F78E
6104
2184
3188
3188
11C8
1A50
0A50
0C60
0C20
0420
ENDCHAR
STARTCHAR wcircumflex
ENCODING 373
SWIDTH 749 0
DWIDTH 12 0
BBX 12 12 0 0
BITMAP
0600
0600
0900
0000
EF70
4620
6220
2740
3540
1940
1980
1080
ENDCHAR
STARTCHAR Ycircumflex
ENCODING 374
SWIDTH 647 0
DWIDTH 10 0
BBX 10 15 0 0
BITMAP
0400
0E00
1300
0000
F1C0
6080
3100
1100
1A00
0C00
0C00
0C00
0C00
0C00
1F00
ENDCHAR
STARTCHAR ycircumflex
ENCODING 375
SWIDTH 483 0
DWIDTH 8 0
BBX 8 16 0 -4
BITMAP
08
18
24
00
E7
42
62
24
34
14
18
18
10
10
E0
E0
ENDCHAR
STARTCHAR Ydieresis
ENCODING 376
SWIDTH 647 0
DWIDTH 10 0
BBX 10 14 0 0
BITMAP
1100
1B00
0000
F1C0
6080
3100
1100
1A00
0C00
0C00
0C00
0C00
0C00
1F00
ENDCHAR
STARTCHAR Zacute
ENCODING 377
SWIDTH 594 0
DWIDTH 10 0
BBX 9 14 0 0
BITMAP
0600
1800
0000
7F80
4300
4300
0600
0C00
0C00
1800
3000
3080
6080
FF80
ENDCHAR
STARTCHAR zacute
ENCODING 378
SWIDTH 458 0
DWIDTH 7 0
BBX 7 12 0 0
BITMAP
0C
08
10
00
7E
4C
08
18
30
22
62
FE
ENDCHAR
STARTCHAR Zdotaccent
ENCODING 379
SWIDTH 594 0
DWIDTH 10 0
BBX 9 14 0 0
BITMAP
0C00
0C00
0000
7F80
4300
4300
0600
0C00
0C00
1800
3000
3080
6080
FF80
ENDCHAR
STARTCHAR zdotaccent
ENCODING 380
SWIDTH 458 0
DWIDTH 7 0
BBX 7 11 0 0
BITMAP
18
18
00
7E
4C
08
18
30
22
62
FE
ENDCHAR
STARTCHAR Zcaron
ENCODING 381
SWIDTH 594 0
DWIDTH 10 0
BBX 9 15 0 0
BITMAP
1100
1200
0C00
0000
7F80
4300
4300
0600
0C00
0C00
1800
3000
3080
6080
FF80
ENDCHAR
STARTCHAR zcaron
ENCODING 382
SWIDTH 458 0
DWIDTH 7 0
BBX 7 12 0 0
BITMAP
44
28
18
00
7E
4C
08
18
30
22
62
FE
ENDCHAR
STARTCHAR longs
ENCODING 383
SWIDTH 285 0
DWIDTH 5 0
BBX 6 11 0 0
BITMAP
1C
24
20
E0
20
20
20
20
20
20
F8
ENDCHAR
STARTCHAR uni0180
ENCODING 384
SWIDTH 522 0
DWIDTH 8 0
BBX 8 11 0 0
BITMAP
E0
FC
60
7E
62
63
63
63
63
62
3C
ENDCHAR
STARTCHAR uni0188
ENCODING 392
SWIDTH 446 0
DWIDTH 7 0
BBX 8 11 1 0
BITMAP
06
0B
08
78
8C
88
80
80
80
C4
78
ENDCHAR
STARTCHAR uni0190
ENCODING 400
SWIDTH 518 0
DWIDTH 8 0
BBX 7 11 1 0
BITMAP
7C
C6
84
80
40
38
C0
80
80
C2
7C
ENDCHAR
STARTCHAR uni0192
ENCODING 402
SWIDTH 301 0
DWIDTH 5 0
BBX 7 15 -1 -4
BITMAP
1E
12
10
7C
10
10
10
10
10
10
10
10
10
90
E0
ENDCHAR
STARTCHAR uni0195
ENCODING 405
SWIDTH 798 0
DWIDTH 13 0
BBX 12 11 0 0
BITMAP
E000
2000
2000
2E20
3230
2310
2310
2310
2310
2310
F1E0
ENDCHAR
STARTCHAR uni0199
ENCODING 409
SWIDTH 538 0
DWIDTH 9 0
BBX 9 11 0 0
BITMAP
1E00
2400
2000
2700
2400
2800
3000
3800
2C00
2600
F780
ENDCHAR
STARTCHAR uni019A
ENCODING 410
SWIDTH 287 0
DWIDTH 5 0
BBX 4 11 0 0
BITMAP
E0
20
20
20
F0
20
20
20
20
20
70
ENDCHAR
STARTCHAR uni019B
ENCODING 411
SWIDTH 495 0
DWIDTH 8 0
BBX 8 11 0 0
BITMAP
64
18
68
08
18
14
34
24
62
42
E7
ENDCHAR
STARTCHAR uni019E
ENCODING 414
SWIDTH 559 0
DWIDTH 9 0
BBX 8 12 1 -4
BITMAP
DC
66
46
46
46
46
46
E6
06
06
06
07
ENDCHAR
STARTCHAR Ohorn
ENCODING 416
SWIDTH 737 0
DWIDTH 12 0
BBX 10 14 1 0
BITMAP
0040
0040
0040
1F80
6180
C080
C0C0
C0C0
80C0
C0C0
C0C0
C080
6180
3E00
ENDCHAR
STARTCHAR ohorn
ENCODING 417
SWIDTH 516 0
DWIDTH 8 0
BBX 7 11 1 0
BITMAP
02
02
02
7C
C4
84
86
86
84
C4
78
ENDCHAR
STARTCHAR uni01A5
ENCODING 421
SWIDTH 522 0
DWIDTH 8 0
BBX 8 15 0 -4
BITMAP
3C
24
60
7E
62
63
63
63
63
62
7C
60
60
60
F0
ENDCHAR
STARTCHAR uni01AA
ENCODING 426
SWIDTH 298 0
DWIDTH 5 0
BBX 7 15 -1 -4
BITMAP
60
90
90
70
10
10
10
10
10
10
10
10
10
12
0E
ENDCHAR
STARTCHAR uni01AB
ENCODING 427
SWIDTH 321 0
DWIDTH 5 0
BBX 4 14 1 -4
BITMAP
40
40
F0
C0
C0
C0
C0
C0
C0
70
10
10
50
60
ENDCHAR
STARTCHAR uni01AD
ENCODING 429
SWIDTH 315 0
DWIDTH 5 0
BBX 5 11 1 0
BITMAP
38
48
C0
F0
C0
C0
C0
C0
C0
C0
70
ENDCHAR
STARTCHAR Uhorn
ENCODING 431
SWIDTH 762 0
DWIDTH 12 0
BBX 13 14 0 0
BITMAP
0008
0008
0008
F8F0
2040
2040
2040
2040
2040
2040
2040
3040
3040
0F80
ENDCHAR
STARTCHAR uhorn
ENCODING 432
SWIDTH 574 0
DWIDTH 9 0
BBX 9 11 0 0
BITMAP
0080
0080
0080
E780
6300
6300
6300
6300
6300
2300
3F80
ENDCHAR
STARTCHAR uni01B5
ENCODING 437
SWIDTH 594 0
DWIDTH 10 0
BBX 9 11 0 0
BITMAP
7F80
4100
4300
0600
0400
3F00
1800
1000
3080
6080
FF80
ENDCHAR
STARTCHAR uni01BA
ENCODING 442
SWIDTH 430 0
DWIDTH 7 0
BBX 5 12 1 -4
BITMAP
F8
90
20
60
78
08
08
18
60
80
98
F0
ENDCHAR
STARTCHAR uni01BB
ENCODING 443
SWIDTH 508 0
DWIDTH 8 0
BBX 7 11 1 0
BITMAP
78
8C
0C
0C
0C
FE
10
20
42
84
FC
ENDCHAR
STARTCHAR uni01BE
ENCODING 446
SWIDTH 406 0
DWIDTH 7 0
BBX 5 10 1 0
BITMAP
40
40
F0
40
30
18
08
88
98
F0
ENDCHAR
STARTCHAR uni01C0
ENCODING 448
SWIDTH 250 0
DWIDTH 4 0
BBX 2 11 1 0
BITMAP
C0
C0
C0
C0
C0
C0
C0
C0
C0
C0
C0
ENDCHAR
STARTCHAR uni01C1
ENCODING 449
SWIDTH 423 0
DWIDTH 7 0
BBX 4 11 1 0
BITMAP
D0
D0
D0
D0
D0
D0
D0
D0
D0
D0
D0
ENDCHAR
STARTCHAR uni01C2
ENCODING 450
SWIDTH 422 0
DWIDTH 7 0
BBX 5 11 1 0
BITMAP
20
20
20
F8
20
F8
20
20
20
20
20
ENDCHAR
STARTCHAR uni01C3
ENCODING 451
SWIDTH 245 0
DWIDTH 4 0
BBX 2 11 1 0
BITMAP
C0
C0
C0
C0
C0
80
80
80
00
C0
C0
ENDCHAR
STARTCHAR uni01DE
ENCODING 478
SWIDTH 718 0
DWIDTH 11 0
BBX 11 15 0 0
BITMAP
1F00
1900
1900
0000
0400
0600
0E00
0A00
1300
1100
1180
3F80
20C0
40C0
E1E0
ENDCHAR
STARTCHAR uni01DF
ENCODING 479
SWIDTH 480 0
DWIDTH 8 0
BBX 7 13 1 0
BITMAP
F8
00
C8
C8
00
70
88
88
18
68
88
88
FE
ENDCHAR
STARTCHAR uni01F0
ENCODING 496
SWIDTH 263 0
DWIDTH 4 0
BBX 6 16 -2 -4
BITMAP
24
24
18
00
38
08
08
08
08
08
08
08
08
08
D8
70
ENDCHAR
STARTCHAR Aringacute
ENCODING 506
SWIDTH 718 0
DWIDTH 11 0
BBX 11 17 0 0
BITMAP
0600
0C00
0000
0E00
0A00
0E00
0400
0600
0E00
0A00
1300
1100
1180
3F80
20C0
40C0
E1E0
ENDCHAR
STARTCHAR aringacute
ENCODING 507
SWIDTH 480 0
DWIDTH 8 0
BBX 7 15 1 0
BITMAP
30
60
30
50
50
30
00
70
88
88
18
68
88
88
FE
ENDCHAR
STARTCHAR AEacute
ENCODING 508
SWIDTH 894 0
DWIDTH 14 0
BBX 14 14 0 0
BITMAP
0060
0180
0000
07F8
0508
0504
0900
0910
1FF0
1110
2110
4104
4104
E7F8
ENDCHAR
STARTCHAR aeacute
ENCODING 509
SWIDTH 709 0
DWIDTH 11 0
BBX 10 12 1 0
BITMAP
0C00
0800
1000
0000
7700
9880
88C0
1FC0
6800
8800
8C40
F780
ENDCHAR
STARTCHAR Oslashacute
ENCODING 510
SWIDTH 737 0
DWIDTH 12 0
BBX 10 14 1 0
BITMAP
0600
1800
0000
1E80
6100
C180
C2C0
C4C0
88C0
D0C0
D0C0
E080
6180
9E00
ENDCHAR
STARTCHAR oslashacute
ENCODING 511
SWIDTH 514 0
DWIDTH 8 0
BBX 7 12 1 0
BITMAP
18
10
20
00
7C
CC
8C
96
A6
C4
C4
F8
ENDCHAR
STARTCHAR uni0218
ENCODING 536
SWIDTH 504 0
DWIDTH 8 0
BBX 7 16 1 -5
BITMAP
7C
84
84
C0
60
38
0C
04
86
84
F8
00
30
30
10
20
ENDCHAR
STARTCHAR uni0219
ENCODING 537
SWIDTH 394 0
DWIDTH 6 0
BBX 5 13 1 -5
BITMAP
F0
90
88
E0
30
98
88
F0
00
60
60
20
40
ENDCHAR
STARTCHAR uni021A
ENCODING 538
SWIDTH 603 0
DWIDTH 10 0
BBX 9 16 0 -5
BITMAP
FF80
8C80
8C80
0C00
0C00
0C00
0C00
0C00
0C00
0C00
1E00
0000
0C00
0C00
0400
0800
ENDCHAR
STARTCHAR uni021B
ENCODING 539
SWIDTH 315 0
DWIDTH 5 0
BBX 4 15 1 -5
BITMAP
40
40
F0
C0
C0
C0
C0
C0
C0
70
00
60
60
20
40
ENDCHAR
STARTCHAR uni0221
ENCODING 545
SWIDTH 674 0
DWIDTH 11 0
BBX 10 13 1 -2
BITMAP
0C00
0400
0400
7C00
C400
8400
8400
8400
84C0
8540
7F80
0400
0400
ENDCHAR
STARTCHAR uni0228
ENCODING 552
SWIDTH 626 0
DWIDTH 10 0
BBX 9 15 1 -4
BITMAP
FF00
6100
6000
6200
6200
7E00
6200
6000
6080
6100
FF00
1000
1800
0400
1800
ENDCHAR
STARTCHAR uni0229
ENCODING 553
SWIDTH 464 0
DWIDTH 7 0
BBX 6 12 1 -4
BITMAP
78
88
8C
FC
80
80
C4
78
20
30
10
70
ENDCHAR
STARTCHAR uni0234
ENCODING 564
SWIDTH 399 0
DWIDTH 6 0
BBX 6 13 0 -2
BITMAP
E0
60
60
60
60
60
60
60
6C
74
3C
20
40
ENDCHAR
STARTCHAR uni0235
ENCODING 565
SWIDTH 702 0
DWIDTH 11 0
BBX 10 10 1 -2
BITMAP
DC00
6400
4600
4600
4600
46C0
4740
E3C0
0200
0400
ENDCHAR
STARTCHAR uni0236
ENCODING 566
SWIDTH 406 0
DWIDTH 7 0
BBX 6 13 1 -2
BITMAP
40
40
C0
F0
C0
C0
C0
C0
D8
E4
78
40
C0
ENDCHAR
STARTCHAR uni0237
ENCODING 567
SWIDTH 263 0
DWIDTH 4 0
BBX 5 12 -2 -4
BITMAP
38
08
08
08
08
08
08
08
08
08
D8
70
ENDCHAR
STARTCHAR uni0250
ENCODING 592
SWIDTH 475 0
DWIDTH 8 0
BBX 7 8 0 0
BITMAP
FE
62
62
6C
70
66
26
3C
ENDCHAR
STARTCHAR uni0251
ENCODING 593
SWIDTH 542 0
DWIDTH 9 0
BBX 7 8 1 0
BITMAP
7C
C4
84
84
84
84
84
7E
ENDCHAR
STARTCHAR uni0252
ENCODING 594
SWIDTH 544 0
DWIDTH 9 0
BBX 8 8 0 0
BITMAP
FE
23
21
21
21
21
22
3C
ENDCHAR
STARTCHAR uni0253
ENCODING 595
SWIDTH 518 0
DWIDTH 8 0
BBX 7 11 1 0
BITMAP
78
48
C0
FC
C4
C6
C6
C6
C4
C4
78
ENDCHAR
STARTCHAR uni0254
ENCODING 596
SWIDTH 454 0
DWIDTH 7 0
BBX 7 8 0 0
BITMAP
38
4C
86
06
06
44
44
78
ENDCHAR
STARTCHAR uni0255
ENCODING 597
SWIDTH 447 0
DWIDTH 7 0
BBX 6 10 1 -2
BITMAP
78
8C
88
80
80
98
E4
78
40
80
ENDCHAR
STARTCHAR uni0256
ENCODING 598
SWIDTH 528 0
DWIDTH 8 0
BBX 9 15 1 -4
BITMAP
0C00
0400
0400
7C00
C400
8400
8400
8400
8400
8400
7C00
0400
0400
0480
0380
ENDCHAR
STARTCHAR uni0257
ENCODING 599
SWIDTH 542 0
DWIDTH 9 0
BBX 9 11 1 0
BITMAP
0380
0480
0400
7C00
C400
8400
8400
8400
8400
8400
7E00
ENDCHAR
STARTCHAR uni0258
ENCODING 600
SWIDTH 466 0
DWIDTH 7 0
BBX 7 8 0 0
BITMAP
38
44
42
7E
02
06
84
78
ENDCHAR
STARTCHAR uni0259
ENCODING 601
SWIDTH 464 0
DWIDTH 7 0
BBX 7 8 0 0
BITMAP
38
4C
86
02
7E
42
44
38
ENDCHAR
STARTCHAR uni025A
ENCODING 602
SWIDTH 642 0
DWIDTH 10 0
BBX 10 8 0 0
BITMAP
3800
4C80
8740
02C0
7E00
4200
4400
3800
ENDCHAR
STARTCHAR uni025B
ENCODING 603
SWIDTH 399 0
DWIDTH 6 0
BBX 5 8 1 0
BITMAP
F8
88
80
70
80
80
88
F0
ENDCHAR
STARTCHAR uni025C
ENCODING 604
SWIDTH 398 0
DWIDTH 6 0
BBX 6 8 0 0
BITMAP
78
CC
08
30
08
0C
8C
78
ENDCHAR
STARTCHAR uni025D
ENCODING 605
SWIDTH 575 0
DWIDTH 9 0
BBX 9 8 0 0
BITMAP
7800
CC00
0E80
3980
0800
0C00
8C00
7800
ENDCHAR
STARTCHAR uni025E
ENCODING 606
SWIDTH 500 0
DWIDTH 8 0
BBX 6 8 1 0
BITMAP
7C
C4
84
98
84
84
C4
7C
ENDCHAR
STARTCHAR uni025F
ENCODING 607
SWIDTH 272 0
DWIDTH 4 0
BBX 5 12 -1 -4
BITMAP
70
10
10
78
10
10
10
10
10
10
90
E0
ENDCHAR
STARTCHAR uni0260
ENCODING 608
SWIDTH 541 0
DWIDTH 9 0
BBX 10 15 1 -4
BITMAP
03C0
04C0
0400
7C00
CC00
8400
8400
8400
8400
8400
7C00
0400
0400
CC00
F800
ENDCHAR
STARTCHAR uni0261
ENCODING 609
SWIDTH 521 0
DWIDTH 8 0
BBX 6 12 1 -4
BITMAP
7C
CC
84
84
84
84
84
7C
04
04
CC
F8
ENDCHAR
STARTCHAR uni0262
ENCODING 610
SWIDTH 535 0
DWIDTH 9 0
BBX 7 8 1 0
BITMAP
7C
C4
82
80
8E
84
C4
7C
ENDCHAR
STARTCHAR uni0263
ENCODING 611
SWIDTH 479 0
DWIDTH 8 0
BBX 8 12 0 -4
BITMAP
E7
42
62
24
34
38
18
18
18
28
28
18
ENDCHAR
STARTCHAR uni0264
ENCODING 612
SWIDTH 466 0
DWIDTH 7 0
BBX 7 8 0 0
BITMAP
EE
92
28
2C
44
44
44
38
ENDCHAR
STARTCHAR uni0265
ENCODING 613
SWIDTH 553 0
DWIDTH 9 0
BBX 9 12 0 -4
BITMAP
E700
6300
6300
6300
6300
6300
2300
3F00
0300
0300
0300
0380
ENDCHAR
STARTCHAR uni0266
ENCODING 614
SWIDTH 577 0
DWIDTH 9 0
BBX 9 11 0 0
BITMAP
1C00
2600
2000
2E00
3300
2300
2300
2300
2300
2300
F780
ENDCHAR
STARTCHAR uni0267
ENCODING 615
SWIDTH 562 0
DWIDTH 9 0
BBX 8 15 0 -4
BITMAP
1C
26
20
2E
33
23
23
23
23
23
F3
03
03
1A
0E
ENDCHAR
STARTCHAR uni0268
ENCODING 616
SWIDTH 295 0
DWIDTH 5 0
BBX 3 11 1 0
BITMAP
C0
40
00
C0
40
40
E0
40
40
40
E0
ENDCHAR
STARTCHAR uni0269
ENCODING 617
SWIDTH 286 0
DWIDTH 5 0
BBX 5 8 0 0
BITMAP
E0
60
60
60
60
60
60
38
ENDCHAR
STARTCHAR uni026A
ENCODING 618
SWIDTH 287 0
DWIDTH 5 0
BBX 3 8 1 0
BITMAP
E0
40
40
40
40
40
40
E0
ENDCHAR
STARTCHAR uni026B
ENCODING 619
SWIDTH 290 0
DWIDTH 5 0
BBX 5 11 0 0
BITMAP
E0
20
20
20
68
B0
20
20
20
20
70
ENDCHAR
STARTCHAR uni026C
ENCODING 620
SWIDTH 318 0
DWIDTH 5 0
BBX 5 11 0 0
BITMAP
60
20
20
E0
A0
A8
70
20
20
20
78
ENDCHAR
STARTCHAR uni026D
ENCODING 621
SWIDTH 248 0
DWIDTH 4 0
BBX 6 15 0 -4
BITMAP
E0
60
60
60
60
60
60
60
60
60
60
60
60
2C
38
ENDCHAR
STARTCHAR uni026E
ENCODING 622
SWIDTH 590 0
DWIDTH 9 0
BBX 9 15 0 -4
BITMAP
E000
2000
2000
3F80
2100
2300
2600
2C00
2300
2180
F080
0080
0080
1180
1E00
ENDCHAR
STARTCHAR uni026F
ENCODING 623
SWIDTH 846 0
DWIDTH 14 0
BBX 13 8 0 0
BITMAP
E670
6210
6210
6210
6210
6210
2630
39D8
ENDCHAR
STARTCHAR uni0270
ENCODING 624
SWIDTH 826 0
DWIDTH 13 0
BBX 13 12 0 -4
BITMAP
E670
6210
6210
6210
6210
6210
2630
39D0
0010
0010
0010
0018
ENDCHAR
STARTCHAR uni0271
ENCODING 625
SWIDTH 835 0
DWIDTH 13 0
BBX 11 12 1 -4
BITMAP
DDC0
6620
4620
4620
4620
4620
4620
EF20
0020
0020
0120
01C0
ENDCHAR
STARTCHAR uni0272
ENCODING 626
SWIDTH 574 0
DWIDTH 9 0
BBX 11 12 -2 -4
BITMAP
3B80
0C80
08C0
08C0
08C0
08C0
08C0
09E0
0800
0800
D800
7000
ENDCHAR
STARTCHAR uni0273
ENCODING 627
SWIDTH 563 0
DWIDTH 9 0
BBX 11 12 0 -4
BITMAP
6E00
3300
2300
2300
2300
2300
2300
F300
0300
0300
0160
01C0
ENDCHAR
STARTCHAR uni0274
ENCODING 628
SWIDTH 568 0
DWIDTH 9 0
BBX 9 8 0 0
BITMAP
E380
7100
5900
5900
4D00
4700
4300
E100
ENDCHAR
STARTCHAR uni0275
ENCODING 629
SWIDTH 514 0
DWIDTH 8 0
BBX 7 8 1 0
BITMAP
78
84
86
FE
86
84
C4
78
ENDCHAR
STARTCHAR uni0276
ENCODING 630
SWIDTH 732 0
DWIDTH 12 0
BBX 10 8 1 0
BITMAP
7FC0
C440
8480
8780
8480
8440
C440
7FC0
ENDCHAR
STARTCHAR uni0277
ENCODING 631
SWIDTH 672 0
DWIDTH 11 0
BBX 9 8 1 0
BITMAP
3E00
4100
8180
9880
8880
8880
8980
7700
ENDCHAR
STARTCHAR uni0278
ENCODING 632
SWIDTH 658 0
DWIDTH 11 0
BBX 9 15 1 -4
BITMAP
3800
0800
0800
7E00
C900
8980
8980
8880
8980
C900
7E00
0800
0800
0800
3C00
ENDCHAR
STARTCHAR uni0279
ENCODING 633
SWIDTH 380 0
DWIDTH 6 0
BBX 6 8 0 0
BITMAP
3C
10
10
10
10
10
F0
DC
ENDCHAR
STARTCHAR uni027A
ENCODING 634
SWIDTH 374 0
DWIDTH 6 0
BBX 6 11 0 0
BITMAP
30
10
10
10
10
10
10
10
10
F0
DC
ENDCHAR
STARTCHAR uni027B
ENCODING 635
SWIDTH 375 0
DWIDTH 6 0
BBX 8 12 0 -4
BITMAP
3C
10
10
10
10
10
F0
D0
10
10
0B
0E
ENDCHAR
STARTCHAR uni027C
ENCODING 636
SWIDTH 378 0
DWIDTH 6 0
BBX 6 12 0 -4
BITMAP
6C
34
20
20
20
20
20
20
20
20
20
F0
ENDCHAR
STARTCHAR uni027D
ENCODING 637
SWIDTH 373 0
DWIDTH 6 0
BBX 6 12 0 -4
BITMAP
EC
7C
20
20
20
20
20
20
20
20
24
1C
ENDCHAR
STARTCHAR uni027E
ENCODING 638
SWIDTH 371 0
DWIDTH 6 0
BBX 6 8 0 0
BITMAP
1C
24
20
20
20
20
20
F0
ENDCHAR
STARTCHAR uni027F
ENCODING 639
SWIDTH 371 0
DWIDTH 6 0
BBX 6 8 0 0
BITMAP
E0
90
10
10
10
10
10
3C
ENDCHAR
STARTCHAR uni0280
ENCODING 640
SWIDTH 494 0
DWIDTH 8 0
BBX 7 8 1 0
BITMAP
F8
4C
4C
48
70
58
4C
E6
ENDCHAR
STARTCHAR uni0281
ENCODING 641
SWIDTH 494 0
DWIDTH 8 0
BBX 7 8 1 0
BITMAP
E6
4C
48
50
70
4C
4C
F8
ENDCHAR
STARTCHAR uni0282
ENCODING 642
SWIDTH 395 0
DWIDTH 6 0
BBX 5 12 1 -4
BITMAP
F0
90
88
E0
30
98
88
F0
80
80
A0
E0
ENDCHAR
STARTCHAR uni0283
ENCODING 643
SWIDTH 253 0
DWIDTH 4 0
BBX 8 15 -2 -4
BITMAP
0F
0B
18
18
18
18
18
18
18
18
18
18
18
D0
70
ENDCHAR
STARTCHAR uni0284
ENCODING 644
SWIDTH 286 0
DWIDTH 5 0
BBX 7 15 -1 -4
BITMAP
0E
12
10
10
10
10
10
10
10
10
78
10
10
90
E0
ENDCHAR
STARTCHAR uni0285
ENCODING 645
SWIDTH 361 0
DWIDTH 6 0
BBX 7 12 0 -4
BITMAP
E0
90
10
10
10
10
10
10
10
10
1A
0E
ENDCHAR
STARTCHAR uni0286
ENCODING 646
SWIDTH 253 0
DWIDTH 4 0
BBX 7 15 -1 -4
BITMAP
1E
16
30
30
30
30
30
30
30
30
30
F0
B8
A0
E0
ENDCHAR
STARTCHAR uni0287
ENCODING 647
SWIDTH 315 0
DWIDTH 5 0
BBX 4 10 0 -2
BITMAP
60
B0
30
30
30
30
30
F0
30
20
ENDCHAR
STARTCHAR uni0288
ENCODING 648
SWIDTH 309 0
DWIDTH 5 0
BBX 5 14 1 -4
BITMAP
40
40
F0
40
40
40
40
40
40
40
40
40
48
38
ENDCHAR
STARTCHAR uni0289
ENCODING 649
SWIDTH 580 0
DWIDTH 9 0
BBX 9 8 0 0
BITMAP
E700
2300
2300
FF80
2300
2300
2300
3F80
ENDCHAR
STARTCHAR uni028A
ENCODING 650
SWIDTH 548 0
DWIDTH 9 0
BBX 7 8 1 0
BITMAP
EE
44
84
82
82
82
C6
78
ENDCHAR
STARTCHAR uni028B
ENCODING 651
SWIDTH 530 0
DWIDTH 8 0
BBX 8 8 0 0
BITMAP
E2
62
61
61
61
61
22
3C
ENDCHAR
STARTCHAR uni028C
ENCODING 652
SWIDTH 495 0
DWIDTH 8 0
BBX 8 8 0 0
BITMAP
18
18
28
2C
24
44
46
E7
ENDCHAR
STARTCHAR uni028D
ENCODING 653
SWIDTH 764 0
DWIDTH 12 0
BBX 12 8 0 0
BITMAP
1080
1980
29C0
2E40
2640
4460
4620
EF70
ENDCHAR
STARTCHAR uni028E
ENCODING 654
SWIDTH 492 0
DWIDTH 8 0
BBX 8 11 0 0
BITMAP
07
0F
08
10
10
28
28
2C
44
46
E7
ENDCHAR
STARTCHAR uni028F
ENCODING 655
SWIDTH 454 0
DWIDTH 7 0
BBX 8 8 0 0
BITMAP
E7
44
24
38
10
10
10
3C
ENDCHAR
STARTCHAR uni0290
ENCODING 656
SWIDTH 458 0
DWIDTH 7 0
BBX 9 12 0 -4
BITMAP
7E00
4C00
0800
1800
3000
2200
6200
FE00
0200
0200
0280
0180
ENDCHAR
STARTCHAR uni0291
ENCODING 657
SWIDTH 458 0
DWIDTH 7 0
BBX 7 11 0 -3
BITMAP
7E
4C
08
18
30
26
6A
FE
10
20
20
ENDCHAR
STARTCHAR uni0292
ENCODING 658
SWIDTH 443 0
DWIDTH 7 0
BBX 7 12 0 -4
BITMAP
7E
8C
08
18
30
18
04
06
06
06
C4
78
ENDCHAR
STARTCHAR uni0293
ENCODING 659
SWIDTH 443 0
DWIDTH 7 0
BBX 7 14 0 -6
BITMAP
7E
4C
88
18
10
30
0C
06
06
66
94
78
08
04
ENDCHAR
STARTCHAR uni0294
ENCODING 660
SWIDTH 383 0
DWIDTH 6 0
BBX 6 11 0 0
BITMAP
78
CC
44
04
0C
18
20
20
20
20
F0
ENDCHAR
STARTCHAR uni0295
ENCODING 661
SWIDTH 383 0
DWIDTH 6 0
BBX 6 11 0 0
BITMAP
78
CC
88
80
C0
60
18
18
18
18
3C
ENDCHAR
STARTCHAR uni0296
ENCODING 662
SWIDTH 408 0
DWIDTH 7 0
BBX 6 11 0 0
BITMAP
60
20
20
20
20
18
0C
04
04
C4
78
ENDCHAR
STARTCHAR uni0297
ENCODING 663
SWIDTH 437 0
DWIDTH 7 0
BBX 6 11 1 -3
BITMAP
78
CC
88
80
80
80
80
80
80
C4
78
ENDCHAR
STARTCHAR uni0298
ENCODING 664
SWIDTH 736 0
DWIDTH 12 0
BBX 10 11 1 0
BITMAP
1E00
6180
C080
80C0
8C40
8C40
8040
80C0
C080
6180
1E00
ENDCHAR
STARTCHAR uni0299
ENCODING 665
SWIDTH 485 0
DWIDTH 8 0
BBX 6 8 1 0
BITMAP
F8
4C
4C
78
4C
44
44
F8
ENDCHAR
STARTCHAR uni029A
ENCODING 666
SWIDTH 500 0
DWIDTH 8 0
BBX 6 8 1 0
BITMAP
F8
8C
84
64
84
84
8C
F8
ENDCHAR
STARTCHAR uni029B
ENCODING 667
SWIDTH 536 0
DWIDTH 9 0
BBX 9 11 1 0
BITMAP
0380
0280
0200
7C00
C400
8200
8000
8E00
8400
C400
7C00
ENDCHAR
STARTCHAR uni029C
ENCODING 668
SWIDTH 599 0
DWIDTH 10 0
BBX 8 8 1 0
BITMAP
EF
42
42
7E
42
42
42
EF
ENDCHAR
STARTCHAR uni029D
ENCODING 669
SWIDTH 263 0
DWIDTH 4 0
BBX 5 15 -1 -4
BITMAP
30
30
00
70
10
10
10
10
10
10
10
70
98
B0
E0
ENDCHAR
STARTCHAR uni029E
ENCODING 670
SWIDTH 542 0
DWIDTH 9 0
BBX 8 12 0 -4
BITMAP
F7
22
32
1A
0E
0A
32
72
02
02
02
03
ENDCHAR
STARTCHAR uni029F
ENCODING 671
SWIDTH 440 0
DWIDTH 7 0
BBX 7 8 0 0
BITMAP
F0
60
60
60
60
60
62
FE
ENDCHAR
STARTCHAR uni02A0
ENCODING 672
SWIDTH 541 0
DWIDTH 9 0
BBX 10 15 1 -4
BITMAP
03C0
0440
0400
7C00
CC00
8400
8400
8400
8400
8400
7C00
0400
0400
0400
1E00
ENDCHAR
STARTCHAR uni02A1
ENCODING 673
SWIDTH 393 0
DWIDTH 6 0
BBX 6 11 0 0
BITMAP
78
C4
44
04
0C
10
20
F8
20
20
F0
ENDCHAR
STARTCHAR uni02A2
ENCODING 674
SWIDTH 393 0
DWIDTH 6 0
BBX 6 11 0 0
BITMAP
78
CC
C4
C0
40
20
18
7C
18
18
3C
ENDCHAR
STARTCHAR uni02A3
ENCODING 675
SWIDTH 830 0
DWIDTH 13 0
BBX 12 11 1 0
BITMAP
0C00
0400
0400
7FF0
C460
8440
84C0
8480
8500
8710
7FF0
ENDCHAR
STARTCHAR uni02A4
ENCODING 676
SWIDTH 838 0
DWIDTH 13 0
BBX 12 15 1 -4
BITMAP
0C00
0400
0400
7FF0
C420
8460
84C0
8480
85C0
8420
7E30
0010
0010
0220
03C0
ENDCHAR
STARTCHAR uni02A5
ENCODING 677
SWIDTH 829 0
DWIDTH 13 0
BBX 12 13 1 -2
BITMAP
0C00
0400
0400
7FF0
C460
8440
84C0
8480
8530
8750
7FF0
0080
0100
ENDCHAR
STARTCHAR uni02A6
ENCODING 678
SWIDTH 614 0
DWIDTH 10 0
BBX 8 11 1 0
BITMAP
40
40
40
FF
D1
D9
CC
C7
C1
41
3E
ENDCHAR
STARTCHAR uni02A7
ENCODING 679
SWIDTH 513 0
DWIDTH 8 0
BBX 9 15 1 -4
BITMAP
0780
4480
4400
FC00
C400
C400
C400
C400
C400
C400
7400
0400
0400
6C00
3800
ENDCHAR
STARTCHAR uni02A8
ENCODING 680
SWIDTH 687 0
DWIDTH 11 0
BBX 9 10 1 0
BITMAP
4000
4000
F780
C880
C800
D800
D800
CB80
CC80
7780
ENDCHAR
STARTCHAR uni02A9
ENCODING 681
SWIDTH 866 0
DWIDTH 14 0
BBX 13 15 0 -4
BITMAP
1C00
2400
2000
FFF0
2110
2118
2118
2118
2118
2118
FF98
0018
0018
00D0
00F0
ENDCHAR
STARTCHAR uni02AA
ENCODING 682
SWIDTH 595 0
DWIDTH 10 0
BBX 9 11 0 0
BITMAP
E000
6000
6000
6780
6880
6880
6600
6300
6080
6080
3F00
ENDCHAR
STARTCHAR uni02AB
ENCODING 683
SWIDTH 580 0
DWIDTH 9 0
BBX 9 11 0 0
BITMAP
E000
2000
2000
3F80
2300
2200
2600
2400
2880
3880
FF80
ENDCHAR
STARTCHAR uni02AC
ENCODING 684
SWIDTH 599 0
DWIDTH 10 0
BBX 9 11 0 0
BITMAP
FD80
4C80
2D00
3600
1200
FD80
4C80
6D00
2D00
3600
1200
ENDCHAR
STARTCHAR uni02AD
ENCODING 685
SWIDTH 479 0
DWIDTH 8 0
BBX 6 11 1 0
BITMAP
FC
84
84
84
84
00
FC
84
84
84
84
ENDCHAR
STARTCHAR uni02AE
ENCODING 686
SWIDTH 595 0
DWIDTH 10 0
BBX 10 12 -1 -4
BITMAP
7180
D080
1080
1880
1880
1880
1980
0E80
0080
0080
0080
00C0
ENDCHAR
STARTCHAR uni02AF
ENCODING 687
SWIDTH 600 0
DWIDTH 10 0
BBX 12 12 -1 -4
BITMAP
7180
D080
1080
1880
1880
1880
1980
0E80
0080
0080
0090
0070
ENDCHAR
STARTCHAR uni02B0
ENCODING 688
SWIDTH 488 0
DWIDTH 8 0
BBX 7 8 0 4
BITMAP
E0
60
7C
64
64
64
64
EE
ENDCHAR
STARTCHAR uni02B1
ENCODING 689
SWIDTH 488 0
DWIDTH 8 0
BBX 7 9 0 4
BITMAP
18
24
60
7C
64
64
64
64
EE
ENDCHAR
STARTCHAR uni02B2
ENCODING 690
SWIDTH 222 0
DWIDTH 4 0
BBX 4 11 -1 1
BITMAP
30
00
70
30
30
30
30
30
30
A0
E0
ENDCHAR
STARTCHAR uni02B3
ENCODING 691
SWIDTH 325 0
DWIDTH 5 0
BBX 5 6 0 4
BITMAP
F8
60
60
60
60
F0
ENDCHAR
STARTCHAR uni02B4
ENCODING 692
SWIDTH 325 0
DWIDTH 5 0
BBX 5 6 0 4
BITMAP
38
10
10
10
30
D8
ENDCHAR
STARTCHAR uni02B5
ENCODING 693
SWIDTH 325 0
DWIDTH 5 0
BBX 6 8 0 2
BITMAP
38
10
10
10
30
D0
10
0C
ENDCHAR
STARTCHAR uni02B6
ENCODING 694
SWIDTH 443 0
DWIDTH 7 0
BBX 7 6 0 4
BITMAP
F6
68
78
64
64
78
ENDCHAR
STARTCHAR uni02B7
ENCODING 695
SWIDTH 653 0
DWIDTH 10 0
BBX 10 6 0 4
BITMAP
EEC0
4480
2680
2A80
3300
1300
ENDCHAR
STARTCHAR uni02B8
ENCODING 696
SWIDTH 427 0
DWIDTH 7 0
BBX 7 9 0 1
BITMAP
EE
44
24
28
38
10
10
20
E0
ENDCHAR
STARTCHAR uni02B9
ENCODING 697
SWIDTH 296 0
DWIDTH 5 0
BBX 3 5 1 7
BITMAP
60
40
40
80
80
ENDCHAR
STARTCHAR uni02BA
ENCODING 698
SWIDTH 456 0
DWIDTH 7 0
BBX 5 5 1 7
BITMAP
68
48
50
90
90
ENDCHAR
STARTCHAR uni02BB
ENCODING 699
SWIDTH 245 0
DWIDTH 4 0
BBX 2 4 1 8
BITMAP
40
80
C0
C0
ENDCHAR
STARTCHAR uni02BC
ENCODING 700
SWIDTH 244 0
DWIDTH 4 0
BBX 2 4 1 8
BITMAP
C0
C0
40
80
ENDCHAR
STARTCHAR uni02BD
ENCODING 701
SWIDTH 244 0
DWIDTH 4 0
BBX 2 4 1 8
BITMAP
C0
C0
80
40
ENDCHAR
STARTCHAR uni02BE
ENCODING 702
SWIDTH 203 0
DWIDTH 3 0
BBX 3 4 0 8
BITMAP
C0
20
20
C0
ENDCHAR
STARTCHAR uni02BF
ENCODING 703
SWIDTH 203 0
DWIDTH 3 0
BBX 3 4 0 8
BITMAP
60
80
80
60
ENDCHAR
STARTCHAR uni02C0
ENCODING 704
SWIDTH 364 0
DWIDTH 6 0
BBX 4 6 1 6
BITMAP
E0
90
10
10
60
40
ENDCHAR
STARTCHAR uni02C1
ENCODING 705
SWIDTH 364 0
DWIDTH 6 0
BBX 4 6 1 6
BITMAP
60
90
80
80
60
20
ENDCHAR
STARTCHAR uni02C2
ENCODING 706
SWIDTH 324 0
DWIDTH 5 0
BBX 4 5 1 7
BITMAP
30
40
80
60
10
ENDCHAR
STARTCHAR uni02C3
ENCODING 707
SWIDTH 324 0
DWIDTH 5 0
BBX 4 5 1 7
BITMAP
80
40
30
40
80
ENDCHAR
STARTCHAR uni02C4
ENCODING 708
SWIDTH 324 0
DWIDTH 5 0
BBX 5 4 0 8
BITMAP
20
50
50
88
ENDCHAR
STARTCHAR uni02C5
ENCODING 709
SWIDTH 324 0
DWIDTH 5 0
BBX 5 4 0 8
BITMAP
88
50
50
20
ENDCHAR
STARTCHAR circumflex
ENCODING 710
SWIDTH 342 0
DWIDTH 5 0
BBX 5 3 0 9
BITMAP
20
30
C8
ENDCHAR
STARTCHAR caron
ENCODING 711
SWIDTH 342 0
DWIDTH 5 0
BBX 5 3 0 9
BITMAP
88
50
30
ENDCHAR
STARTCHAR uni02C8
ENCODING 712
SWIDTH 284 0
DWIDTH 5 0
BBX 1 4 2 8
BITMAP
80
80
80
80
ENDCHAR
STARTCHAR uni02C9
ENCODING 713
SWIDTH 350 0
DWIDTH 6 0
BBX 5 1 0 9
BITMAP
F8
ENDCHAR
STARTCHAR uni02CA
ENCODING 714
SWIDTH 222 0
DWIDTH 4 0
BBX 3 3 0 9
BITMAP
20
40
C0
ENDCHAR
STARTCHAR uni02CB
ENCODING 715
SWIDTH 222 0
DWIDTH 4 0
BBX 3 3 0 9
BITMAP
C0
40
20
ENDCHAR
STARTCHAR uni02CC
ENCODING 716
SWIDTH 284 0
DWIDTH 5 0
BBX 1 4 2 -3
BITMAP
80
80
80
80
ENDCHAR
STARTCHAR uni02CD
ENCODING 717
SWIDTH 342 0
DWIDTH 5 0
BBX 5 1 0 -3
BITMAP
F8
ENDCHAR
STARTCHAR uni02CE
ENCODING 718
SWIDTH 222 0
DWIDTH 4 0
BBX 3 3 0 -2
BITMAP
C0
40
20
ENDCHAR
STARTCHAR uni02CF
ENCODING 719
SWIDTH 223 0
DWIDTH 4 0
BBX 3 3 0 -2
BITMAP
20
40
C0
ENDCHAR
STARTCHAR uni02D0
ENCODING 720
SWIDTH 341 0
DWIDTH 5 0
BBX 3 8 1 0
BITMAP
E0
60
40
00
00
40
60
E0
ENDCHAR
STARTCHAR uni02D1
ENCODING 721
SWIDTH 341 0
DWIDTH 5 0
BBX 3 3 1 5
BITMAP
E0
60
40
ENDCHAR
STARTCHAR uni02D2
ENCODING 722
SWIDTH 341 0
DWIDTH 5 0
BBX 3 5 1 1
BITMAP
C0
20
20
20
C0
ENDCHAR
STARTCHAR uni02D3
ENCODING 723
SWIDTH 341 0
DWIDTH 5 0
BBX 3 5 1 1
BITMAP
60
80
80
80
60
ENDCHAR
STARTCHAR uni02D4
ENCODING 724
SWIDTH 341 0
DWIDTH 5 0
BBX 4 3 1 3
BITMAP
40
40
F0
ENDCHAR
STARTCHAR uni02D5
ENCODING 725
SWIDTH 341 0
DWIDTH 5 0
BBX 4 3 1 3
BITMAP
F0
40
40
ENDCHAR
STARTCHAR uni02D6
ENCODING 726
SWIDTH 341 0
DWIDTH 5 0
BBX 3 3 1 3
BITMAP
40
E0
40
ENDCHAR
STARTCHAR uni02D7
ENCODING 727
SWIDTH 341 0
DWIDTH 5 0
BBX 3 1 1 4
BITMAP
E0
ENDCHAR
STARTCHAR breve
ENCODING 728
SWIDTH 353 0
DWIDTH 6 0
BBX 5 3 0 9
BITMAP
88
48
70
ENDCHAR
STARTCHAR dotaccent
ENCODING 729
SWIDTH 194 0
DWIDTH 3 0
BBX 1 2 1 9
BITMAP
80
80
ENDCHAR
STARTCHAR ring
ENCODING 730
SWIDTH 265 0
DWIDTH 4 0
BBX 4 4 0 9
BITMAP
60
90
90
60
ENDCHAR
STARTCHAR ogonek
ENCODING 731
SWIDTH 277 0
DWIDTH 4 0
BBX 4 4 0 -4
BITMAP
20
40
C0
70
ENDCHAR
STARTCHAR tilde
ENCODING 732
SWIDTH 381 0
DWIDTH 6 0
BBX 6 2 0 9
BITMAP
64
98
ENDCHAR
STARTCHAR hungarumlaut
ENCODING 733
SWIDTH 350 0
DWIDTH 6 0
BBX 5 3 0 9
BITMAP
68
50
D0
ENDCHAR
STARTCHAR uni02DE
ENCODING 734
SWIDTH 205 0
DWIDTH 3 0
BBX 4 2 -1 3
BITMAP
D0
30
ENDCHAR
STARTCHAR uni02DF
ENCODING 735
SWIDTH 302 0
DWIDTH 5 0
BBX 4 4 0 8
BITMAP
D0
50
20
50
ENDCHAR
STARTCHAR uni02E0
ENCODING 736
SWIDTH 413 0
DWIDTH 7 0
BBX 7 9 0 1
BITMAP
EE
44
68
28
30
10
10
28
30
ENDCHAR
STARTCHAR uni02E1
ENCODING 737
SWIDTH 244 0
DWIDTH 4 0
BBX 4 8 0 4
BITMAP
E0
60
60
60
60
60
60
F0
ENDCHAR
STARTCHAR uni02E2
ENCODING 738
SWIDTH 337 0
DWIDTH 5 0
BBX 4 6 1 4
BITMAP
F0
90
C0
70
90
E0
ENDCHAR
STARTCHAR uni02E3
ENCODING 739
SWIDTH 445 0
DWIDTH 7 0
BBX 7 6 0 4
BITMAP
6E
28
10
18
28
EE
ENDCHAR
STARTCHAR uni02E4
ENCODING 740
SWIDTH 364 0
DWIDTH 6 0
BBX 5 8 1 4
BITMAP
70
88
80
80
70
30
30
78
ENDCHAR
STARTCHAR uni02E5
ENCODING 741
SWIDTH 423 0
DWIDTH 7 0
BBX 5 11 1 0
BITMAP
F8
08
08
08
08
08
08
08
08
08
08
ENDCHAR
STARTCHAR uni02E6
ENCODING 742
SWIDTH 414 0
DWIDTH 7 0
BBX 5 11 1 0
BITMAP
08
08
08
F8
08
08
08
08
08
08
08
ENDCHAR
STARTCHAR uni02E7
ENCODING 743
SWIDTH 414 0
DWIDTH 7 0
BBX 5 11 1 0
BITMAP
08
08
08
08
08
F8
08
08
08
08
08
ENDCHAR
STARTCHAR uni02E8
ENCODING 744
SWIDTH 414 0
DWIDTH 7 0
BBX 5 11 1 0
BITMAP
08
08
08
08
08
08
08
F8
08
08
08
ENDCHAR
STARTCHAR uni02E9
ENCODING 745
SWIDTH 414 0
DWIDTH 7 0
BBX 5 11 1 0
BITMAP
08
08
08
08
08
08
08
08
08
08
F8
ENDCHAR
STARTCHAR uni02EC
ENCODING 748
SWIDTH 341 0
DWIDTH 5 0
BBX 5 4 0 -2
BITMAP
C8
50
30
20
ENDCHAR
STARTCHAR uni02ED
ENCODING 749
SWIDTH 380 0
DWIDTH 6 0
BBX 4 3 1 9
BITMAP
F0
00
F0
ENDCHAR
STARTCHAR uni02F7
ENCODING 759
SWIDTH 381 0
DWIDTH 6 0
BBX 6 2 0 -3
BITMAP
64
98
ENDCHAR
STARTCHAR uni0300
ENCODING 768
SWIDTH 0 0
DWIDTH 0 0
BBX 2 3 -5 9
BITMAP
80
C0
40
ENDCHAR
STARTCHAR uni0301
ENCODING 769
SWIDTH 0 0
DWIDTH 0 0
BBX 3 3 -5 9
BITMAP
20
40
C0
ENDCHAR
STARTCHAR uni0302
ENCODING 770
SWIDTH 0 0
DWIDTH 0 0
BBX 5 3 -6 9
BITMAP
20
70
98
ENDCHAR
STARTCHAR uni0303
ENCODING 771
SWIDTH 0 0
DWIDTH 0 0
BBX 5 2 -6 9
BITMAP
E8
B0
ENDCHAR
STARTCHAR uni0304
ENCODING 772
SWIDTH 0 0
DWIDTH 0 0
BBX 5 1 -6 9
BITMAP
F8
ENDCHAR
STARTCHAR uni0305
ENCODING 773
SWIDTH 0 0
DWIDTH 0 0
BBX 6 1 -6 9
BITMAP
FC
ENDCHAR
STARTCHAR uni0306
ENCODING 774
SWIDTH 0 0
DWIDTH 0 0
BBX 5 3 -6 9
BITMAP
88
88
70
ENDCHAR
STARTCHAR uni0307
ENCODING 775
SWIDTH 0 0
DWIDTH 0 0
BBX 2 2 -5 9
BITMAP
40
C0
ENDCHAR
STARTCHAR uni0308
ENCODING 776
SWIDTH 0 0
DWIDTH 0 0
BBX 5 2 -6 9
BITMAP
98
98
ENDCHAR
STARTCHAR uni0309
ENCODING 777
SWIDTH 0 0
DWIDTH 0 0
BBX 3 4 -5 9
BITMAP
40
A0
20
40
ENDCHAR
STARTCHAR uni030A
ENCODING 778
SWIDTH 0 0
DWIDTH 0 0
BBX 3 4 -5 9
BITMAP
C0
A0
A0
C0
ENDCHAR
STARTCHAR uni030B
ENCODING 779
SWIDTH 0 0
DWIDTH 0 0
BBX 4 3 -5 9
BITMAP
50
F0
A0
ENDCHAR
STARTCHAR uni030C
ENCODING 780
SWIDTH 0 0
DWIDTH 0 0
BBX 5 3 -6 9
BITMAP
88
50
60
ENDCHAR
STARTCHAR uni030D
ENCODING 781
SWIDTH 0 0
DWIDTH 0 0
BBX 1 3 -4 8
BITMAP
80
80
80
ENDCHAR
STARTCHAR uni030E
ENCODING 782
SWIDTH 0 0
DWIDTH 0 0
BBX 3 3 -5 8
BITMAP
A0
A0
A0
ENDCHAR
STARTCHAR uni030F
ENCODING 783
SWIDTH 0 0
DWIDTH 0 0
BBX 5 3 -7 9
BITMAP
F0
50
28
ENDCHAR
STARTCHAR uni0310
ENCODING 784
SWIDTH 0 0
DWIDTH 0 0
BBX 5 4 -6 9
BITMAP
20
E8
88
70
ENDCHAR
STARTCHAR uni0311
ENCODING 785
SWIDTH 0 0
DWIDTH 0 0
BBX 5 2 -6 9
BITMAP
70
88
ENDCHAR
STARTCHAR uni0312
ENCODING 786
SWIDTH 0 0
DWIDTH 0 0
BBX 2 4 -5 9
BITMAP
40
80
C0
C0
ENDCHAR
STARTCHAR uni0313
ENCODING 787
SWIDTH 0 0
DWIDTH 0 0
BBX 2 4 -5 8
BITMAP
40
C0
40
80
ENDCHAR
STARTCHAR uni0314
ENCODING 788
SWIDTH 0 0
DWIDTH 0 0
BBX 2 4 -5 8
BITMAP
40
C0
80
40
ENDCHAR
STARTCHAR uni0315
ENCODING 789
SWIDTH 0 0
DWIDTH 0 0
BBX 2 3 -4 9
BITMAP
C0
80
80
ENDCHAR
STARTCHAR uni0316
ENCODING 790
SWIDTH 0 0
DWIDTH 0 0
BBX 2 3 -5 -3
BITMAP
80
C0
40
ENDCHAR
STARTCHAR uni0317
ENCODING 791
SWIDTH 0 0
DWIDTH 0 0
BBX 2 3 -4 -3
BITMAP
40
C0
80
ENDCHAR
STARTCHAR uni0318
ENCODING 792
SWIDTH 0 0
DWIDTH 0 0
BBX 2 3 -5 -4
BITMAP
40
C0
40
ENDCHAR
STARTCHAR uni0319
ENCODING 793
SWIDTH 0 0
DWIDTH 0 0
BBX 2 3 -5 -4
BITMAP
80
C0
80
ENDCHAR
STARTCHAR uni031A
ENCODING 794
SWIDTH 0 0
DWIDTH 0 0
BBX 3 3 -5 9
BITMAP
E0
20
20
ENDCHAR
STARTCHAR uni031B
ENCODING 795
SWIDTH 0 0
DWIDTH 0 0
BBX 3 3 -3 7
BITMAP
60
20
C0
ENDCHAR
STARTCHAR uni031C
ENCODING 796
SWIDTH 0 0
DWIDTH 0 0
BBX 2 4 -5 -4
BITMAP
40
80
80
40
ENDCHAR
STARTCHAR uni031D
ENCODING 797
SWIDTH 0 0
DWIDTH 0 0
BBX 3 3 -5 -4
BITMAP
40
40
E0
ENDCHAR
STARTCHAR uni031E
ENCODING 798
SWIDTH 0 0
DWIDTH 0 0
BBX 3 3 -5 -4
BITMAP
E0
40
40
ENDCHAR
STARTCHAR uni031F
ENCODING 799
SWIDTH 0 0
DWIDTH 0 0
BBX 3 3 -5 -4
BITMAP
40
E0
40
ENDCHAR
STARTCHAR uni0320
ENCODING 800
SWIDTH 0 0
DWIDTH 0 0
BBX 3 1 -5 -3
BITMAP
E0
ENDCHAR
STARTCHAR uni0321
ENCODING 801
SWIDTH 0 0
DWIDTH 0 0
BBX 5 5 -7 -4
BITMAP
18
18
10
D0
60
ENDCHAR
STARTCHAR uni0322
ENCODING 802
SWIDTH 0 0
DWIDTH 0 0
BBX 5 5 -4 -4
BITMAP
C0
C0
C0
58
30
ENDCHAR
STARTCHAR uni0323
ENCODING 803
SWIDTH 0 0
DWIDTH 0 0
BBX 2 2 -5 -3
BITMAP
40
C0
ENDCHAR
STARTCHAR uni0324
ENCODING 804
SWIDTH 0 0
DWIDTH 0 0
BBX 5 2 -6 -3
BITMAP
98
98
ENDCHAR
STARTCHAR uni0325
ENCODING 805
SWIDTH 0 0
DWIDTH 0 0
BBX 3 4 -5 -4
BITMAP
C0
A0
A0
C0
ENDCHAR
STARTCHAR uni0326
ENCODING 806
SWIDTH 0 0
DWIDTH 0 0
BBX 2 4 -5 -5
BITMAP
40
C0
40
80
ENDCHAR
STARTCHAR uni0327
ENCODING 807
SWIDTH 0 0
DWIDTH 0 0
BBX 3 4 -5 -4
BITMAP
40
60
20
C0
ENDCHAR
STARTCHAR uni0328
ENCODING 808
SWIDTH 0 0
DWIDTH 0 0
BBX 3 4 -5 -4
BITMAP
40
80
80
E0
ENDCHAR
STARTCHAR uni0329
ENCODING 809
SWIDTH 0 0
DWIDTH 0 0
BBX 1 3 -4 -4
BITMAP
80
80
80
ENDCHAR
STARTCHAR uni032A
ENCODING 810
SWIDTH 0 0
DWIDTH 0 0
BBX 4 2 -6 -3
BITMAP
F0
90
ENDCHAR
STARTCHAR uni032B
ENCODING 811
SWIDTH 0 0
DWIDTH 0 0
BBX 5 2 -6 -3
BITMAP
A8
F0
ENDCHAR
STARTCHAR uni032C
ENCODING 812
SWIDTH 0 0
DWIDTH 0 0
BBX 5 3 -6 -3
BITMAP
88
50
60
ENDCHAR
STARTCHAR uni032D
ENCODING 813
SWIDTH 0 0
DWIDTH 0 0
BBX 5 3 -6 -3
BITMAP
20
70
98
ENDCHAR
STARTCHAR uni032E
ENCODING 814
SWIDTH 0 0
DWIDTH 0 0
BBX 5 3 -6 -3
BITMAP
88
88
70
ENDCHAR
STARTCHAR uni032F
ENCODING 815
SWIDTH 0 0
DWIDTH 0 0
BBX 5 2 -6 -3
BITMAP
70
88
ENDCHAR
STARTCHAR uni0330
ENCODING 816
SWIDTH 0 0
DWIDTH 0 0
BBX 5 2 -6 -3
BITMAP
C8
B0
ENDCHAR
STARTCHAR uni0331
ENCODING 817
SWIDTH 0 0
DWIDTH 0 0
BBX 5 1 -6 -2
BITMAP
F8
ENDCHAR
STARTCHAR uni0332
ENCODING 818
SWIDTH 0 0
DWIDTH 0 0
BBX 8 1 -8 -2
BITMAP
FF
ENDCHAR
STARTCHAR uni0333
ENCODING 819
SWIDTH 0 0
DWIDTH 0 0
BBX 8 3 -8 -4
BITMAP
FF
00
FF
ENDCHAR
STARTCHAR uni0334
ENCODING 820
SWIDTH 0 0
DWIDTH 0 0
BBX 5 2 -6 3
BITMAP
E8
B0
ENDCHAR
STARTCHAR uni0335
ENCODING 821
SWIDTH 0 0
DWIDTH 0 0
BBX 5 1 -6 4
BITMAP
F8
ENDCHAR
STARTCHAR uni0336
ENCODING 822
SWIDTH 0 0
DWIDTH 0 0
BBX 8 1 -8 4
BITMAP
FF
ENDCHAR
STARTCHAR uni0337
ENCODING 823
SWIDTH 0 0
DWIDTH 0 0
BBX 5 4 -6 4
BITMAP
08
30
40
80
ENDCHAR
STARTCHAR uni0338
ENCODING 824
SWIDTH 0 0
DWIDTH 0 0
BBX 7 14 -7 -3
BITMAP
02
04
04
08
08
08
10
10
20
20
40
40
40
80
ENDCHAR
STARTCHAR uni0339
ENCODING 825
SWIDTH 0 0
DWIDTH 0 0
BBX 3 4 -5 -4
BITMAP
C0
20
20
C0
ENDCHAR
STARTCHAR uni033A
ENCODING 826
SWIDTH 0 0
DWIDTH 0 0
BBX 4 2 -6 -3
BITMAP
90
F0
ENDCHAR
STARTCHAR uni033B
ENCODING 827
SWIDTH 0 0
DWIDTH 0 0
BBX 3 3 -5 -4
BITMAP
E0
A0
E0
ENDCHAR
STARTCHAR uni033C
ENCODING 828
SWIDTH 0 0
DWIDTH 0 0
BBX 5 2 -6 -3
BITMAP
D8
20
ENDCHAR
STARTCHAR uni033D
ENCODING 829
SWIDTH 0 0
DWIDTH 0 0
BBX 3 3 -5 9
BITMAP
A0
40
E0
ENDCHAR
STARTCHAR uni033E
ENCODING 830
SWIDTH 0 0
DWIDTH 0 0
BBX 2 6 -5 8
BITMAP
40
40
40
40
40
80
ENDCHAR
STARTCHAR uni033F
ENCODING 831
SWIDTH 0 0
DWIDTH 0 0
BBX 7 3 -7 8
BITMAP
FE
00
FE
ENDCHAR
STARTCHAR uni0346
ENCODING 838
SWIDTH 0 0
DWIDTH 0 0
BBX 5 2 -6 9
BITMAP
F8
88
ENDCHAR
STARTCHAR uni0347
ENCODING 839
SWIDTH 0 0
DWIDTH 0 0
BBX 5 3 -6 -4
BITMAP
F8
00
F8
ENDCHAR
STARTCHAR uni034C
ENCODING 844
SWIDTH 0 0
DWIDTH 0 0
BBX 5 4 -6 9
BITMAP
C8
B0
E8
B0
ENDCHAR
STARTCHAR uni034D
ENCODING 845
SWIDTH 0 0
DWIDTH 0 0
BBX 8 3 -8 -4
BITMAP
62
FF
62
ENDCHAR
STARTCHAR uni0359
ENCODING 857
SWIDTH 0 0
DWIDTH 0 0
BBX 5 5 -6 -6
BITMAP
20
B8
60
B8
20
ENDCHAR
STARTCHAR uni035C
ENCODING 860
SWIDTH 0 0
DWIDTH 0 0
BBX 10 3 -5 -4
BITMAP
8040
8040
7F80
ENDCHAR
STARTCHAR uni0360
ENCODING 864
SWIDTH 0 0
DWIDTH 0 0
BBX 8 2 -4 9
BITMAP
71
8E
ENDCHAR
STARTCHAR uni0361
ENCODING 865
SWIDTH 0 0
DWIDTH 0 0
BBX 8 2 -4 9
BITMAP
7E
81
ENDCHAR
STARTCHAR uni0362
ENCODING 866
SWIDTH 0 0
DWIDTH 0 0
BBX 12 3 -6 -4
BITMAP
0020
FFF0
0020
ENDCHAR
STARTCHAR uni037E
ENCODING 894
SWIDTH 261 0
DWIDTH 4 0
BBX 2 10 1 -2
BITMAP
C0
00
00
00
00
00
00
C0
40
C0
ENDCHAR
STARTCHAR tonos
ENCODING 900
SWIDTH 165 0
DWIDTH 3 0
BBX 2 3 0 9
BITMAP
40
40
80
ENDCHAR
STARTCHAR dieresistonos
ENCODING 901
SWIDTH 426 0
DWIDTH 7 0
BBX 6 3 0 9
BITMAP
10
D4
10
ENDCHAR
STARTCHAR Alphatonos
ENCODING 902
SWIDTH 718 0
DWIDTH 11 0
BBX 11 11 0 0
BITMAP
6400
4600
4E00
0A00
1300
1100
1180
3F80
20C0
40C0
E1E0
ENDCHAR
STARTCHAR anoteleia
ENCODING 903
SWIDTH 261 0
DWIDTH 4 0
BBX 2 1 1 7
BITMAP
C0
ENDCHAR
STARTCHAR Epsilontonos
ENCODING 904
SWIDTH 745 0
DWIDTH 12 0
BBX 11 11 0 0
BITMAP
FFE0
8C20
8C00
0C40
0C40
0FC0
0C40
0C00
0C20
0C20
3FE0
ENDCHAR
STARTCHAR Etatonos
ENCODING 905
SWIDTH 896 0
DWIDTH 14 0
BBX 14 11 0 0
BITMAP
FE7C
8C10
8C10
0C10
0C10
0FF0
0C10
0C10
0C10
0C10
3E7C
ENDCHAR
STARTCHAR Iotatonos
ENCODING 906
SWIDTH 478 0
DWIDTH 8 0
BBX 7 11 0 0
BITMAP
FE
8C
8C
0C
0C
0C
0C
0C
0C
0C
3E
ENDCHAR
STARTCHAR Omicrontonos
ENCODING 908
SWIDTH 806 0
DWIDTH 13 0
BBX 12 11 0 0
BITMAP
C780
9860
9020
3030
3030
3030
3030
3030
1020
1860
0780
ENDCHAR
STARTCHAR Upsilontonos
ENCODING 910
SWIDTH 787 0
DWIDTH 13 0
BBX 14 11 -1 0
BITMAP
5E3C
4410
8610
0320
0140
01C0
0080
0080
0080
0080
03E0
ENDCHAR
STARTCHAR Omegatonos
ENCODING 911
SWIDTH 830 0
DWIDTH 13 0
BBX 13 11 0 0
BITMAP
C7C0
9CE0
9830
3030
3030
3030
3030
1020
4848
2490
3CF0
ENDCHAR
STARTCHAR iotadieresistonos
ENCODING 912
SWIDTH 259 0
DWIDTH 4 0
BBX 6 12 -1 0
BITMAP
10
FC
20
00
30
20
20
20
20
20
28
38
ENDCHAR
STARTCHAR Alpha
ENCODING 913
SWIDTH 718 0
DWIDTH 11 0
BBX 11 11 0 0
BITMAP
0400
0600
0E00
0A00
1300
1100
1180
3F80
20C0
40C0
E1E0
ENDCHAR
STARTCHAR Beta
ENCODING 914
SWIDTH 618 0
DWIDTH 10 0
BBX 8 11 1 0
BITMAP
FE
63
63
63
62
7E
63
61
61
63
FE
ENDCHAR
STARTCHAR Gamma
ENCODING 915
SWIDTH 569 0
DWIDTH 9 0
BBX 8 11 1 0
BITMAP
FF
61
61
60
60
60
60
60
60
60
F0
ENDCHAR
STARTCHAR Delta
ENCODING 916
SWIDTH 667 0
DWIDTH 11 0
BBX 10 11 0 0
BITMAP
0400
0C00
0E00
1200
1300
1300
2100
2180
4180
40C0
FFC0
ENDCHAR
STARTCHAR Epsilon
ENCODING 917
SWIDTH 626 0
DWIDTH 10 0
BBX 9 11 1 0
BITMAP
FF00
6100
6000
6200
6200
7E00
6200
6000
6080
6100
FF00
ENDCHAR
STARTCHAR Zeta
ENCODING 918
SWIDTH 594 0
DWIDTH 10 0
BBX 9 11 0 0
BITMAP
7F80
4300
4300
0600
0C00
0C00
1800
3000
3080
6080
FF80
ENDCHAR
STARTCHAR Eta
ENCODING 919
SWIDTH 777 0
DWIDTH 12 0
BBX 11 11 1 0
BITMAP
F3E0
6080
6080
6080
6080
7F80
6080
6080
6080
6080
F3E0
ENDCHAR
STARTCHAR Theta
ENCODING 920
SWIDTH 738 0
DWIDTH 12 0
BBX 10 11 1 0
BITMAP
1E00
7380
C180
C0C0
D2C0
DEC0
D2C0
C0C0
C180
7380
1E00
ENDCHAR
STARTCHAR Iota
ENCODING 921
SWIDTH 357 0
DWIDTH 6 0
BBX 4 11 1 0
BITMAP
F0
60
60
60
60
60
60
60
60
60
F0
ENDCHAR
STARTCHAR Kappa
ENCODING 922
SWIDTH 702 0
DWIDTH 11 0
BBX 10 11 1 0
BITMAP
F380
6300
6200
6400
6800
7000
7800
6C00
6600
6300
F3C0
ENDCHAR
STARTCHAR Lambda
ENCODING 923
SWIDTH 710 0
DWIDTH 11 0
BBX 11 11 0 0
BITMAP
0400
0600
0E00
0A00
1300
1100
2180
2080
20C0
60E0
E1E0
ENDCHAR
STARTCHAR Mu
ENCODING 924
SWIDTH 895 0
DWIDTH 14 0
BBX 14 11 0 0
BITMAP
F03C
3030
3830
3850
2C50
2C90
2490
2710
2310
2310
F27C
ENDCHAR
STARTCHAR Nu
ENCODING 925
SWIDTH 742 0
DWIDTH 12 0
BBX 11 11 0 0
BITMAP
F0E0
3040
3840
2C40
2E40
2640
2340
21C0
20C0
20C0
F040
ENDCHAR
STARTCHAR Xi
ENCODING 926
SWIDTH 648 0
DWIDTH 10 0
BBX 9 11 1 0
BITMAP
FF00
8100
8080
4200
4200
3E00
4200
0000
8080
8180
FF00
ENDCHAR
STARTCHAR Omicron
ENCODING 927
SWIDTH 738 0
DWIDTH 12 0
BBX 10 11 1 0
BITMAP
1E00
6180
C080
C0C0
C0C0
C0C0
C0C0
C0C0
C080
6180
1E00
ENDCHAR
STARTCHAR Pi
ENCODING 928
SWIDTH 759 0
DWIDTH 12 0
BBX 11 11 1 0
BITMAP
FFE0
60C0
6080
6080
6080
6080
6080
6080
6080
61C0
F3E0
ENDCHAR
STARTCHAR Rho
ENCODING 929
SWIDTH 569 0
DWIDTH 9 0
BBX 8 11 1 0
BITMAP
FC
62
63
63
62
7C
60
60
60
60
F0
ENDCHAR
STARTCHAR Sigma
ENCODING 931
SWIDTH 604 0
DWIDTH 10 0
BBX 9 11 0 0
BITMAP
FF80
6180
3080
1000
0800
0C00
0800
1000
2080
4180
FF80
ENDCHAR
STARTCHAR Tau
ENCODING 932
SWIDTH 603 0
DWIDTH 10 0
BBX 9 11 0 0
BITMAP
FF80
8C80
8C80
0C00
0C00
0C00
0C00
0C00
0C00
0C00
1E00
ENDCHAR
STARTCHAR Upsilon
ENCODING 933
SWIDTH 647 0
DWIDTH 10 0
BBX 10 11 0 0
BITMAP
F1C0
6080
3100
1100
1A00
0C00
0C00
0C00
0C00
0C00
1F00
ENDCHAR
STARTCHAR Phi
ENCODING 934
SWIDTH 718 0
DWIDTH 11 0
BBX 10 11 1 0
BITMAP
3E00
0C00
7B80
C8C0
88C0
88C0
88C0
C880
3F00
0C00
3E00
ENDCHAR
STARTCHAR Chi
ENCODING 935
SWIDTH 664 0
DWIDTH 11 0
BBX 11 11 0 0
BITMAP
F9C0
3080
1100
1A00
0C00
0400
0E00
1300
2100
2180
F3E0
ENDCHAR
STARTCHAR Psi
ENCODING 936
SWIDTH 720 0
DWIDTH 12 0
BBX 11 11 0 0
BITMAP
DF20
4E60
6640
6640
6640
6640
76C0
3F80
0600
0600
1F00
ENDCHAR
STARTCHAR Omega
ENCODING 937
SWIDTH 777 0
DWIDTH 12 0
BBX 11 11 1 0
BITMAP
1F00
7380
60C0
C0C0
C0C0
C0C0
40C0
6080
A1A0
9120
F3C0
ENDCHAR
STARTCHAR Iotadieresis
ENCODING 938
SWIDTH 357 0
DWIDTH 6 0
BBX 6 14 0 0
BITMAP
C8
CC
00
78
30
30
30
30
30
30
30
30
30
78
ENDCHAR
STARTCHAR Upsilondieresis
ENCODING 939
SWIDTH 647 0
DWIDTH 10 0
BBX 10 14 0 0
BITMAP
1100
1B00
0000
F1C0
6080
3100
1100
1A00
0C00
0C00
0C00
0C00
0C00
1F00
ENDCHAR
STARTCHAR alphatonos
ENCODING 940
SWIDTH 561 0
DWIDTH 9 0
BBX 8 12 1 0
BITMAP
18
10
10
00
72
CE
84
84
8C
8C
95
66
ENDCHAR
STARTCHAR epsilontonos
ENCODING 941
SWIDTH 381 0
DWIDTH 6 0
BBX 5 12 1 0
BITMAP
10
10
20
00
78
D0
80
E0
80
80
D8
F0
ENDCHAR
STARTCHAR etatonos
ENCODING 942
SWIDTH 510 0
DWIDTH 8 0
BBX 7 16 0 -4
BITMAP
0C
08
08
00
6C
BA
32
22
22
22
22
62
02
02
02
04
ENDCHAR
STARTCHAR iotatonos
ENCODING 943
SWIDTH 259 0
DWIDTH 4 0
BBX 3 12 1 0
BITMAP
40
40
80
00
C0
80
80
80
80
80
A0
E0
ENDCHAR
STARTCHAR upsilondieresistonos
ENCODING 944
SWIDTH 491 0
DWIDTH 8 0
BBX 7 12 0 0
BITMAP
18
54
10
00
64
E2
22
42
42
42
6C
38
ENDCHAR
STARTCHAR alpha
ENCODING 945
SWIDTH 561 0
DWIDTH 9 0
BBX 8 8 1 0
BITMAP
72
CE
84
84
8C
8C
95
66
ENDCHAR
STARTCHAR beta
ENCODING 946
SWIDTH 530 0
DWIDTH 8 0
BBX 7 15 1 -3
BITMAP
1C
24
42
44
84
B8
84
82
82
C2
E6
BC
80
80
80
ENDCHAR
STARTCHAR gamma
ENCODING 947
SWIDTH 466 0
DWIDTH 7 0
BBX 7 12 0 -4
BITMAP
66
A6
24
1C
18
18
10
10
10
30
30
20
ENDCHAR
STARTCHAR delta
ENCODING 948
SWIDTH 479 0
DWIDTH 8 0
BBX 6 12 1 0
BITMAP
78
5C
44
20
18
78
8C
84
84
84
D8
70
ENDCHAR
STARTCHAR epsilon
ENCODING 949
SWIDTH 381 0
DWIDTH 6 0
BBX 5 8 1 0
BITMAP
78
D0
80
E0
80
80
D8
F0
ENDCHAR
STARTCHAR zeta
ENCODING 950
SWIDTH 386 0
DWIDTH 6 0
BBX 6 16 1 -4
BITMAP
20
4C
3C
30
40
C0
80
80
80
80
C0
78
08
08
78
20
ENDCHAR
STARTCHAR eta
ENCODING 951
SWIDTH 510 0
DWIDTH 8 0
BBX 7 12 0 -4
BITMAP
6C
BA
32
22
22
22
22
62
02
02
02
04
ENDCHAR
STARTCHAR theta
ENCODING 952
SWIDTH 514 0
DWIDTH 8 0
BBX 6 12 1 0
BITMAP
38
6C
84
84
84
FC
84
84
84
84
4C
38
ENDCHAR
STARTCHAR iota
ENCODING 953
SWIDTH 259 0
DWIDTH 4 0
BBX 3 8 1 0
BITMAP
C0
80
80
80
80
80
A0
E0
ENDCHAR
STARTCHAR kappa
ENCODING 954
SWIDTH 495 0
DWIDTH 8 0
BBX 8 8 0 0
BITMAP
62
A6
28
30
28
28
2D
66
ENDCHAR
STARTCHAR lambda
ENCODING 955
SWIDTH 506 0
DWIDTH 8 0
BBX 8 12 0 0
BITMAP
30
50
08
08
08
18
18
34
24
64
47
C7
ENDCHAR
STARTCHAR mu
ENCODING 956
SWIDTH 552 0
DWIDTH 9 0
BBX 8 11 1 -3
BITMAP
C4
84
84
84
8C
8C
D5
F6
80
80
80
ENDCHAR
STARTCHAR nu
ENCODING 957
SWIDTH 453 0
DWIDTH 7 0
BBX 7 8 0 0
BITMAP
E4
E6
26
26
24
2C
28
30
ENDCHAR
STARTCHAR xi
ENCODING 958
SWIDTH 390 0
DWIDTH 6 0
BBX 5 16 1 -4
BITMAP
40
D8
38
40
80
80
78
80
80
80
C0
F8
18
08
08
30
ENDCHAR
STARTCHAR omicron
ENCODING 959
SWIDTH 475 0
DWIDTH 8 0
BBX 6 8 1 0
BITMAP
78
CC
84
84
84
84
C8
70
ENDCHAR
STARTCHAR pi
ENCODING 960
SWIDTH 591 0
DWIDTH 9 0
BBX 9 8 0 0
BITMAP
7F80
D200
1200
1200
1200
2200
2280
6300
ENDCHAR
STARTCHAR rho
ENCODING 961
SWIDTH 515 0
DWIDTH 8 0
BBX 7 11 1 -3
BITMAP
38
6C
82
82
82
84
EC
B8
80
80
80
ENDCHAR
STARTCHAR uni03C2
ENCODING 962
SWIDTH 377 0
DWIDTH 6 0
BBX 5 12 1 -4
BITMAP
78
C8
80
80
80
80
E0
78
08
08
58
20
ENDCHAR
STARTCHAR sigma
ENCODING 963
SWIDTH 545 0
DWIDTH 9 0
BBX 8 8 1 0
BITMAP
7F
C8
84
84
84
84
CC
78
ENDCHAR
STARTCHAR tau
ENCODING 964
SWIDTH 392 0
DWIDTH 6 0
BBX 6 8 0 0
BITMAP
7C
90
10
10
20
20
34
18
ENDCHAR
STARTCHAR upsilon
ENCODING 965
SWIDTH 491 0
DWIDTH 8 0
BBX 7 8 0 0
BITMAP
64
E2
22
42
42
42
6C
38
ENDCHAR
STARTCHAR phi
ENCODING 966
SWIDTH 603 0
DWIDTH 10 0
BBX 8 11 1 -3
BITMAP
6E
CB
91
91
91
91
FE
38
10
10
10
ENDCHAR
STARTCHAR chi
ENCODING 967
SWIDTH 462 0
DWIDTH 7 0
BBX 9 12 -1 -4
BITMAP
6180
5300
1200
0E00
0C00
0800
0800
1400
3400
2400
6680
C300
ENDCHAR
STARTCHAR psi
ENCODING 968
SWIDTH 620 0
DWIDTH 10 0
BBX 9 15 0 -3
BITMAP
0400
0400
0400
0400
6500
E480
2480
4480
4480
4480
3700
1E00
0C00
0C00
0C00
ENDCHAR
STARTCHAR omega
ENCODING 969
SWIDTH 660 0
DWIDTH 11 0
BBX 9 8 1 0
BITMAP
6200
C100
8880
8880
8880
8880
D980
6700
ENDCHAR
STARTCHAR iotadieresis
ENCODING 970
SWIDTH 259 0
DWIDTH 4 0
BBX 6 11 -1 0
BITMAP
CC
00
00
30
20
20
20
20
20
28
38
ENDCHAR
STARTCHAR upsilondieresis
ENCODING 971
SWIDTH 491 0
DWIDTH 8 0
BBX 7 11 0 0
BITMAP
6C
00
00
64
E2
22
42
42
42
6C
38
ENDCHAR
STARTCHAR omicrontonos
ENCODING 972
SWIDTH 475 0
DWIDTH 8 0
BBX 6 12 1 0
BITMAP
18
10
10
00
78
CC
84
84
84
84
C8
70
ENDCHAR
STARTCHAR upsilontonos
ENCODING 973
SWIDTH 491 0
DWIDTH 8 0
BBX 7 12 0 0
BITMAP
08
08
10
00
64
E2
22
42
42
42
6C
38
ENDCHAR
STARTCHAR omegatonos
ENCODING 974
SWIDTH 660 0
DWIDTH 11 0
BBX 9 12 1 0
BITMAP
0C00
0800
0800
0000
6200
C100
8880
8880
8880
8880
D980
6700
ENDCHAR
STARTCHAR uni03D0
ENCODING 976
SWIDTH 438 0
DWIDTH 7 0
BBX 6 12 1 0
BITMAP
38
6C
44
C4
B8
80
F8
C8
84
84
48
78
ENDCHAR
STARTCHAR uni03D1
ENCODING 977
SWIDTH 541 0
DWIDTH 9 0
BBX 8 12 0 0
BITMAP
1C
34
22
22
22
11
0F
61
A1
22
36
1C
ENDCHAR
STARTCHAR uni03D2
ENCODING 978
SWIDTH 616 0
DWIDTH 10 0
BBX 10 11 0 0
BITMAP
71C0
BBC0
1AC0
0C00
0C00
0C00
0C00
0C00
0C00
0C00
1E00
ENDCHAR
STARTCHAR uni03D5
ENCODING 981
SWIDTH 575 0
DWIDTH 9 0
BBX 8 15 1 -4
BITMAP
18
18
18
10
7E
D2
91
91
91
92
FC
30
10
10
30
ENDCHAR
STARTCHAR uni03D6
ENCODING 982
SWIDTH 821 0
DWIDTH 13 0
BBX 13 8 0 0
BITMAP
7FF8
9820
2220
2330
2210
2230
1360
1DC0
ENDCHAR
STARTCHAR uni03D8
ENCODING 984
SWIDTH 627 0
DWIDTH 10 0
BBX 8 11 1 0
BITMAP
3C
E7
C3
81
81
81
C3
66
18
18
3C
ENDCHAR
STARTCHAR uni03D9
ENCODING 985
SWIDTH 475 0
DWIDTH 8 0
BBX 6 11 1 -3
BITMAP
78
CC
84
84
84
84
F8
70
20
20
20
ENDCHAR
STARTCHAR uni03DA
ENCODING 986
SWIDTH 578 0
DWIDTH 9 0
BBX 7 11 1 0
BITMAP
3E
E6
C2
82
80
C0
E0
7C
0C
0C
3E
ENDCHAR
STARTCHAR uni03DB
ENCODING 987
SWIDTH 490 0
DWIDTH 8 0
BBX 7 12 1 -4
BITMAP
3E
C2
80
80
80
80
E0
70
18
08
10
60
ENDCHAR
STARTCHAR uni03DC
ENCODING 988
SWIDTH 588 0
DWIDTH 9 0
BBX 8 11 1 0
BITMAP
FF
61
60
62
62
7E
62
60
60
60
F0
ENDCHAR
STARTCHAR uni03DD
ENCODING 989
SWIDTH 386 0
DWIDTH 6 0
BBX 8 12 -2 -4
BITMAP
1F
10
10
10
10
1E
10
10
10
10
A0
60
ENDCHAR
STARTCHAR uni03DE
ENCODING 990
SWIDTH 525 0
DWIDTH 8 0
BBX 8 11 0 0
BITMAP
38
18
10
20
40
7F
82
02
04
0C
1C
ENDCHAR
STARTCHAR uni03DF
ENCODING 991
SWIDTH 434 0
DWIDTH 7 0
BBX 7 11 0 0
BITMAP
C0
C0
20
40
44
78
68
08
08
0A
0C
ENDCHAR
STARTCHAR uni03E0
ENCODING 992
SWIDTH 697 0
DWIDTH 11 0
BBX 11 11 0 0
BITMAP
0C00
0C00
0600
0E00
0B00
1300
1580
2580
28C0
48E0
D1E0
ENDCHAR
STARTCHAR uni03E1
ENCODING 993
SWIDTH 458 0
DWIDTH 7 0
BBX 7 15 0 -4
BITMAP
C0
E0
30
18
08
34
64
04
1A
32
02
02
02
04
04
ENDCHAR
STARTCHAR uni03F0
ENCODING 1008
SWIDTH 504 0
DWIDTH 8 0
BBX 8 8 0 0
BITMAP
63
A6
24
2C
38
34
25
67
ENDCHAR
STARTCHAR uni03F1
ENCODING 1009
SWIDTH 467 0
DWIDTH 7 0
BBX 6 12 1 -4
BITMAP
38
4C
84
84
84
8C
F8
80
60
10
10
60
ENDCHAR
STARTCHAR uni03F4
ENCODING 1012
SWIDTH 737 0
DWIDTH 12 0
BBX 10 11 1 0
BITMAP
1E00
7380
C180
C0C0
C0C0
FFC0
80C0
C0C0
C080
7380
3E00
ENDCHAR
STARTCHAR uni03F5
ENCODING 1013
SWIDTH 380 0
DWIDTH 6 0
BBX 5 8 1 0
BITMAP
78
90
80
F0
80
80
D8
70
ENDCHAR
STARTCHAR uni03F6
ENCODING 1014
SWIDTH 382 0
DWIDTH 6 0
BBX 6 8 0 0
BITMAP
F0
48
04
78
04
08
D8
70
ENDCHAR
STARTCHAR uni0400
ENCODING 1024
SWIDTH 626 0
DWIDTH 10 0
BBX 9 14 1 0
BITMAP
3000
0C00
0000
FF00
6100
6000
6200
6200
7E00
6200
6000
6080
6100
FF00
ENDCHAR
STARTCHAR uni0401
ENCODING 1025
SWIDTH 626 0
DWIDTH 10 0
BBX 9 14 1 0
BITMAP
2600
6600
0000
FF00
6100
6000
6200
6200
7E00
6200
6000
6080
6100
FF00
ENDCHAR
STARTCHAR uni0402
ENCODING 1026
SWIDTH 731 0
DWIDTH 12 0
BBX 11 11 0 0
BITMAP
FF80
8C40
8C40
0C00
0C00
0FC0
0C60
0C20
0C20
0F20
1DC0
ENDCHAR
STARTCHAR uni0403
ENCODING 1027
SWIDTH 548 0
DWIDTH 9 0
BBX 7 14 1 0
BITMAP
0C
30
00
FE
62
62
60
60
60
60
60
60
60
F0
ENDCHAR
STARTCHAR uni0404
ENCODING 1028
SWIDTH 668 0
DWIDTH 11 0
BBX 9 11 1 0
BITMAP
1F80
6180
C080
C080
8000
FE00
8000
C000
C000
6180
3E00
ENDCHAR
STARTCHAR uni0405
ENCODING 1029
SWIDTH 504 0
DWIDTH 8 0
BBX 7 11 1 0
BITMAP
7C
84
84
C0
60
38
0C
04
86
84
F8
ENDCHAR
STARTCHAR uni0406
ENCODING 1030
SWIDTH 357 0
DWIDTH 6 0
BBX 4 11 1 0
BITMAP
F0
60
60
60
60
60
60
60
60
60
F0
ENDCHAR
STARTCHAR uni0407
ENCODING 1031
SWIDTH 357 0
DWIDTH 6 0
BBX 6 14 0 0
BITMAP
C8
CC
00
78
30
30
30
30
30
30
30
30
30
78
ENDCHAR
STARTCHAR uni0408
ENCODING 1032
SWIDTH 396 0
DWIDTH 6 0
BBX 6 11 0 0
BITMAP
7C
18
18
18
18
18
18
18
18
D0
F0
ENDCHAR
STARTCHAR uni0409
ENCODING 1033
SWIDTH 924 0
DWIDTH 15 0
BBX 14 11 0 0
BITMAP
3FC0
0980
0980
0980
1180
11F8
118C
1184
1184
E18C
C3F8
ENDCHAR
STARTCHAR uni040A
ENCODING 1034
SWIDTH 1013 0
DWIDTH 16 0
BBX 15 11 1 0
BITMAP
F3E0
6080
6080
6080
6080
7FF8
608C
6086
6086
6084
F3F8
ENDCHAR
STARTCHAR uni040B
ENCODING 1035
SWIDTH 761 0
DWIDTH 12 0
BBX 12 11 0 0
BITMAP
FF80
8C40
8C40
0C00
0C00
0FC0
0C60
0C60
0C60
0C60
1EF0
ENDCHAR
STARTCHAR uni040C
ENCODING 1036
SWIDTH 658 0
DWIDTH 11 0
BBX 10 14 1 0
BITMAP
0600
1800
0000
F180
6280
6200
6400
6400
7800
6400
6600
6200
6300
F1C0
ENDCHAR
STARTCHAR uni040D
ENCODING 1037
SWIDTH 780 0
DWIDTH 12 0
BBX 11 14 1 0
BITMAP
3000
0C00
0000
F3E0
6080
6180
6280
6280
6480
6880
7080
6080
6080
F3E0
ENDCHAR
STARTCHAR uni040E
ENCODING 1038
SWIDTH 625 0
DWIDTH 10 0
BBX 10 15 0 0
BITMAP
1300
1100
1E00
0000
F1C0
6080
2100
3100
1100
1A00
0A00
0400
0400
6800
3000
ENDCHAR
STARTCHAR uni040F
ENCODING 1039
SWIDTH 759 0
DWIDTH 12 0
BBX 11 15 1 -4
BITMAP
F3E0
6080
6080
6080
6080
6080
6080
6080
6080
6080
FFE0
0400
0C00
0C00
0C00
ENDCHAR
STARTCHAR uni0410
ENCODING 1040
SWIDTH 718 0
DWIDTH 11 0
BBX 11 11 0 0
BITMAP
0400
0600
0E00
0A00
1300
1100
1180
3F80
20C0
40C0
E1E0
ENDCHAR
STARTCHAR uni0411
ENCODING 1041
SWIDTH 617 0
DWIDTH 10 0
BBX 8 11 1 0
BITMAP
FF
61
61
60
60
7E
63
61
61
63
FE
ENDCHAR
STARTCHAR uni0412
ENCODING 1042
SWIDTH 618 0
DWIDTH 10 0
BBX 8 11 1 0
BITMAP
FE
63
63
63
62
7E
63
61
61
63
FE
ENDCHAR
STARTCHAR uni0413
ENCODING 1043
SWIDTH 548 0
DWIDTH 9 0
BBX 7 11 1 0
BITMAP
FE
62
62
60
60
60
60
60
60
60
F0
ENDCHAR
STARTCHAR uni0414
ENCODING 1044
SWIDTH 663 0
DWIDTH 11 0
BBX 10 14 0 -3
BITMAP
3FC0
1100
1100
1100
1100
1100
2100
2100
2100
4100
FFC0
8040
8040
8040
ENDCHAR
STARTCHAR uni0415
ENCODING 1045
SWIDTH 626 0
DWIDTH 10 0
BBX 9 11 1 0
BITMAP
FF00
6100
6000
6200
6200
7E00
6200
6000
6080
6100
FF00
ENDCHAR
STARTCHAR uni0416
ENCODING 1046
SWIDTH 937 0
DWIDTH 15 0
BBX 15 11 0 0
BITMAP
E7CE
5114
1110
1110
0920
0FE0
1930
1110
3118
2108
E7CE
ENDCHAR
STARTCHAR uni0417
ENCODING 1047
SWIDTH 545 0
DWIDTH 9 0
BBX 7 11 1 0
BITMAP
FC
86
86
84
0C
3C
06
06
06
86
7C
ENDCHAR
STARTCHAR uni0418
ENCODING 1048
SWIDTH 780 0
DWIDTH 12 0
BBX 11 11 1 0
BITMAP
F3E0
6080
6180
6280
6280
6480
6880
7080
6080
6080
F3E0
ENDCHAR
STARTCHAR uni0419
ENCODING 1049
SWIDTH 780 0
DWIDTH 12 0
BBX 11 15 1 0
BITMAP
1200
1300
1100
0E00
F3E0
6080
6180
6280
6280
6480
6880
7080
6080
6080
F3E0
ENDCHAR
STARTCHAR uni041A
ENCODING 1050
SWIDTH 658 0
DWIDTH 11 0
BBX 10 11 1 0
BITMAP
F180
6280
6200
6400
6400
7800
6400
6600
6200
6300
F1C0
ENDCHAR
STARTCHAR uni041B
ENCODING 1051
SWIDTH 684 0
DWIDTH 11 0
BBX 10 11 0 0
BITMAP
3FC0
0980
0980
0980
1180
1180
1180
1180
1180
E180
C3C0
ENDCHAR
STARTCHAR uni041C
ENCODING 1052
SWIDTH 895 0
DWIDTH 14 0
BBX 14 11 0 0
BITMAP
F03C
3030
3830
3850
2C50
2C90
2490
2710
2310
2310
F27C
ENDCHAR
STARTCHAR uni041D
ENCODING 1053
SWIDTH 777 0
DWIDTH 12 0
BBX 11 11 1 0
BITMAP
F3E0
6080
6080
6080
6080
7F80
6080
6080
6080
6080
F3E0
ENDCHAR
STARTCHAR uni041E
ENCODING 1054
SWIDTH 738 0
DWIDTH 12 0
BBX 10 11 1 0
BITMAP
1E00
6180
C080
C0C0
C0C0
C0C0
C0C0
C0C0
C080
6180
1E00
ENDCHAR
STARTCHAR uni041F
ENCODING 1055
SWIDTH 759 0
DWIDTH 12 0
BBX 11 11 1 0
BITMAP
FFE0
60C0
6080
6080
6080
6080
6080
6080
6080
61C0
F3E0
ENDCHAR
STARTCHAR uni0420
ENCODING 1056
SWIDTH 569 0
DWIDTH 9 0
BBX 8 11 1 0
BITMAP
FC
62
63
63
62
7C
60
60
60
60
F0
ENDCHAR
STARTCHAR uni0421
ENCODING 1057
SWIDTH 670 0
DWIDTH 11 0
BBX 9 11 1 0
BITMAP
1F80
6180
C080
C080
C000
8000
C000
C000
C000
6080
3F00
ENDCHAR
STARTCHAR uni0422
ENCODING 1058
SWIDTH 603 0
DWIDTH 10 0
BBX 9 11 0 0
BITMAP
FF80
8C80
8C80
0C00
0C00
0C00
0C00
0C00
0C00
0C00
1E00
ENDCHAR
STARTCHAR uni0423
ENCODING 1059
SWIDTH 625 0
DWIDTH 10 0
BBX 10 11 0 0
BITMAP
F1C0
6080
2100
3100
1100
1A00
0A00
0400
0400
6800
3000
ENDCHAR
STARTCHAR uni0424
ENCODING 1060
SWIDTH 725 0
DWIDTH 12 0
BBX 10 11 1 0
BITMAP
1E00
0C00
7B80
C8C0
88C0
88C0
88C0
C880
7B00
0C00
1E00
ENDCHAR
STARTCHAR uni0425
ENCODING 1061
SWIDTH 664 0
DWIDTH 11 0
BBX 11 11 0 0
BITMAP
F9C0
3080
1100
1A00
0C00
0400
0E00
1300
2100
2180
F3E0
ENDCHAR
STARTCHAR uni0426
ENCODING 1062
SWIDTH 756 0
DWIDTH 12 0
BBX 11 14 1 -3
BITMAP
F3E0
6180
6180
6180
6180
6180
6180
6180
6180
6180
FFC0
0040
0040
0020
ENDCHAR
STARTCHAR uni0427
ENCODING 1063
SWIDTH 650 0
DWIDTH 10 0
BBX 10 11 0 0
BITMAP
F7C0
6100
6100
6100
6100
2100
3F00
0100
0100
0100
07C0
ENDCHAR
STARTCHAR uni0428
ENCODING 1064
SWIDTH 1053 0
DWIDTH 17 0
BBX 15 11 1 0
BITMAP
F7DE
610C
610C
610C
610C
610C
610C
610C
610C
610C
FFFE
ENDCHAR
STARTCHAR uni0429
ENCODING 1065
SWIDTH 1044 0
DWIDTH 17 0
BBX 15 14 1 -3
BITMAP
F79E
610C
610C
610C
610C
610C
610C
610C
610C
610C
FFFE
0002
0002
0002
ENDCHAR
STARTCHAR uni042A
ENCODING 1066
SWIDTH 723 0
DWIDTH 12 0
BBX 11 11 0 0
BITMAP
FE00
8C00
8C00
0C00
0C00
0F80
0C60
0C60
0C60
0C60
1FC0
ENDCHAR
STARTCHAR uni042B
ENCODING 1067
SWIDTH 887 0
DWIDTH 14 0
BBX 13 11 1 0
BITMAP
F0F8
6020
6020
6020
6020
7C20
6320
6320
6320
6220
FCF8
ENDCHAR
STARTCHAR uni042C
ENCODING 1068
SWIDTH 606 0
DWIDTH 10 0
BBX 8 11 1 0
BITMAP
F0
60
60
60
60
7E
63
61
61
63
FE
ENDCHAR
STARTCHAR uni042D
ENCODING 1069
SWIDTH 667 0
DWIDTH 11 0
BBX 9 11 1 0
BITMAP
FC00
C300
8100
8180
0180
3F80
0180
0180
0100
8200
7C00
ENDCHAR
STARTCHAR uni042E
ENCODING 1070
SWIDTH 1042 0
DWIDTH 17 0
BBX 15 11 1 0
BITMAP
F0F0
630C
6204
6606
6606
7E06
6606
6606
6204
630C
F0F0
ENDCHAR
STARTCHAR uni042F
ENCODING 1071
SWIDTH 654 0
DWIDTH 10 0
BBX 10 11 0 0
BITMAP
1FC0
3100
2100
2100
3100
0F00
1900
1100
3100
2100
E7C0
ENDCHAR
STARTCHAR uni0430
ENCODING 1072
SWIDTH 480 0
DWIDTH 8 0
BBX 7 8 1 0
BITMAP
70
88
88
18
68
88
88
FE
ENDCHAR
STARTCHAR uni0431
ENCODING 1073
SWIDTH 520 0
DWIDTH 8 0
BBX 7 12 1 0
BITMAP
04
3C
70
80
B8
C4
86
86
86
86
C4
78
ENDCHAR
STARTCHAR uni0432
ENCODING 1074
SWIDTH 505 0
DWIDTH 8 0
BBX 7 8 1 0
BITMAP
F8
44
44
44
78
44
46
FC
ENDCHAR
STARTCHAR uni0433
ENCODING 1075
SWIDTH 429 0
DWIDTH 7 0
BBX 6 8 1 0
BITMAP
F8
44
44
40
40
40
40
E0
ENDCHAR
STARTCHAR uni0434
ENCODING 1076
SWIDTH 530 0
DWIDTH 8 0
BBX 8 10 0 -2
BITMAP
7F
26
26
26
26
26
46
FF
81
81
ENDCHAR
STARTCHAR uni0435
ENCODING 1077
SWIDTH 464 0
DWIDTH 7 0
BBX 6 8 1 0
BITMAP
78
88
8C
FC
80
80
C4
78
ENDCHAR
STARTCHAR uni0436
ENCODING 1078
SWIDTH 754 0
DWIDTH 12 0
BBX 12 8 0 0
BITMAP
CF30
A650
2640
1680
1F80
36C0
2660
EF30
ENDCHAR
STARTCHAR uni0437
ENCODING 1079
SWIDTH 435 0
DWIDTH 7 0
BBX 6 8 0 0
BITMAP
78
44
84
38
04
04
84
78
ENDCHAR
STARTCHAR uni0438
ENCODING 1080
SWIDTH 609 0
DWIDTH 10 0
BBX 8 8 1 0
BITMAP
E7
42
46
4A
52
62
42
E7
ENDCHAR
STARTCHAR uni0439
ENCODING 1081
SWIDTH 609 0
DWIDTH 10 0
BBX 8 12 1 0
BITMAP
24
66
44
3C
E7
42
46
4A
52
62
42
E7
ENDCHAR
STARTCHAR uni043A
ENCODING 1082
SWIDTH 521 0
DWIDTH 8 0
BBX 8 8 0 0
BITMAP
F3
25
24
24
38
2C
26
F3
ENDCHAR
STARTCHAR uni043B
ENCODING 1083
SWIDTH 553 0
DWIDTH 9 0
BBX 8 8 0 0
BITMAP
3F
12
12
12
12
22
A2
C7
ENDCHAR
STARTCHAR uni043C
ENCODING 1084
SWIDTH 697 0
DWIDTH 11 0
BBX 11 8 0 0
BITMAP
E0E0
71C0
51C0
5AC0
5AC0
4AC0
4CC0
E5E0
ENDCHAR
STARTCHAR uni043D
ENCODING 1085
SWIDTH 605 0
DWIDTH 10 0
BBX 9 8 0 0
BITMAP
F380
2100
2100
3F00
2100
2100
2100
F380
ENDCHAR
STARTCHAR uni043E
ENCODING 1086
SWIDTH 514 0
DWIDTH 8 0
BBX 7 8 1 0
BITMAP
78
C4
86
86
86
84
C4
78
ENDCHAR
STARTCHAR uni043F
ENCODING 1087
SWIDTH 591 0
DWIDTH 9 0
BBX 9 8 0 0
BITMAP
FF80
2300
2300
2300
2300
2300
2300
F780
ENDCHAR
STARTCHAR uni0440
ENCODING 1088
SWIDTH 537 0
DWIDTH 9 0
BBX 8 12 0 -4
BITMAP
FE
23
23
21
21
23
22
3C
20
20
60
F0
ENDCHAR
STARTCHAR uni0441
ENCODING 1089
SWIDTH 446 0
DWIDTH 7 0
BBX 6 8 1 0
BITMAP
78
8C
88
80
80
80
C4
78
ENDCHAR
STARTCHAR uni0442
ENCODING 1090
SWIDTH 456 0
DWIDTH 7 0
BBX 7 8 0 0
BITMAP
FE
92
92
10
10
10
10
3C
ENDCHAR
STARTCHAR uni0443
ENCODING 1091
SWIDTH 483 0
DWIDTH 8 0
BBX 8 12 0 -4
BITMAP
E7
42
62
24
34
14
18
18
10
10
E0
E0
ENDCHAR
STARTCHAR uni0444
ENCODING 1092
SWIDTH 710 0
DWIDTH 11 0
BBX 10 16 1 -4
BITMAP
0400
1800
0800
0800
7B80
CC80
88C0
88C0
88C0
88C0
8C80
7B00
0800
0800
0800
1E00
ENDCHAR
STARTCHAR uni0445
ENCODING 1093
SWIDTH 479 0
DWIDTH 8 0
BBX 8 8 0 0
BITMAP
F6
64
34
18
18
2C
46
EF
ENDCHAR
STARTCHAR uni0446
ENCODING 1094
SWIDTH 590 0
DWIDTH 9 0
BBX 9 10 0 -2
BITMAP
F780
2300
2300
2300
2300
2300
2300
FF80
0080
0080
ENDCHAR
STARTCHAR uni0447
ENCODING 1095
SWIDTH 535 0
DWIDTH 9 0
BBX 8 8 0 0
BITMAP
E7
42
42
62
3E
02
02
0F
ENDCHAR
STARTCHAR uni0448
ENCODING 1096
SWIDTH 812 0
DWIDTH 13 0
BBX 12 8 0 0
BITMAP
F770
2220
2220
2220
2220
2220
2220
FFF0
ENDCHAR
STARTCHAR uni0449
ENCODING 1097
SWIDTH 814 0
DWIDTH 13 0
BBX 13 10 0 -2
BITMAP
F770
2220
2220
2220
2220
2220
2220
FFF8
0018
0008
ENDCHAR
STARTCHAR uni044A
ENCODING 1098
SWIDTH 568 0
DWIDTH 9 0
BBX 9 8 0 0
BITMAP
F800
9000
9000
1E00
1100
1180
1180
3F00
ENDCHAR
STARTCHAR uni044B
ENCODING 1099
SWIDTH 728 0
DWIDTH 12 0
BBX 10 8 1 0
BITMAP
E1C0
4080
4080
7880
4C80
4480
4480
F9C0
ENDCHAR
STARTCHAR uni044C
ENCODING 1100
SWIDTH 489 0
DWIDTH 8 0
BBX 6 8 1 0
BITMAP
E0
40
40
78
44
44
44
F8
ENDCHAR
STARTCHAR uni044D
ENCODING 1101
SWIDTH 467 0
DWIDTH 7 0
BBX 7 8 0 0
BITMAP
78
44
86
3E
06
06
84
78
ENDCHAR
STARTCHAR uni044E
ENCODING 1102
SWIDTH 774 0
DWIDTH 12 0
BBX 12 8 0 0
BITMAP
F3C0
2620
2430
3C30
2430
2430
2220
F1C0
ENDCHAR
STARTCHAR uni044F
ENCODING 1103
SWIDTH 518 0
DWIDTH 8 0
BBX 8 8 0 0
BITMAP
3F
66
46
66
1E
36
26
EF
ENDCHAR
STARTCHAR uni0450
ENCODING 1104
SWIDTH 464 0
DWIDTH 7 0
BBX 6 12 1 0
BITMAP
60
20
10
00
78
88
8C
FC
80
80
C4
78
ENDCHAR
STARTCHAR uni0451
ENCODING 1105
SWIDTH 464 0
DWIDTH 7 0
BBX 6 11 1 0
BITMAP
C8
CC
00
78
88
8C
FC
80
80
C4
78
ENDCHAR
STARTCHAR uni0452
ENCODING 1106
SWIDTH 563 0
DWIDTH 9 0
BBX 8 16 0 -4
BITMAP
20
E0
20
FC
2E
33
23
21
21
21
21
73
03
02
12
1C
ENDCHAR
STARTCHAR uni0453
ENCODING 1107
SWIDTH 429 0
DWIDTH 7 0
BBX 6 12 1 0
BITMAP
10
30
20
00
F8
44
44
40
40
40
40
E0
ENDCHAR
STARTCHAR uni0454
ENCODING 1108
SWIDTH 460 0
DWIDTH 7 0
BBX 6 8 1 0
BITMAP
78
8C
80
F0
80
80
C4
78
ENDCHAR
STARTCHAR uni0455
ENCODING 1109
SWIDTH 394 0
DWIDTH 6 0
BBX 5 8 1 0
BITMAP
F0
90
88
E0
30
98
88
F0
ENDCHAR
STARTCHAR uni0456
ENCODING 1110
SWIDTH 285 0
DWIDTH 5 0
BBX 3 11 1 0
BITMAP
C0
40
00
C0
40
40
40
40
40
40
E0
ENDCHAR
STARTCHAR uni0457
ENCODING 1111
SWIDTH 285 0
DWIDTH 5 0
BBX 4 11 0 0
BITMAP
90
90
00
60
20
20
20
20
20
20
70
ENDCHAR
STARTCHAR uni0458
ENCODING 1112
SWIDTH 263 0
DWIDTH 4 0
BBX 5 15 -2 -4
BITMAP
18
18
00
38
08
08
08
08
08
08
08
08
08
D8
70
ENDCHAR
STARTCHAR uni0459
ENCODING 1113
SWIDTH 742 0
DWIDTH 12 0
BBX 11 8 0 0
BITMAP
3F00
1200
1200
13C0
1220
2220
A220
C7C0
ENDCHAR
STARTCHAR uni045A
ENCODING 1114
SWIDTH 790 0
DWIDTH 13 0
BBX 12 8 0 0
BITMAP
F380
2100
2100
3FE0
2110
2110
2110
F3E0
ENDCHAR
STARTCHAR uni045B
ENCODING 1115
SWIDTH 579 0
DWIDTH 9 0
BBX 9 11 0 0
BITMAP
E000
FC00
2000
2E00
3300
2300
2300
2300
2300
2300
7780
ENDCHAR
STARTCHAR uni045C
ENCODING 1116
SWIDTH 521 0
DWIDTH 8 0
BBX 8 12 0 0
BITMAP
0C
08
10
00
F3
25
24
24
38
2C
26
F3
ENDCHAR
STARTCHAR uni045D
ENCODING 1117
SWIDTH 609 0
DWIDTH 10 0
BBX 8 12 1 0
BITMAP
20
30
10
00
E7
42
46
4A
52
62
42
E7
ENDCHAR
STARTCHAR uni045E
ENCODING 1118
SWIDTH 483 0
DWIDTH 8 0
BBX 8 15 0 -4
BITMAP
26
62
3C
E7
42
62
24
34
14
18
18
10
10
90
E0
ENDCHAR
STARTCHAR uni045F
ENCODING 1119
SWIDTH 587 0
DWIDTH 9 0
BBX 9 11 0 -3
BITMAP
F780
2300
2300
2300
2300
2300
2300
FF80
0800
0800
0C00
ENDCHAR
STARTCHAR uni0462
ENCODING 1122
SWIDTH 727 0
DWIDTH 12 0
BBX 11 12 0 0
BITMAP
3E00
0800
FFC0
8840
8840
0800
0F80
0860
0860
0860
0860
3F80
ENDCHAR
STARTCHAR uni0463
ENCODING 1123
SWIDTH 561 0
DWIDTH 9 0
BBX 9 12 0 0
BITMAP
1000
3000
1000
1000
FE00
9200
1000
1F00
1100
1180
1100
3F00
ENDCHAR
STARTCHAR uni046A
ENCODING 1130
SWIDTH 881 0
DWIDTH 14 0
BBX 14 11 0 0
BITMAP
1FE0
1820
0C40
0680
0280
0FC0
1B60
1330
3330
6318
E79C
ENDCHAR
STARTCHAR uni046B
ENCODING 1131
SWIDTH 667 0
DWIDTH 11 0
BBX 11 8 0 0
BITMAP
3F80
1100
1A00
0E00
1500
2580
6480
CEE0
ENDCHAR
STARTCHAR uni0472
ENCODING 1138
SWIDTH 737 0
DWIDTH 12 0
BBX 10 11 1 0
BITMAP
1E00
6180
C080
C0C0
B8C0
C7C0
C0C0
C0C0
C080
6180
3E00
ENDCHAR
STARTCHAR uni0473
ENCODING 1139
SWIDTH 514 0
DWIDTH 8 0
BBX 7 8 1 0
BITMAP
78
C4
86
E6
9E
84
C4
78
ENDCHAR
STARTCHAR uni0474
ENCODING 1140
SWIDTH 705 0
DWIDTH 11 0
BBX 12 11 0 0
BITMAP
F070
60A0
2080
3080
3100
1900
1900
0A00
0E00
0400
0400
ENDCHAR
STARTCHAR uni0475
ENCODING 1141
SWIDTH 520 0
DWIDTH 8 0
BBX 9 8 0 0
BITMAP
E380
4280
6400
2400
3400
3800
1800
1000
ENDCHAR
STARTCHAR uni0490
ENCODING 1168
SWIDTH 525 0
DWIDTH 8 0
BBX 7 14 1 0
BITMAP
02
02
02
FE
60
60
60
60
60
60
60
60
60
F0
ENDCHAR
STARTCHAR uni0491
ENCODING 1169
SWIDTH 404 0
DWIDTH 6 0
BBX 5 10 1 0
BITMAP
08
08
F8
40
40
40
40
40
40
E0
ENDCHAR
STARTCHAR uni1D00
ENCODING 7424
SWIDTH 511 0
DWIDTH 8 0
BBX 8 8 0 0
BITMAP
18
18
2C
2C
24
7E
46
C7
ENDCHAR
STARTCHAR uni1D07
ENCODING 7431
SWIDTH 495 0
DWIDTH 8 0
BBX 6 8 1 0
BITMAP
FC
44
48
48
78
44
44
FC
ENDCHAR
STARTCHAR uni1D1C
ENCODING 7452
SWIDTH 584 0
DWIDTH 9 0
BBX 9 8 0 0
BITMAP
F380
6100
6100
6100
6100
6100
2100
3E00
ENDCHAR
STARTCHAR uni1D81
ENCODING 7553
SWIDTH 539 0
DWIDTH 9 0
BBX 7 15 1 -4
BITMAP
0C
04
04
7C
C4
84
84
84
84
84
7E
02
02
0A
0E
ENDCHAR
STARTCHAR uni1D84
ENCODING 7556
SWIDTH 542 0
DWIDTH 9 0
BBX 9 15 0 -4
BITMAP
E000
2000
2000
2700
2400
2800
3000
2800
2C00
2600
F780
0080
0080
0480
0700
ENDCHAR
STARTCHAR uni1D85
ENCODING 7557
SWIDTH 283 0
DWIDTH 5 0
BBX 4 15 0 -4
BITMAP
E0
20
20
20
20
20
20
20
20
20
F0
10
10
50
60
ENDCHAR
STARTCHAR uni1D8A
ENCODING 7562
SWIDTH 395 0
DWIDTH 6 0
BBX 5 12 1 -4
BITMAP
F0
90
88
E0
30
98
88
F0
08
08
50
70
ENDCHAR
STARTCHAR uni1D8D
ENCODING 7565
SWIDTH 479 0
DWIDTH 8 0
BBX 8 12 0 -4
BITMAP
F6
64
34
18
18
2C
46
EF
01
01
09
06
ENDCHAR
STARTCHAR uni1D8E
ENCODING 7566
SWIDTH 458 0
DWIDTH 7 0
BBX 7 12 0 -4
BITMAP
7E
4C
08
18
30
22
62
FE
02
02
12
1C
ENDCHAR
STARTCHAR uni1D98
ENCODING 7576
SWIDTH 368 0
DWIDTH 6 0
BBX 8 15 0 -4
BITMAP
0E
1B
18
18
18
18
18
18
18
90
F0
80
80
90
60
ENDCHAR
STARTCHAR uni1D9B
ENCODING 7579
SWIDTH 462 0
DWIDTH 7 0
BBX 7 6 0 4
BITMAP
DC
66
42
42
44
78
ENDCHAR
STARTCHAR uni1DA3
ENCODING 7587
SWIDTH 488 0
DWIDTH 8 0
BBX 7 9 0 1
BITMAP
EE
44
44
44
64
3C
04
04
06
ENDCHAR
STARTCHAR uni1E00
ENCODING 7680
SWIDTH 718 0
DWIDTH 11 0
BBX 11 15 0 -4
BITMAP
0400
0600
0E00
0A00
1300
1100
1180
3F80
20C0
40C0
E1E0
0C00
0A00
0A00
0C00
ENDCHAR
STARTCHAR uni1E01
ENCODING 7681
SWIDTH 480 0
DWIDTH 8 0
BBX 7 12 1 -4
BITMAP
70
88
88
18
68
88
88
FE
30
50
50
30
ENDCHAR
STARTCHAR uni1E02
ENCODING 7682
SWIDTH 618 0
DWIDTH 10 0
BBX 8 14 1 0
BITMAP
10
18
00
FE
63
63
63
62
7E
63
61
61
63
FE
ENDCHAR
STARTCHAR uni1E03
ENCODING 7683
SWIDTH 522 0
DWIDTH 8 0
BBX 8 15 0 0
BITMAP
18
18
00
00
E0
60
60
7E
62
63
63
63
63
62
3C
ENDCHAR
STARTCHAR uni1E04
ENCODING 7684
SWIDTH 618 0
DWIDTH 10 0
BBX 8 14 1 -3
BITMAP
FE
63
63
63
62
7E
63
61
61
63
FE
00
10
18
ENDCHAR
STARTCHAR uni1E05
ENCODING 7685
SWIDTH 522 0
DWIDTH 8 0
BBX 8 14 0 -3
BITMAP
E0
60
60
7E
62
63
63
63
63
62
3C
00
18
18
ENDCHAR
STARTCHAR uni1E06
ENCODING 7686
SWIDTH 618 0
DWIDTH 10 0
BBX 8 13 1 -2
BITMAP
FE
63
63
63
62
7E
63
61
61
63
FE
00
7C
ENDCHAR
STARTCHAR uni1E07
ENCODING 7687
SWIDTH 522 0
DWIDTH 8 0
BBX 8 13 0 -2
BITMAP
E0
60
60
7E
62
63
63
63
63
62
3C
00
3C
ENDCHAR
STARTCHAR uni1E08
ENCODING 7688
SWIDTH 670 0
DWIDTH 11 0
BBX 9 18 1 -4
BITMAP
0600
0800
1000
1F80
6180
C080
C080
C000
8000
C000
C000
C000
6080
3F00
0800
0C00
0400
1C00
ENDCHAR
STARTCHAR uni1E09
ENCODING 7689
SWIDTH 446 0
DWIDTH 7 0
BBX 6 16 1 -4
BITMAP
18
10
20
00
78
8C
88
80
80
80
C4
78
20
30
08
30
ENDCHAR
STARTCHAR uni1E0A
ENCODING 7690
SWIDTH 730 0
DWIDTH 12 0
BBX 10 14 1 0
BITMAP
0800
0800
0000
FE00
6380
6180
60C0
60C0
60C0
60C0
60C0
6080
6100
FE00
ENDCHAR
STARTCHAR uni1E0B
ENCODING 7691
SWIDTH 539 0
DWIDTH 9 0
BBX 7 15 1 0
BITMAP
10
30
00
00
0C
04
04
7C
C4
84
84
84
84
84
7E
ENDCHAR
STARTCHAR uni1E0C
ENCODING 7692
SWIDTH 730 0
DWIDTH 12 0
BBX 10 14 1 -3
BITMAP
FE00
6380
6180
60C0
60C0
60C0
60C0
60C0
6080
6100
FE00
0000
1800
1800
ENDCHAR
STARTCHAR uni1E0D
ENCODING 7693
SWIDTH 539 0
DWIDTH 9 0
BBX 7 14 1 -3
BITMAP
0C
04
04
7C
C4
84
84
84
84
84
7E
00
10
30
ENDCHAR
STARTCHAR uni1E0E
ENCODING 7694
SWIDTH 730 0
DWIDTH 12 0
BBX 10 13 1 -2
BITMAP
FE00
6380
6180
60C0
60C0
60C0
60C0
60C0
6080
6100
FE00
0000
3C00
ENDCHAR
STARTCHAR uni1E0F
ENCODING 7695
SWIDTH 539 0
DWIDTH 9 0
BBX 7 13 1 -2
BITMAP
0C
04
04
7C
C4
84
84
84
84
84
7E
00
7C
ENDCHAR
STARTCHAR uni1E10
ENCODING 7696
SWIDTH 730 0
DWIDTH 12 0
BBX 10 16 1 -5
BITMAP
FE00
6380
6180
60C0
60C0
60C0
60C0
60C0
6080
6100
FE00
0000
1800
1800
0800
1000
ENDCHAR
STARTCHAR uni1E11
ENCODING 7697
SWIDTH 539 0
DWIDTH 9 0
BBX 7 16 1 -5
BITMAP
0C
04
04
7C
C4
84
84
84
84
84
7E
00
30
30
10
20
ENDCHAR
STARTCHAR uni1E12
ENCODING 7698
SWIDTH 730 0
DWIDTH 12 0
BBX 10 14 1 -3
BITMAP
FE00
6380
6180
60C0
60C0
60C0
60C0
60C0
6080
6100
FE00
0800
1800
2400
ENDCHAR
STARTCHAR uni1E13
ENCODING 7699
SWIDTH 539 0
DWIDTH 9 0
BBX 7 14 1 -3
BITMAP
0C
04
04
7C
C4
84
84
84
84
84
7E
10
38
4C
ENDCHAR
STARTCHAR uni1E14
ENCODING 7700
SWIDTH 626 0
DWIDTH 10 0
BBX 9 16 1 0
BITMAP
3000
0C00
0000
3C00
0000
FF00
6100
6000
6200
6200
7E00
6200
6000
6080
6100
FF00
ENDCHAR
STARTCHAR uni1E15
ENCODING 7701
SWIDTH 464 0
DWIDTH 7 0
BBX 6 14 1 0
BITMAP
60
20
10
00
78
00
78
88
8C
FC
80
80
C4
78
ENDCHAR
STARTCHAR uni1E16
ENCODING 7702
SWIDTH 626 0
DWIDTH 10 0
BBX 9 16 1 0
BITMAP
0C00
1000
0000
3C00
0000
FF00
6100
6000
6200
6200
7E00
6200
6000
6080
6100
FF00
ENDCHAR
STARTCHAR uni1E17
ENCODING 7703
SWIDTH 464 0
DWIDTH 7 0
BBX 6 14 1 0
BITMAP
18
10
20
00
78
00
78
88
8C
FC
80
80
C4
78
ENDCHAR
STARTCHAR uni1E18
ENCODING 7704
SWIDTH 626 0
DWIDTH 10 0
BBX 9 14 1 -3
BITMAP
FF00
6100
6000
6200
6200
7E00
6200
6000
6080
6100
FF00
0800
1800
2400
ENDCHAR
STARTCHAR uni1E19
ENCODING 7705
SWIDTH 464 0
DWIDTH 7 0
BBX 6 11 1 -3
BITMAP
78
88
8C
FC
80
80
C4
78
20
30
48
ENDCHAR
STARTCHAR uni1E1A
ENCODING 7706
SWIDTH 626 0
DWIDTH 10 0
BBX 9 14 1 -3
BITMAP
FF00
6100
6000
6200
6200
7E00
6200
6000
6080
6100
FF00
0000
3200
4C00
ENDCHAR
STARTCHAR uni1E1B
ENCODING 7707
SWIDTH 464 0
DWIDTH 7 0
BBX 6 11 1 -3
BITMAP
78
88
8C
FC
80
80
C4
78
00
64
98
ENDCHAR
STARTCHAR uni1E1C
ENCODING 7708
SWIDTH 626 0
DWIDTH 10 0
BBX 9 19 1 -4
BITMAP
2200
2400
1C00
0000
FF00
6100
6000
6200
6200
7E00
6200
6000
6080
6100
FF00
1000
1800
0400
1800
ENDCHAR
STARTCHAR uni1E1D
ENCODING 7709
SWIDTH 464 0
DWIDTH 7 0
BBX 6 16 1 -4
BITMAP
88
48
70
00
78
88
8C
FC
80
80
C4
78
20
30
10
70
ENDCHAR
STARTCHAR uni1E1E
ENCODING 7710
SWIDTH 588 0
DWIDTH 9 0
BBX 8 14 1 0
BITMAP
18
18
00
FF
61
60
62
62
7E
62
60
60
60
F0
ENDCHAR
STARTCHAR uni1E1F
ENCODING 7711
SWIDTH 307 0
DWIDTH 5 0
BBX 6 15 0 0
BITMAP
20
60
00
00
1C
24
20
F8
20
20
20
20
20
20
F8
ENDCHAR
STARTCHAR uni1E20
ENCODING 7712
SWIDTH 720 0
DWIDTH 12 0
BBX 10 13 1 0
BITMAP
1E00
0000
1F80
6180
C080
C080
C000
83C0
C180
C180
C180
6180
3F00
ENDCHAR
STARTCHAR uni1E21
ENCODING 7713
SWIDTH 484 0
DWIDTH 8 0
BBX 8 14 0 -4
BITMAP
3C
00
3F
44
46
46
24
78
40
7E
42
C2
C2
7C
ENDCHAR
STARTCHAR uni1E22
ENCODING 7714
SWIDTH 777 0
DWIDTH 12 0
BBX 11 14 1 0
BITMAP
0400
0C00
0000
F3E0
6080
6080
6080
6080
7F80
6080
6080
6080
6080
F3E0
ENDCHAR
STARTCHAR uni1E23
ENCODING 7715
SWIDTH 577 0
DWIDTH 9 0
BBX 9 15 0 0
BITMAP
0800
0C00
0000
0000
E000
2000
2000
2E00
3300
2300
2300
2300
2300
2300
F780
ENDCHAR
STARTCHAR uni1E24
ENCODING 7716
SWIDTH 777 0
DWIDTH 12 0
BBX 11 14 1 -3
BITMAP
F3E0
6080
6080
6080
6080
7F80
6080
6080
6080
6080
F3E0
0000
0400
0C00
ENDCHAR
STARTCHAR uni1E25
ENCODING 7717
SWIDTH 577 0
DWIDTH 9 0
BBX 9 14 0 -3
BITMAP
E000
2000
2000
2E00
3300
2300
2300
2300
2300
2300
F780
0000
0800
0C00
ENDCHAR
STARTCHAR uni1E26
ENCODING 7718
SWIDTH 777 0
DWIDTH 12 0
BBX 11 14 1 0
BITMAP
1300
1300
0000
F3E0
6080
6080
6080
6080
7F80
6080
6080
6080
6080
F3E0
ENDCHAR
STARTCHAR uni1E27
ENCODING 7719
SWIDTH 577 0
DWIDTH 9 0
BBX 9 15 0 0
BITMAP
3200
3200
0000
0000
E000
2000
2000
2E00
3300
2300
2300
2300
2300
2300
F780
ENDCHAR
STARTCHAR uni1E28
ENCODING 7720
SWIDTH 777 0
DWIDTH 12 0
BBX 11 15 1 -4
BITMAP
F3E0
6080
6080
6080
6080
7F80
6080
6080
6080
6080
F3E0
4000
6000
2000
E000
ENDCHAR
STARTCHAR uni1E29
ENCODING 7721
SWIDTH 577 0
DWIDTH 9 0
BBX 9 15 0 -4
BITMAP
E000
2000
2000
2E00
3300
2300
2300
2300
2300
2300
F780
4000
6000
1000
6000
ENDCHAR
STARTCHAR uni1E2A
ENCODING 7722
SWIDTH 777 0
DWIDTH 12 0
BBX 11 14 1 -3
BITMAP
F3E0
6080
6080
6080
6080
7F80
6080
6080
6080
6080
F3E0
1100
1100
0E00
ENDCHAR
STARTCHAR uni1E2B
ENCODING 7723
SWIDTH 577 0
DWIDTH 9 0
BBX 9 14 0 -3
BITMAP
E000
2000
2000
2E00
3300
2300
2300
2300
2300
2300
F780
2200
2200
1C00
ENDCHAR
STARTCHAR uni1E2C
ENCODING 7724
SWIDTH 357 0
DWIDTH 6 0
BBX 5 14 0 -3
BITMAP
78
30
30
30
30
30
30
30
30
30
78
00
68
98
ENDCHAR
STARTCHAR uni1E2D
ENCODING 7725
SWIDTH 285 0
DWIDTH 5 0
BBX 5 14 0 -3
BITMAP
60
20
00
60
20
20
20
20
20
20
70
00
C8
B0
ENDCHAR
STARTCHAR uni1E2E
ENCODING 7726
SWIDTH 357 0
DWIDTH 6 0
BBX 6 16 0 0
BITMAP
18
20
C8
CC
00
78
30
30
30
30
30
30
30
30
30
78
ENDCHAR
STARTCHAR uni1E2F
ENCODING 7727
SWIDTH 285 0
DWIDTH 5 0
BBX 4 15 0 0
BITMAP
30
20
40
00
90
90
00
60
20
20
20
20
20
20
70
ENDCHAR
STARTCHAR uni1E30
ENCODING 7728
SWIDTH 702 0
DWIDTH 11 0
BBX 10 14 1 0
BITMAP
0C00
1800
0000
F380
6300
6200
6400
6800
7000
7800
6C00
6600
6300
F3C0
ENDCHAR
STARTCHAR uni1E31
ENCODING 7729
SWIDTH 542 0
DWIDTH 9 0
BBX 9 15 0 0
BITMAP
0C00
1000
0000
0000
E000
2000
2000
2700
2400
2800
3000
2800
2C00
2600
F780
ENDCHAR
STARTCHAR uni1E32
ENCODING 7730
SWIDTH 702 0
DWIDTH 11 0
BBX 10 14 1 -3
BITMAP
F380
6300
6200
6400
6800
7000
7800
6C00
6600
6300
F3C0
0000
0800
0C00
ENDCHAR
STARTCHAR uni1E33
ENCODING 7731
SWIDTH 542 0
DWIDTH 9 0
BBX 9 14 0 -3
BITMAP
E000
2000
2000
2700
2400
2800
3000
2800
2C00
2600
F780
0000
0800
1800
ENDCHAR
STARTCHAR uni1E34
ENCODING 7732
SWIDTH 702 0
DWIDTH 11 0
BBX 10 13 1 -2
BITMAP
F380
6300
6200
6400
6800
7000
7800
6C00
6600
6300
F3C0
0000
3E00
ENDCHAR
STARTCHAR uni1E35
ENCODING 7733
SWIDTH 542 0
DWIDTH 9 0
BBX 9 13 0 -2
BITMAP
E000
2000
2000
2700
2400
2800
3000
2800
2C00
2600
F780
0000
3E00
ENDCHAR
STARTCHAR uni1E36
ENCODING 7734
SWIDTH 585 0
DWIDTH 9 0
BBX 8 14 1 -3
BITMAP
F0
60
60
60
60
60
60
60
61
61
FF
00
10
18
ENDCHAR
STARTCHAR uni1E37
ENCODING 7735
SWIDTH 283 0
DWIDTH 5 0
BBX 4 14 0 -3
BITMAP
E0
20
20
20
20
20
20
20
20
20
F0
00
20
60
ENDCHAR
STARTCHAR uni1E38
ENCODING 7736
SWIDTH 585 0
DWIDTH 9 0
BBX 8 16 1 -3
BITMAP
F0
00
F0
60
60
60
60
60
60
60
61
61
FF
00
10
18
ENDCHAR
STARTCHAR uni1E39
ENCODING 7737
SWIDTH 283 0
DWIDTH 5 0
BBX 5 17 0 -3
BITMAP
F8
00
00
E0
20
20
20
20
20
20
20
20
20
F0
00
20
60
ENDCHAR
STARTCHAR uni1E3A
ENCODING 7738
SWIDTH 585 0
DWIDTH 9 0
BBX 8 13 1 -2
BITMAP
F0
60
60
60
60
60
60
60
61
61
FF
00
7C
ENDCHAR
STARTCHAR uni1E3B
ENCODING 7739
SWIDTH 283 0
DWIDTH 5 0
BBX 5 13 0 -2
BITMAP
E0
20
20
20
20
20
20
20
20
20
F0
00
F8
ENDCHAR
STARTCHAR uni1E3C
ENCODING 7740
SWIDTH 585 0
DWIDTH 9 0
BBX 8 14 1 -3
BITMAP
F0
60
60
60
60
60
60
60
61
61
FF
10
38
64
ENDCHAR
STARTCHAR uni1E3D
ENCODING 7741
SWIDTH 283 0
DWIDTH 5 0
BBX 5 14 0 -3
BITMAP
E0
20
20
20
20
20
20
20
20
20
F0
20
60
98
ENDCHAR
STARTCHAR uni1E3E
ENCODING 7742
SWIDTH 895 0
DWIDTH 14 0
BBX 14 14 0 0
BITMAP
0180
0600
0000
F03C
3030
3830
3850
2C50
2C90
2490
2710
2310
2310
F27C
ENDCHAR
STARTCHAR uni1E3F
ENCODING 7743
SWIDTH 852 0
DWIDTH 14 0
BBX 12 12 1 0
BITMAP
0300
0200
0400
0000
DDC0
6620
4620
4620
4620
4620
4620
EF70
ENDCHAR
STARTCHAR uni1E40
ENCODING 7744
SWIDTH 895 0
DWIDTH 14 0
BBX 14 14 0 0
BITMAP
0300
0300
0000
F03C
3030
3830
3850
2C50
2C90
2490
2710
2310
2310
F27C
ENDCHAR
STARTCHAR uni1E41
ENCODING 7745
SWIDTH 852 0
DWIDTH 14 0
BBX 12 11 1 0
BITMAP
0600
0600
0000
DDC0
6620
4620
4620
4620
4620
4620
EF70
ENDCHAR
STARTCHAR uni1E42
ENCODING 7746
SWIDTH 895 0
DWIDTH 14 0
BBX 14 14 0 -3
BITMAP
F03C
3030
3830
3850
2C50
2C90
2490
2710
2310
2310
F27C
0000
0300
0300
ENDCHAR
STARTCHAR uni1E43
ENCODING 7747
SWIDTH 852 0
DWIDTH 14 0
BBX 12 11 1 -3
BITMAP
DDC0
6620
4620
4620
4620
4620
4620
EF70
0000
0600
0600
ENDCHAR
STARTCHAR uni1E44
ENCODING 7748
SWIDTH 742 0
DWIDTH 12 0
BBX 11 14 0 0
BITMAP
0600
0600
0000
F0E0
3040
3840
2C40
2E40
2640
2340
21C0
20C0
20C0
F040
ENDCHAR
STARTCHAR uni1E45
ENCODING 7749
SWIDTH 576 0
DWIDTH 9 0
BBX 8 11 1 0
BITMAP
18
18
00
DC
66
46
46
46
46
46
EF
ENDCHAR
STARTCHAR uni1E46
ENCODING 7750
SWIDTH 742 0
DWIDTH 12 0
BBX 11 14 0 -3
BITMAP
F0E0
3040
3840
2C40
2E40
2640
2340
21C0
20C0
20C0
F040
0000
0400
0600
ENDCHAR
STARTCHAR uni1E47
ENCODING 7751
SWIDTH 576 0
DWIDTH 9 0
BBX 8 11 1 -3
BITMAP
DC
66
46
46
46
46
46
EF
00
10
18
ENDCHAR
STARTCHAR uni1E48
ENCODING 7752
SWIDTH 742 0
DWIDTH 12 0
BBX 11 13 0 -2
BITMAP
F0E0
3040
3840
2C40
2E40
2640
2340
21C0
20C0
20C0
F040
0000
1F00
ENDCHAR
STARTCHAR uni1E49
ENCODING 7753
SWIDTH 576 0
DWIDTH 9 0
BBX 8 10 1 -2
BITMAP
DC
66
46
46
46
46
46
EF
00
7C
ENDCHAR
STARTCHAR uni1E4A
ENCODING 7754
SWIDTH 742 0
DWIDTH 12 0
BBX 11 14 0 -3
BITMAP
F0E0
3040
3840
2C40
2E40
2640
2340
21C0
20C0
20C0
F040
0400
0E00
1900
ENDCHAR
STARTCHAR uni1E4B
ENCODING 7755
SWIDTH 576 0
DWIDTH 9 0
BBX 8 11 1 -3
BITMAP
DC
66
46
46
46
46
46
EF
10
38
64
ENDCHAR
STARTCHAR uni1E4C
ENCODING 7756
SWIDTH 738 0
DWIDTH 12 0
BBX 10 16 1 0
BITMAP
0600
0800
1900
2600
0000
1E00
6180
C080
C0C0
C0C0
C0C0
C0C0
C0C0
C080
6180
1E00
ENDCHAR
STARTCHAR uni1E4D
ENCODING 7757
SWIDTH 514 0
DWIDTH 8 0
BBX 7 15 1 0
BITMAP
18
10
20
00
64
98
00
78
C4
86
86
86
84
C4
78
ENDCHAR
STARTCHAR uni1E4E
ENCODING 7758
SWIDTH 738 0
DWIDTH 12 0
BBX 10 16 1 0
BITMAP
3200
3300
1900
2600
0000
1E00
6180
C080
C0C0
C0C0
C0C0
C0C0
C0C0
C080
6180
1E00
ENDCHAR
STARTCHAR uni1E4F
ENCODING 7759
SWIDTH 514 0
DWIDTH 8 0
BBX 7 13 1 0
BITMAP
4C
4C
64
98
00
78
C4
86
86
86
84
C4
78
ENDCHAR
STARTCHAR uni1E50
ENCODING 7760
SWIDTH 738 0
DWIDTH 12 0
BBX 10 16 1 0
BITMAP
1800
0400
0000
1E00
0000
1E00
6180
C080
C0C0
C0C0
C0C0
C0C0
C0C0
C080
6180
1E00
ENDCHAR
STARTCHAR uni1E51
ENCODING 7761
SWIDTH 514 0
DWIDTH 8 0
BBX 7 14 1 0
BITMAP
60
20
10
00
7C
00
78
C4
86
86
86
84
C4
78
ENDCHAR
STARTCHAR uni1E52
ENCODING 7762
SWIDTH 738 0
DWIDTH 12 0
BBX 10 16 1 0
BITMAP
0600
1800
0000
1E00
0000
1E00
6180
C080
C0C0
C0C0
C0C0
C0C0
C0C0
C080
6180
1E00
ENDCHAR
STARTCHAR uni1E53
ENCODING 7763
SWIDTH 514 0
DWIDTH 8 0
BBX 7 14 1 0
BITMAP
18
10
20
00
7C
00
78
C4
86
86
86
84
C4
78
ENDCHAR
STARTCHAR uni1E54
ENCODING 7764
SWIDTH 569 0
DWIDTH 9 0
BBX 8 14 1 0
BITMAP
18
30
00
FC
62
63
63
62
7C
60
60
60
60
F0
ENDCHAR
STARTCHAR uni1E55
ENCODING 7765
SWIDTH 537 0
DWIDTH 9 0
BBX 8 16 0 -4
BITMAP
04
08
18
00
FE
23
23
21
21
23
22
3C
20
20
60
F0
ENDCHAR
STARTCHAR uni1E56
ENCODING 7766
SWIDTH 569 0
DWIDTH 9 0
BBX 8 14 1 0
BITMAP
10
18
00
FC
62
63
63
62
7C
60
60
60
60
F0
ENDCHAR
STARTCHAR uni1E57
ENCODING 7767
SWIDTH 537 0
DWIDTH 9 0
BBX 8 15 0 -4
BITMAP
08
18
00
FE
23
23
21
21
23
22
3C
20
20
60
F0
ENDCHAR
STARTCHAR uni1E58
ENCODING 7768
SWIDTH 659 0
DWIDTH 11 0
BBX 10 14 1 0
BITMAP
1800
1800
0000
FC00
6300
6300
6300
6600
7800
6C00
6600
6600
6300
F1C0
ENDCHAR
STARTCHAR uni1E59
ENCODING 7769
SWIDTH 380 0
DWIDTH 6 0
BBX 6 11 0 0
BITMAP
30
30
00
6C
34
20
20
20
20
20
F0
ENDCHAR
STARTCHAR uni1E5A
ENCODING 7770
SWIDTH 659 0
DWIDTH 11 0
BBX 10 14 1 -3
BITMAP
FC00
6300
6300
6300
6600
7800
6C00
6600
6600
6300
F1C0
0000
0800
1800
ENDCHAR
STARTCHAR uni1E5B
ENCODING 7771
SWIDTH 380 0
DWIDTH 6 0
BBX 6 11 0 -3
BITMAP
6C
34
20
20
20
20
20
F0
00
20
20
ENDCHAR
STARTCHAR uni1E5C
ENCODING 7772
SWIDTH 659 0
DWIDTH 11 0
BBX 10 16 1 -3
BITMAP
3C00
0000
FC00
6300
6300
6300
6600
7800
6C00
6600
6600
6300
F1C0
0000
0800
1800
ENDCHAR
STARTCHAR uni1E5D
ENCODING 7773
SWIDTH 380 0
DWIDTH 6 0
BBX 6 13 0 -3
BITMAP
78
00
6C
34
20
20
20
20
20
F0
00
20
20
ENDCHAR
STARTCHAR uni1E5E
ENCODING 7774
SWIDTH 659 0
DWIDTH 11 0
BBX 10 13 1 -2
BITMAP
FC00
6300
6300
6300
6600
7800
6C00
6600
6600
6300
F1C0
0000
3E00
ENDCHAR
STARTCHAR uni1E5F
ENCODING 7775
SWIDTH 380 0
DWIDTH 6 0
BBX 6 10 0 -2
BITMAP
6C
34
20
20
20
20
20
F0
00
F8
ENDCHAR
STARTCHAR uni1E60
ENCODING 7776
SWIDTH 504 0
DWIDTH 8 0
BBX 7 14 1 0
BITMAP
30
30
00
7C
84
84
C0
60
38
0C
04
86
84
F8
ENDCHAR
STARTCHAR uni1E61
ENCODING 7777
SWIDTH 394 0
DWIDTH 6 0
BBX 5 11 1 0
BITMAP
60
60
00
F0
90
88
E0
30
98
88
F0
ENDCHAR
STARTCHAR uni1E62
ENCODING 7778
SWIDTH 504 0
DWIDTH 8 0
BBX 7 14 1 -3
BITMAP
7C
84
84
C0
60
38
0C
04
86
84
F8
00
30
30
ENDCHAR
STARTCHAR uni1E63
ENCODING 7779
SWIDTH 394 0
DWIDTH 6 0
BBX 5 11 1 -3
BITMAP
F0
90
88
E0
30
98
88
F0
00
60
60
ENDCHAR
STARTCHAR uni1E64
ENCODING 7780
SWIDTH 504 0
DWIDTH 8 0
BBX 7 14 1 0
BITMAP
6C
30
00
7C
84
84
C0
60
38
0C
04
86
84
F8
ENDCHAR
STARTCHAR uni1E65
ENCODING 7781
SWIDTH 394 0
DWIDTH 6 0
BBX 5 12 1 0
BITMAP
D0
30
20
00
F0
90
88
E0
30
98
88
F0
ENDCHAR
STARTCHAR uni1E66
ENCODING 7782
SWIDTH 504 0
DWIDTH 8 0
BBX 7 16 1 0
BITMAP
30
74
68
30
00
7C
84
84
C0
60
38
0C
04
86
84
F8
ENDCHAR
STARTCHAR uni1E67
ENCODING 7783
SWIDTH 394 0
DWIDTH 6 0
BBX 5 12 1 0
BITMAP
E8
50
60
00
F0
90
88
E0
30
98
88
F0
ENDCHAR
STARTCHAR uni1E68
ENCODING 7784
SWIDTH 504 0
DWIDTH 8 0
BBX 7 17 1 -3
BITMAP
30
30
00
7C
84
84
C0
60
38
0C
04
86
84
F8
00
30
30
ENDCHAR
STARTCHAR uni1E69
ENCODING 7785
SWIDTH 394 0
DWIDTH 6 0
BBX 5 14 1 -3
BITMAP
60
60
00
F0
90
88
E0
30
98
88
F0
00
60
60
ENDCHAR
STARTCHAR uni1E6A
ENCODING 7786
SWIDTH 603 0
DWIDTH 10 0
BBX 9 14 0 0
BITMAP
0C00
0C00
0000
FF80
8C80
8C80
0C00
0C00
0C00
0C00
0C00
0C00
0C00
1E00
ENDCHAR
STARTCHAR uni1E6B
ENCODING 7787
SWIDTH 315 0
DWIDTH 5 0
BBX 4 13 1 0
BITMAP
40
40
00
40
40
F0
C0
C0
C0
C0
C0
C0
70
ENDCHAR
STARTCHAR uni1E6C
ENCODING 7788
SWIDTH 603 0
DWIDTH 10 0
BBX 9 14 0 -3
BITMAP
FF80
8C80
8C80
0C00
0C00
0C00
0C00
0C00
0C00
0C00
1E00
0000
0C00
0C00
ENDCHAR
STARTCHAR uni1E6D
ENCODING 7789
SWIDTH 315 0
DWIDTH 5 0
BBX 4 13 1 -3
BITMAP
40
40
F0
C0
C0
C0
C0
C0
C0
70
00
60
60
ENDCHAR
STARTCHAR uni1E6E
ENCODING 7790
SWIDTH 603 0
DWIDTH 10 0
BBX 9 13 0 -2
BITMAP
FF80
8C80
8C80
0C00
0C00
0C00
0C00
0C00
0C00
0C00
1E00
0000
1E00
ENDCHAR
STARTCHAR uni1E6F
ENCODING 7791
SWIDTH 315 0
DWIDTH 5 0
BBX 4 12 1 -2
BITMAP
40
40
F0
C0
C0
C0
C0
C0
C0
70
00
F0
ENDCHAR
STARTCHAR uni1E70
ENCODING 7792
SWIDTH 603 0
DWIDTH 10 0
BBX 9 14 0 -3
BITMAP
FF80
8C80
8C80
0C00
0C00
0C00
0C00
0C00
0C00
0C00
1E00
0800
0C00
1200
ENDCHAR
STARTCHAR uni1E71
ENCODING 7793
SWIDTH 315 0
DWIDTH 5 0
BBX 4 13 1 -3
BITMAP
40
40
F0
C0
C0
C0
C0
C0
C0
70
60
60
90
ENDCHAR
STARTCHAR uni1E72
ENCODING 7794
SWIDTH 752 0
DWIDTH 12 0
BBX 12 14 0 -3
BITMAP
F8F0
2040
2040
2040
2040
2040
2040
2040
3040
3040
0F80
0000
0980
1980
ENDCHAR
STARTCHAR uni1E73
ENCODING 7795
SWIDTH 570 0
DWIDTH 9 0
BBX 9 11 0 -3
BITMAP
E700
6300
6300
6300
6300
6300
2300
3F80
0000
2600
3600
ENDCHAR
STARTCHAR uni1E74
ENCODING 7796
SWIDTH 752 0
DWIDTH 12 0
BBX 12 14 0 -3
BITMAP
F8F0
2040
2040
2040
2040
2040
2040
2040
3040
3040
0F80
0000
0C80
1300
ENDCHAR
STARTCHAR uni1E75
ENCODING 7797
SWIDTH 570 0
DWIDTH 9 0
BBX 9 11 0 -3
BITMAP
E700
6300
6300
6300
6300
6300
2300
3F80
0000
3A00
2C00
ENDCHAR
STARTCHAR uni1E76
ENCODING 7798
SWIDTH 752 0
DWIDTH 12 0
BBX 12 14 0 -3
BITMAP
F8F0
2040
2040
2040
2040
2040
2040
2040
3040
3040
0F80
0200
0600
0900
ENDCHAR
STARTCHAR uni1E77
ENCODING 7799
SWIDTH 570 0
DWIDTH 9 0
BBX 9 11 0 -3
BITMAP
E700
6300
6300
6300
6300
6300
2300
3F80
0800
1C00
2600
ENDCHAR
STARTCHAR uni1E78
ENCODING 7800
SWIDTH 752 0
DWIDTH 12 0
BBX 12 16 0 0
BITMAP
0300
0400
0680
0B00
0000
F8F0
2040
2040
2040
2040
2040
2040
2040
3040
3040
0F80
ENDCHAR
STARTCHAR uni1E79
ENCODING 7801
SWIDTH 570 0
DWIDTH 9 0
BBX 9 15 0 0
BITMAP
0400
0C00
0800
0000
1A00
2C00
0000
E700
6300
6300
6300
6300
6300
2300
3F80
ENDCHAR
STARTCHAR uni1E7A
ENCODING 7802
SWIDTH 752 0
DWIDTH 12 0
BBX 12 16 0 0
BITMAP
0980
0D80
0000
0F80
0000
F8F0
2040
2040
2040
2040
2040
2040
2040
3040
3040
0F80
ENDCHAR
STARTCHAR uni1E7B
ENCODING 7803
SWIDTH 570 0
DWIDTH 9 0
BBX 9 13 0 0
BITMAP
2600
3600
0000
3E00
0000
E700
6300
6300
6300
6300
6300
2300
3F80
ENDCHAR
STARTCHAR uni1E7C
ENCODING 7804
SWIDTH 680 0
DWIDTH 11 0
BBX 11 14 0 0
BITMAP
0D00
1700
0000
F0E0
6040
2080
3080
3080
1900
1900
0A00
0E00
0400
0400
ENDCHAR
STARTCHAR uni1E7D
ENCODING 7805
SWIDTH 481 0
DWIDTH 8 0
BBX 8 11 0 0
BITMAP
32
4C
00
E7
42
62
24
34
38
18
10
ENDCHAR
STARTCHAR uni1E7E
ENCODING 7806
SWIDTH 680 0
DWIDTH 11 0
BBX 11 14 0 -3
BITMAP
F0E0
6040
2080
3080
3080
1900
1900
0A00
0E00
0400
0400
0000
0400
0400
ENDCHAR
STARTCHAR uni1E7F
ENCODING 7807
SWIDTH 481 0
DWIDTH 8 0
BBX 8 11 0 -3
BITMAP
E7
42
62
24
34
38
18
10
00
18
18
ENDCHAR
STARTCHAR Wgrave
ENCODING 7808
SWIDTH 944 0
DWIDTH 15 0
BBX 15 14 0 0
BITMAP
0300
0180
0000
F78E
6104
2184
3188
3188
11C8
1A50
0A50
0C60
0C20
0420
ENDCHAR
STARTCHAR wgrave
ENCODING 7809
SWIDTH 749 0
DWIDTH 12 0
BBX 12 12 0 0
BITMAP
0C00
0400
0200
0000
EF70
4620
6220
2740
3540
1940
1980
1080
ENDCHAR
STARTCHAR Wacute
ENCODING 7810
SWIDTH 944 0
DWIDTH 15 0
BBX 15 14 0 0
BITMAP
0180
0200
0000
F78E
6104
2184
3188
3188
11C8
1A50
0A50
0C60
0C20
0420
ENDCHAR
STARTCHAR wacute
ENCODING 7811
SWIDTH 749 0
DWIDTH 12 0
BBX 12 12 0 0
BITMAP
0300
0200
0400
0000
EF70
4620
6220
2740
3540
1940
1980
1080
ENDCHAR
STARTCHAR Wdieresis
ENCODING 7812
SWIDTH 944 0
DWIDTH 15 0
BBX 15 14 0 0
BITMAP
04C0
06C0
0000
F78E
6104
2184
3188
3188
11C8
1A50
0A50
0C60
0C20
0420
ENDCHAR
STARTCHAR wdieresis
ENCODING 7813
SWIDTH 749 0
DWIDTH 12 0
BBX 12 11 0 0
BITMAP
1900
1980
0000
EF70
4620
6220
2740
3540
1940
1980
1080
ENDCHAR
STARTCHAR uni1E86
ENCODING 7814
SWIDTH 944 0
DWIDTH 15 0
BBX 15 14 0 0
BITMAP
0100
0300
0000
F78E
6104
2184
3188
3188
11C8
1A50
0A50
0C60
0C20
0420
ENDCHAR
STARTCHAR uni1E87
ENCODING 7815
SWIDTH 749 0
DWIDTH 12 0
BBX 12 11 0 0
BITMAP
0600
0600
0000
EF70
4620
6220
2740
3540
1940
1980
1080
ENDCHAR
STARTCHAR uni1E88
ENCODING 7816
SWIDTH 944 0
DWIDTH 15 0
BBX 15 14 0 -3
BITMAP
F78E
6104
2184
3188
3188
11C8
1A50
0A50
0C60
0C20
0420
0000
0100
0180
ENDCHAR
STARTCHAR uni1E89
ENCODING 7817
SWIDTH 749 0
DWIDTH 12 0
BBX 12 11 0 -3
BITMAP
EF70
4620
6220
2740
3540
1940
1980
1080
0000
0600
0600
ENDCHAR
STARTCHAR uni1E8A
ENCODING 7818
SWIDTH 664 0
DWIDTH 11 0
BBX 11 14 0 0
BITMAP
0400
0400
0000
F9C0
3080
1100
1A00
0C00
0400
0E00
1300
2100
2180
F3E0
ENDCHAR
STARTCHAR uni1E8B
ENCODING 7819
SWIDTH 479 0
DWIDTH 8 0
BBX 8 11 0 0
BITMAP
18
18
00
F6
64
34
18
18
2C
46
EF
ENDCHAR
STARTCHAR uni1E8C
ENCODING 7820
SWIDTH 664 0
DWIDTH 11 0
BBX 11 14 0 0
BITMAP
1100
1B00
0000
F9C0
3080
1100
1A00
0C00
0400
0E00
1300
2100
2180
F3E0
ENDCHAR
STARTCHAR uni1E8D
ENCODING 7821
SWIDTH 479 0
DWIDTH 8 0
BBX 8 11 0 0
BITMAP
64
66
00
F6
64
34
18
18
2C
46
EF
ENDCHAR
STARTCHAR uni1E8E
ENCODING 7822
SWIDTH 647 0
DWIDTH 10 0
BBX 10 14 0 0
BITMAP
0400
0400
0000
F1C0
6080
3100
1100
1A00
0C00
0C00
0C00
0C00
0C00
1F00
ENDCHAR
STARTCHAR uni1E8F
ENCODING 7823
SWIDTH 483 0
DWIDTH 8 0
BBX 8 15 0 -4
BITMAP
18
18
00
E7
42
62
24
34
14
18
18
10
10
E0
E0
ENDCHAR
STARTCHAR uni1E90
ENCODING 7824
SWIDTH 594 0
DWIDTH 10 0
BBX 9 15 0 0
BITMAP
0C00
0C00
1200
0000
7F80
4300
4300
0600
0C00
0C00
1800
3000
3080
6080
FF80
ENDCHAR
STARTCHAR uni1E91
ENCODING 7825
SWIDTH 458 0
DWIDTH 7 0
BBX 7 12 0 0
BITMAP
10
18
24
00
7E
4C
08
18
30
22
62
FE
ENDCHAR
STARTCHAR uni1E92
ENCODING 7826
SWIDTH 594 0
DWIDTH 10 0
BBX 9 14 0 -3
BITMAP
7F80
4300
4300
0600
0C00
0C00
1800
3000
3080
6080
FF80
0000
0800
0C00
ENDCHAR
STARTCHAR uni1E93
ENCODING 7827
SWIDTH 458 0
DWIDTH 7 0
BBX 7 11 0 -3
BITMAP
7E
4C
08
18
30
22
62
FE
00
10
18
ENDCHAR
STARTCHAR uni1E94
ENCODING 7828
SWIDTH 594 0
DWIDTH 10 0
BBX 9 13 0 -2
BITMAP
7F80
4300
4300
0600
0C00
0C00
1800
3000
3080
6080
FF80
0000
3E00
ENDCHAR
STARTCHAR uni1E95
ENCODING 7829
SWIDTH 458 0
DWIDTH 7 0
BBX 7 10 0 -2
BITMAP
7E
4C
08
18
30
22
62
FE
00
7C
ENDCHAR
STARTCHAR uni1E96
ENCODING 7830
SWIDTH 577 0
DWIDTH 9 0
BBX 9 13 0 -2
BITMAP
E000
2000
2000
2E00
3300
2300
2300
2300
2300
2300
F780
0000
3E00
ENDCHAR
STARTCHAR uni1E97
ENCODING 7831
SWIDTH 315 0
DWIDTH 5 0
BBX 5 13 0 0
BITMAP
C8
D8
00
20
20
78
60
60
60
60
60
60
38
ENDCHAR
STARTCHAR uni1E98
ENCODING 7832
SWIDTH 749 0
DWIDTH 12 0
BBX 12 13 0 0
BITMAP
0600
0900
0900
0600
0000
EF70
4620
6220
2740
3540
1940
1980
1080
ENDCHAR
STARTCHAR uni1E99
ENCODING 7833
SWIDTH 483 0
DWIDTH 8 0
BBX 8 17 0 -4
BITMAP
18
24
24
18
00
E7
42
62
24
34
14
18
18
10
10
E0
E0
ENDCHAR
STARTCHAR uni1E9A
ENCODING 7834
SWIDTH 480 0
DWIDTH 8 0
BBX 7 12 1 0
BITMAP
20
10
20
00
70
88
88
18
68
88
88
FE
ENDCHAR
STARTCHAR uni1E9B
ENCODING 7835
SWIDTH 285 0
DWIDTH 5 0
BBX 6 15 0 0
BITMAP
20
60
00
00
1C
24
20
E0
20
20
20
20
20
20
F8
ENDCHAR
STARTCHAR uni1E9C
ENCODING 7836
SWIDTH 300 0
DWIDTH 5 0
BBX 6 11 0 0
BITMAP
1C
24
20
60
38
20
E0
20
20
20
F8
ENDCHAR
STARTCHAR uni1E9D
ENCODING 7837
SWIDTH 285 0
DWIDTH 5 0
BBX 6 11 0 0
BITMAP
3C
F0
20
E0
20
20
20
20
20
20
F8
ENDCHAR
STARTCHAR uni1E9E
ENCODING 7838
SWIDTH 684 0
DWIDTH 11 0
BBX 10 11 0 0
BITMAP
0FC0
1080
3180
2300
2200
2180
20C0
2040
2040
2CC0
E780
ENDCHAR
STARTCHAR uni1E9F
ENCODING 7839
SWIDTH 517 0
DWIDTH 8 0
BBX 7 12 1 0
BITMAP
38
44
40
60
38
4C
84
86
86
86
C4
78
ENDCHAR
STARTCHAR uni1EA0
ENCODING 7840
SWIDTH 718 0
DWIDTH 11 0
BBX 11 14 0 -3
BITMAP
0400
0600
0E00
0A00
1300
1100
1180
3F80
20C0
40C0
E1E0
0000
0400
0C00
ENDCHAR
STARTCHAR uni1EA1
ENCODING 7841
SWIDTH 480 0
DWIDTH 8 0
BBX 7 11 1 -3
BITMAP
70
88
88
18
68
88
88
FE
00
20
30
ENDCHAR
STARTCHAR uni1EA2
ENCODING 7842
SWIDTH 718 0
DWIDTH 11 0
BBX 11 15 0 0
BITMAP
0600
0A00
0200
0400
0400
0600
0E00
0A00
1300
1100
1180
3F80
20C0
40C0
E1E0
ENDCHAR
STARTCHAR uni1EA3
ENCODING 7843
SWIDTH 480 0
DWIDTH 8 0
BBX 7 13 1 0
BITMAP
30
50
10
20
00
70
88
88
18
68
88
88
FE
ENDCHAR
STARTCHAR uni1EA4
ENCODING 7844
SWIDTH 718 0
DWIDTH 11 0
BBX 11 14 0 0
BITMAP
00C0
0680
1900
0400
0600
0E00
0A00
1300
1100
1180
3F80
20C0
40C0
E1E0
ENDCHAR
STARTCHAR uni1EA5
ENCODING 7845
SWIDTH 480 0
DWIDTH 8 0
BBX 7 13 1 0
BITMAP
06
04
38
50
88
70
88
88
18
68
88
88
FE
ENDCHAR
STARTCHAR uni1EA6
ENCODING 7846
SWIDTH 718 0
DWIDTH 11 0
BBX 11 14 0 0
BITMAP
0300
0680
1900
0400
0600
0E00
0A00
1300
1100
1180
3F80
20C0
40C0
E1E0
ENDCHAR
STARTCHAR uni1EA7
ENCODING 7847
SWIDTH 480 0
DWIDTH 8 0
BBX 7 13 1 0
BITMAP
18
08
34
C8
00
70
88
88
18
68
88
88
FE
ENDCHAR
STARTCHAR uni1EA8
ENCODING 7848
SWIDTH 718 0
DWIDTH 11 0
BBX 11 17 0 0
BITMAP
0180
0280
0080
0700
1900
0000
0400
0600
0E00
0A00
1300
1100
1180
3F80
20C0
40C0
E1E0
ENDCHAR
STARTCHAR uni1EA9
ENCODING 7849
SWIDTH 480 0
DWIDTH 8 0
BBX 7 14 1 0
BITMAP
0C
14
04
38
58
80
70
88
88
18
68
88
88
FE
ENDCHAR
STARTCHAR uni1EAA
ENCODING 7850
SWIDTH 718 0
DWIDTH 11 0
BBX 11 15 0 0
BITMAP
0D00
1200
0600
1900
0400
0600
0E00
0A00
1300
1100
1180
3F80
20C0
40C0
E1E0
ENDCHAR
STARTCHAR uni1EAB
ENCODING 7851
SWIDTH 480 0
DWIDTH 8 0
BBX 7 13 1 0
BITMAP
F8
00
30
50
C8
70
88
88
18
68
88
88
FE
ENDCHAR
STARTCHAR uni1EAC
ENCODING 7852
SWIDTH 718 0
DWIDTH 11 0
BBX 11 18 0 -3
BITMAP
0400
0E00
1900
0000
0400
0600
0E00
0A00
1300
1100
1180
3F80
20C0
40C0
E1E0
0000
0400
0C00
ENDCHAR
STARTCHAR uni1EAD
ENCODING 7853
SWIDTH 480 0
DWIDTH 8 0
BBX 7 15 1 -3
BITMAP
20
70
C8
00
70
88
88
18
68
88
88
FE
00
20
30
ENDCHAR
STARTCHAR uni1EAE
ENCODING 7854
SWIDTH 718 0
DWIDTH 11 0
BBX 11 15 0 0
BITMAP
0600
1500
0E00
0000
0400
0600
0E00
0A00
1300
1100
1180
3F80
20C0
40C0
E1E0
ENDCHAR
STARTCHAR uni1EAF
ENCODING 7855
SWIDTH 480 0
DWIDTH 8 0
BBX 7 13 1 0
BITMAP
10
10
A8
70
00
70
88
88
18
68
88
88
FE
ENDCHAR
STARTCHAR uni1EB0
ENCODING 7856
SWIDTH 718 0
DWIDTH 11 0
BBX 11 15 0 0
BITMAP
0C00
1300
0E00
0000
0400
0600
0E00
0A00
1300
1100
1180
3F80
20C0
40C0
E1E0
ENDCHAR
STARTCHAR uni1EB1
ENCODING 7857
SWIDTH 480 0
DWIDTH 8 0
BBX 7 13 1 0
BITMAP
40
20
98
70
00
70
88
88
18
68
88
88
FE
ENDCHAR
STARTCHAR uni1EB2
ENCODING 7858
SWIDTH 718 0
DWIDTH 11 0
BBX 11 17 0 0
BITMAP
0600
0A00
0200
1500
0E00
0000
0400
0600
0E00
0A00
1300
1100
1180
3F80
20C0
40C0
E1E0
ENDCHAR
STARTCHAR uni1EB3
ENCODING 7859
SWIDTH 480 0
DWIDTH 8 0
BBX 7 14 1 0
BITMAP
30
50
10
A8
70
00
70
88
88
18
68
88
88
FE
ENDCHAR
STARTCHAR uni1EB4
ENCODING 7860
SWIDTH 718 0
DWIDTH 11 0
BBX 11 16 0 0
BITMAP
0F00
1100
1100
0E00
0000
0400
0600
0E00
0A00
1300
1100
1180
3F80
20C0
40C0
E1E0
ENDCHAR
STARTCHAR uni1EB5
ENCODING 7861
SWIDTH 480 0
DWIDTH 8 0
BBX 7 13 1 0
BITMAP
F8
00
88
88
70
70
88
88
18
68
88
88
FE
ENDCHAR
STARTCHAR uni1EB6
ENCODING 7862
SWIDTH 718 0
DWIDTH 11 0
BBX 11 18 0 -3
BITMAP
1100
1100
0E00
0000
0400
0600
0E00
0A00
1300
1100
1180
3F80
20C0
40C0
E1E0
0000
0400
0C00
ENDCHAR
STARTCHAR uni1EB7
ENCODING 7863
SWIDTH 480 0
DWIDTH 8 0
BBX 7 15 1 -3
BITMAP
88
88
70
00
70
88
88
18
68
88
88
FE
00
20
30
ENDCHAR
STARTCHAR uni1EB8
ENCODING 7864
SWIDTH 626 0
DWIDTH 10 0
BBX 9 14 1 -3
BITMAP
FF00
6100
6000
6200
6200
7E00
6200
6000
6080
6100
FF00
0000
1800
1800
ENDCHAR
STARTCHAR uni1EB9
ENCODING 7865
SWIDTH 464 0
DWIDTH 7 0
BBX 6 11 1 -3
BITMAP
78
88
8C
FC
80
80
C4
78
00
30
30
ENDCHAR
STARTCHAR uni1EBA
ENCODING 7866
SWIDTH 626 0
DWIDTH 10 0
BBX 9 15 1 0
BITMAP
1800
1400
0400
0800
FF00
6100
6000
6200
6200
7E00
6200
6000
6080
6100
FF00
ENDCHAR
STARTCHAR uni1EBB
ENCODING 7867
SWIDTH 464 0
DWIDTH 7 0
BBX 6 13 1 0
BITMAP
30
28
10
20
00
78
88
8C
FC
80
80
C4
78
ENDCHAR
STARTCHAR uni1EBC
ENCODING 7868
SWIDTH 626 0
DWIDTH 10 0
BBX 9 14 1 0
BITMAP
3200
4C00
0000
FF00
6100
6000
6200
6200
7E00
6200
6000
6080
6100
FF00
ENDCHAR
STARTCHAR uni1EBD
ENCODING 7869
SWIDTH 464 0
DWIDTH 7 0
BBX 6 11 1 0
BITMAP
64
98
00
78
88
8C
FC
80
80
C4
78
ENDCHAR
STARTCHAR uni1EBE
ENCODING 7870
SWIDTH 626 0
DWIDTH 10 0
BBX 9 14 1 0
BITMAP
0180
1A00
2400
FF00
6100
6000
6200
6200
7E00
6200
6000
6080
6100
FF00
ENDCHAR
STARTCHAR uni1EBF
ENCODING 7871
SWIDTH 464 0
DWIDTH 7 0
BBX 7 13 1 0
BITMAP
06
04
38
50
08
78
88
8C
FC
80
80
C4
78
ENDCHAR
STARTCHAR uni1EC0
ENCODING 7872
SWIDTH 626 0
DWIDTH 10 0
BBX 9 14 1 0
BITMAP
0600
1900
2400
FF00
6100
6000
6200
6200
7E00
6200
6000
6080
6100
FF00
ENDCHAR
STARTCHAR uni1EC1
ENCODING 7873
SWIDTH 464 0
DWIDTH 7 0
BBX 6 13 1 0
BITMAP
18
08
34
48
00
78
88
8C
FC
80
80
C4
78
ENDCHAR
STARTCHAR uni1EC2
ENCODING 7874
SWIDTH 626 0
DWIDTH 10 0
BBX 9 17 1 0
BITMAP
0600
0500
0100
1A00
2400
0000
FF00
6100
6000
6200
6200
7E00
6200
6000
6080
6100
FF00
ENDCHAR
STARTCHAR uni1EC3
ENCODING 7875
SWIDTH 464 0
DWIDTH 7 0
BBX 6 14 1 0
BITMAP
0C
14
04
38
48
00
78
88
8C
FC
80
80
C4
78
ENDCHAR
STARTCHAR uni1EC4
ENCODING 7876
SWIDTH 626 0
DWIDTH 10 0
BBX 9 15 1 0
BITMAP
3200
4C00
1800
2400
FF00
6100
6000
6200
6200
7E00
6200
6000
6080
6100
FF00
ENDCHAR
STARTCHAR uni1EC5
ENCODING 7877
SWIDTH 464 0
DWIDTH 7 0
BBX 6 13 1 0
BITMAP
F8
00
30
70
48
78
88
8C
FC
80
80
C4
78
ENDCHAR
STARTCHAR uni1EC6
ENCODING 7878
SWIDTH 626 0
DWIDTH 10 0
BBX 9 18 1 -3
BITMAP
0800
1800
2400
0000
FF00
6100
6000
6200
6200
7E00
6200
6000
6080
6100
FF00
0000
1800
1800
ENDCHAR
STARTCHAR uni1EC7
ENCODING 7879
SWIDTH 464 0
DWIDTH 7 0
BBX 6 15 1 -3
BITMAP
20
30
48
00
78
88
8C
FC
80
80
C4
78
00
30
30
ENDCHAR
STARTCHAR uni1EC8
ENCODING 7880
SWIDTH 357 0
DWIDTH 6 0
BBX 4 15 1 0
BITMAP
60
50
20
40
F0
60
60
60
60
60
60
60
60
60
F0
ENDCHAR
STARTCHAR uni1EC9
ENCODING 7881
SWIDTH 285 0
DWIDTH 5 0
BBX 3 13 1 0
BITMAP
C0
A0
20
C0
00
C0
40
40
40
40
40
40
E0
ENDCHAR
STARTCHAR uni1ECA
ENCODING 7882
SWIDTH 357 0
DWIDTH 6 0
BBX 4 14 1 -3
BITMAP
F0
60
60
60
60
60
60
60
60
60
F0
00
60
60
ENDCHAR
STARTCHAR uni1ECB
ENCODING 7883
SWIDTH 285 0
DWIDTH 5 0
BBX 3 14 1 -3
BITMAP
C0
40
00
C0
40
40
40
40
40
40
E0
00
40
C0
ENDCHAR
STARTCHAR uni1ECC
ENCODING 7884
SWIDTH 738 0
DWIDTH 12 0
BBX 10 14 1 -3
BITMAP
1E00
6180
C080
C0C0
C0C0
C0C0
C0C0
C0C0
C080
6180
1E00
0000
0C00
0C00
ENDCHAR
STARTCHAR uni1ECD
ENCODING 7885
SWIDTH 514 0
DWIDTH 8 0
BBX 7 11 1 -3
BITMAP
78
C4
86
86
86
84
C4
78
00
30
30
ENDCHAR
STARTCHAR uni1ECE
ENCODING 7886
SWIDTH 738 0
DWIDTH 12 0
BBX 10 15 1 0
BITMAP
0C00
0A00
0400
0800
1E00
6180
C080
C0C0
C0C0
C0C0
C0C0
C0C0
C080
6180
1E00
ENDCHAR
STARTCHAR uni1ECF
ENCODING 7887
SWIDTH 514 0
DWIDTH 8 0
BBX 7 13 1 0
BITMAP
30
28
08
10
00
78
C4
86
86
86
84
C4
78
ENDCHAR
STARTCHAR uni1ED0
ENCODING 7888
SWIDTH 738 0
DWIDTH 12 0
BBX 10 14 1 0
BITMAP
0080
0D00
1200
1E00
6180
C080
C0C0
C0C0
C0C0
C0C0
C0C0
C080
6180
1E00
ENDCHAR
STARTCHAR uni1ED1
ENCODING 7889
SWIDTH 514 0
DWIDTH 8 0
BBX 7 13 1 0
BITMAP
02
04
34
28
40
78
C4
86
86
86
84
C4
78
ENDCHAR
STARTCHAR uni1ED2
ENCODING 7890
SWIDTH 738 0
DWIDTH 12 0
BBX 10 14 1 0
BITMAP
0200
0D80
1200
1E00
6180
C080
C0C0
C0C0
C0C0
C0C0
C0C0
C080
6180
1E00
ENDCHAR
STARTCHAR uni1ED3
ENCODING 7891
SWIDTH 514 0
DWIDTH 8 0
BBX 7 13 1 0
BITMAP
08
0C
34
48
00
78
C4
86
86
86
84
C4
78
ENDCHAR
STARTCHAR uni1ED4
ENCODING 7892
SWIDTH 738 0
DWIDTH 12 0
BBX 10 17 1 0
BITMAP
0300
0280
0100
0E00
1200
0000
1E00
6180
C080
C0C0
C0C0
C0C0
C0C0
C0C0
C080
6180
1E00
ENDCHAR
STARTCHAR uni1ED5
ENCODING 7893
SWIDTH 514 0
DWIDTH 8 0
BBX 7 14 1 0
BITMAP
0C
0A
02
34
48
00
78
C4
86
86
86
84
C4
78
ENDCHAR
STARTCHAR uni1ED6
ENCODING 7894
SWIDTH 738 0
DWIDTH 12 0
BBX 10 15 1 0
BITMAP
1900
2600
0C00
1200
1E00
6180
C080
C0C0
C0C0
C0C0
C0C0
C0C0
C080
6180
1E00
ENDCHAR
STARTCHAR uni1ED7
ENCODING 7895
SWIDTH 514 0
DWIDTH 8 0
BBX 7 13 1 0
BITMAP
7C
00
30
38
48
78
C4
86
86
86
84
C4
78
ENDCHAR
STARTCHAR uni1ED8
ENCODING 7896
SWIDTH 738 0
DWIDTH 12 0
BBX 10 18 1 -3
BITMAP
0800
0C00
1200
0000
1E00
6180
C080
C0C0
C0C0
C0C0
C0C0
C0C0
C080
6180
1E00
0000
0C00
0C00
ENDCHAR
STARTCHAR uni1ED9
ENCODING 7897
SWIDTH 514 0
DWIDTH 8 0
BBX 7 15 1 -3
BITMAP
10
30
48
00
78
C4
86
86
86
84
C4
78
00
30
30
ENDCHAR
STARTCHAR uni1EDA
ENCODING 7898
SWIDTH 737 0
DWIDTH 12 0
BBX 10 14 1 0
BITMAP
0640
1840
0040
1F80
6180
C080
C0C0
C0C0
80C0
C0C0
C0C0
C080
6180
3E00
ENDCHAR
STARTCHAR uni1EDB
ENCODING 7899
SWIDTH 516 0
DWIDTH 8 0
BBX 7 12 1 0
BITMAP
18
12
22
02
7C
C4
84
86
86
84
C4
78
ENDCHAR
STARTCHAR uni1EDC
ENCODING 7900
SWIDTH 737 0
DWIDTH 12 0
BBX 10 14 1 0
BITMAP
1840
0440
0040
1F80
6180
C080
C0C0
C0C0
80C0
C0C0
C0C0
C080
6180
3E00
ENDCHAR
STARTCHAR uni1EDD
ENCODING 7901
SWIDTH 516 0
DWIDTH 8 0
BBX 7 12 1 0
BITMAP
60
22
12
02
7C
C4
84
86
86
84
C4
78
ENDCHAR
STARTCHAR uni1EDE
ENCODING 7902
SWIDTH 737 0
DWIDTH 12 0
BBX 10 15 1 0
BITMAP
0C00
0A40
0440
0840
1F80
6180
C080
C0C0
C0C0
80C0
C0C0
C0C0
C080
6180
3E00
ENDCHAR
STARTCHAR uni1EDF
ENCODING 7903
SWIDTH 516 0
DWIDTH 8 0
BBX 7 13 1 0
BITMAP
30
28
0A
12
02
7C
C4
84
86
86
84
C4
78
ENDCHAR
STARTCHAR uni1EE0
ENCODING 7904
SWIDTH 737 0
DWIDTH 12 0
BBX 10 14 1 0
BITMAP
1940
2640
0040
1F80
6180
C080
C0C0
C0C0
80C0
C0C0
C0C0
C080
6180
3E00
ENDCHAR
STARTCHAR uni1EE1
ENCODING 7905
SWIDTH 516 0
DWIDTH 8 0
BBX 7 11 1 0
BITMAP
66
9A
02
7C
C4
84
86
86
84
C4
78
ENDCHAR
STARTCHAR uni1EE2
ENCODING 7906
SWIDTH 737 0
DWIDTH 12 0
BBX 10 17 1 -3
BITMAP
0040
0040
0040
1F80
6180
C080
C0C0
C0C0
80C0
C0C0
C0C0
C080
6180
3E00
0000
0C00
0C00
ENDCHAR
STARTCHAR uni1EE3
ENCODING 7907
SWIDTH 516 0
DWIDTH 8 0
BBX 7 14 1 -3
BITMAP
02
02
02
7C
C4
84
86
86
84
C4
78
00
30
30
ENDCHAR
STARTCHAR uni1EE4
ENCODING 7908
SWIDTH 752 0
DWIDTH 12 0
BBX 12 14 0 -3
BITMAP
F8F0
2040
2040
2040
2040
2040
2040
2040
3040
3040
0F80
0000
0600
0600
ENDCHAR
STARTCHAR uni1EE5
ENCODING 7909
SWIDTH 570 0
DWIDTH 9 0
BBX 9 11 0 -3
BITMAP
E700
6300
6300
6300
6300
6300
2300
3F80
0000
0800
1800
ENDCHAR
STARTCHAR uni1EE6
ENCODING 7910
SWIDTH 752 0
DWIDTH 12 0
BBX 12 15 0 0
BITMAP
0700
0500
0100
0200
F8F0
2040
2040
2040
2040
2040
2040
2040
3040
3040
0F80
ENDCHAR
STARTCHAR uni1EE7
ENCODING 7911
SWIDTH 570 0
DWIDTH 9 0
BBX 9 13 0 0
BITMAP
0C00
1400
0400
0800
0000
E700
6300
6300
6300
6300
6300
2300
3F80
ENDCHAR
STARTCHAR uni1EE8
ENCODING 7912
SWIDTH 762 0
DWIDTH 12 0
BBX 13 14 0 0
BITMAP
0308
0408
0008
F8F0
2040
2040
2040
2040
2040
2040
2040
3040
3040
0F80
ENDCHAR
STARTCHAR uni1EE9
ENCODING 7913
SWIDTH 574 0
DWIDTH 9 0
BBX 9 12 0 0
BITMAP
0400
0880
1880
0080
E780
6300
6300
6300
6300
6300
2300
3F80
ENDCHAR
STARTCHAR uni1EEA
ENCODING 7914
SWIDTH 762 0
DWIDTH 12 0
BBX 13 14 0 0
BITMAP
0608
0308
0008
F8F0
2040
2040
2040
2040
2040
2040
2040
3040
3040
0F80
ENDCHAR
STARTCHAR uni1EEB
ENCODING 7915
SWIDTH 574 0
DWIDTH 9 0
BBX 9 12 0 0
BITMAP
1000
1080
0880
0080
E780
6300
6300
6300
6300
6300
2300
3F80
ENDCHAR
STARTCHAR uni1EEC
ENCODING 7916
SWIDTH 762 0
DWIDTH 12 0
BBX 13 15 0 0
BITMAP
0700
0508
0108
0208
F8F0
2040
2040
2040
2040
2040
2040
2040
3040
3040
0F80
ENDCHAR
STARTCHAR uni1EED
ENCODING 7917
SWIDTH 574 0
DWIDTH 9 0
BBX 9 13 0 0
BITMAP
1800
1400
0480
0880
0080
E780
6300
6300
6300
6300
6300
2300
3F80
ENDCHAR
STARTCHAR uni1EEE
ENCODING 7918
SWIDTH 762 0
DWIDTH 12 0
BBX 13 14 0 0
BITMAP
0688
0B08
0008
F8F0
2040
2040
2040
2040
2040
2040
2040
3040
3040
0F80
ENDCHAR
STARTCHAR uni1EEF
ENCODING 7919
SWIDTH 574 0
DWIDTH 9 0
BBX 9 11 0 0
BITMAP
3A80
2C80
0080
E780
6300
6300
6300
6300
6300
2300
3F80
ENDCHAR
STARTCHAR uni1EF0
ENCODING 7920
SWIDTH 762 0
DWIDTH 12 0
BBX 13 17 0 -3
BITMAP
0008
0008
0008
F8F0
2040
2040
2040
2040
2040
2040
2040
3040
3040
0F80
0000
0600
0600
ENDCHAR
STARTCHAR uni1EF1
ENCODING 7921
SWIDTH 574 0
DWIDTH 9 0
BBX 9 14 0 -3
BITMAP
0080
0080
0080
E780
6300
6300
6300
6300
6300
2300
3F80
0000
0800
1800
ENDCHAR
STARTCHAR Ygrave
ENCODING 7922
SWIDTH 647 0
DWIDTH 10 0
BBX 10 14 0 0
BITMAP
0C00
0600
0000
F1C0
6080
3100
1100
1A00
0C00
0C00
0C00
0C00
0C00
1F00
ENDCHAR
STARTCHAR ygrave
ENCODING 7923
SWIDTH 483 0
DWIDTH 8 0
BBX 8 16 0 -4
BITMAP
30
10
08
00
E7
42
62
24
34
14
18
18
10
10
E0
E0
ENDCHAR
STARTCHAR uni1EF4
ENCODING 7924
SWIDTH 647 0
DWIDTH 10 0
BBX 10 14 0 -3
BITMAP
F1C0
6080
3100
1100
1A00
0C00
0C00
0C00
0C00
0C00
1F00
0000
0C00
0C00
ENDCHAR
STARTCHAR uni1EF5
ENCODING 7925
SWIDTH 483 0
DWIDTH 8 0
BBX 8 12 0 -4
BITMAP
E7
42
62
24
34
14
18
18
10
14
EC
E0
ENDCHAR
STARTCHAR uni1EF6
ENCODING 7926
SWIDTH 647 0
DWIDTH 10 0
BBX 10 15 0 0
BITMAP
0E00
0A00
0200
0400
F1C0
6080
3100
1100
1A00
0C00
0C00
0C00
0C00
0C00
1F00
ENDCHAR
STARTCHAR uni1EF7
ENCODING 7927
SWIDTH 483 0
DWIDTH 8 0
BBX 8 17 0 -4
BITMAP
18
14
04
08
00
E7
42
62
24
34
14
18
18
10
10
E0
E0
ENDCHAR
STARTCHAR uni1EF8
ENCODING 7928
SWIDTH 647 0
DWIDTH 10 0
BBX 10 14 0 0
BITMAP
0D00
1600
0000
F1C0
6080
3100
1100
1A00
0C00
0C00
0C00
0C00
0C00
1F00
ENDCHAR
STARTCHAR uni1EF9
ENCODING 7929
SWIDTH 483 0
DWIDTH 8 0
BBX 8 15 0 -4
BITMAP
32
4C
00
E7
42
62
24
34
14
18
18
10
10
E0
E0
ENDCHAR
STARTCHAR uni2000
ENCODING 8192
SWIDTH 500 0
DWIDTH 8 0
BBX 1 1 0 0
BITMAP
00
ENDCHAR
STARTCHAR uni2001
ENCODING 8193
SWIDTH 1000 0
DWIDTH 16 0
BBX 1 1 0 0
BITMAP
00
ENDCHAR
STARTCHAR uni2002
ENCODING 8194
SWIDTH 500 0
DWIDTH 8 0
BBX 1 1 0 0
BITMAP
00
ENDCHAR
STARTCHAR uni2003
ENCODING 8195
SWIDTH 1000 0
DWIDTH 16 0
BBX 1 1 0 0
BITMAP
00
ENDCHAR
STARTCHAR uni2004
ENCODING 8196
SWIDTH 334 0
DWIDTH 5 0
BBX 1 1 0 0
BITMAP
00
ENDCHAR
STARTCHAR uni2005
ENCODING 8197
SWIDTH 250 0
DWIDTH 4 0
BBX 1 1 0 0
BITMAP
00
ENDCHAR
STARTCHAR uni2006
ENCODING 8198
SWIDTH 167 0
DWIDTH 3 0
BBX 1 1 0 0
BITMAP
00
ENDCHAR
STARTCHAR uni2007
ENCODING 8199
SWIDTH 560 0
DWIDTH 9 0
BBX 1 1 0 0
BITMAP
00
ENDCHAR
STARTCHAR uni2008
ENCODING 8200
SWIDTH 297 0
DWIDTH 5 0
BBX 1 1 0 0
BITMAP
00
ENDCHAR
STARTCHAR uni2009
ENCODING 8201
SWIDTH 125 0
DWIDTH 2 0
BBX 1 1 0 0
BITMAP
00
ENDCHAR
STARTCHAR uni200A
ENCODING 8202
SWIDTH 63 0
DWIDTH 1 0
BBX 1 1 0 0
BITMAP
00
ENDCHAR
STARTCHAR uni200B
ENCODING 8203
SWIDTH 0 0
DWIDTH 0 0
BBX 1 1 0 0
BITMAP
00
ENDCHAR
STARTCHAR uni200C
ENCODING 8204
SWIDTH 0 0
DWIDTH 0 0
BBX 1 17 0 -4
BITMAP
80
80
80
80
80
80
80
80
80
80
80
80
80
80
80
80
80
ENDCHAR
STARTCHAR uni200D
ENCODING 8205
SWIDTH 0 0
DWIDTH 0 0
BBX 4 19 -2 -4
BITMAP
90
60
60
D0
40
40
40
40
40
40
40
40
40
40
40
40
40
40
40
ENDCHAR
STARTCHAR uni2010
ENCODING 8208
SWIDTH 315 0
DWIDTH 5 0
BBX 3 1 1 4
BITMAP
E0
ENDCHAR
STARTCHAR uni2011
ENCODING 8209
SWIDTH 315 0
DWIDTH 5 0
BBX 3 1 1 4
BITMAP
E0
ENDCHAR
STARTCHAR figuredash
ENCODING 8210
SWIDTH 495 0
DWIDTH 8 0
BBX 7 1 0 4
BITMAP
FE
ENDCHAR
STARTCHAR endash
ENCODING 8211
SWIDTH 500 0
DWIDTH 8 0
BBX 8 1 0 4
BITMAP
FF
ENDCHAR
STARTCHAR emdash
ENCODING 8212
SWIDTH 1000 0
DWIDTH 16 0
BBX 16 1 0 4
BITMAP
FFFF
ENDCHAR
STARTCHAR uni2015
ENCODING 8213
SWIDTH 940 0
DWIDTH 15 0
BBX 15 1 0 4
BITMAP
FFFE
ENDCHAR
STARTCHAR uni2016
ENCODING 8214
SWIDTH 427 0
DWIDTH 7 0
BBX 3 15 2 -4
BITMAP
A0
A0
A0
A0
A0
A0
A0
A0
A0
A0
A0
A0
A0
A0
A0
ENDCHAR
STARTCHAR underscoredbl
ENCODING 8215
SWIDTH 512 0
DWIDTH 8 0
BBX 8 3 0 -4
BITMAP
FF
00
FF
ENDCHAR
STARTCHAR quoteleft
ENCODING 8216
SWIDTH 245 0
DWIDTH 4 0
BBX 2 4 1 8
BITMAP
40
80
C0
C0
ENDCHAR
STARTCHAR quoteright
ENCODING 8217
SWIDTH 245 0
DWIDTH 4 0
BBX 2 4 1 7
BITMAP
C0
C0
40
80
ENDCHAR
STARTCHAR quotesinglbase
ENCODING 8218
SWIDTH 243 0
DWIDTH 4 0
BBX 2 4 1 -2
BITMAP
C0
C0
40
80
ENDCHAR
STARTCHAR quotereversed
ENCODING 8219
SWIDTH 243 0
DWIDTH 4 0
BBX 2 4 1 7
BITMAP
C0
C0
80
40
ENDCHAR
STARTCHAR quotedblleft
ENCODING 8220
SWIDTH 435 0
DWIDTH 7 0
BBX 5 4 1 8
BITMAP
48
90
D8
D8
ENDCHAR
STARTCHAR quotedblright
ENCODING 8221
SWIDTH 434 0
DWIDTH 7 0
BBX 5 4 1 7
BITMAP
D8
D8
48
90
ENDCHAR
STARTCHAR quotedblbase
ENCODING 8222
SWIDTH 433 0
DWIDTH 7 0
BBX 5 4 1 -2
BITMAP
D8
D8
48
90
ENDCHAR
STARTCHAR uni201F
ENCODING 8223
SWIDTH 434 0
DWIDTH 7 0
BBX 5 4 1 7
BITMAP
D8
D8
90
48
ENDCHAR
STARTCHAR dagger
ENCODING 8224
SWIDTH 512 0
DWIDTH 8 0
BBX 6 14 1 -3
BITMAP
30
10
10
FC
10
10
30
30
10
10
10
10
10
10
ENDCHAR
STARTCHAR daggerdbl
ENCODING 8225
SWIDTH 512 0
DWIDTH 8 0
BBX 6 13 1 -2
BITMAP
30
10
10
FC
10
10
30
10
10
FC
10
10
30
ENDCHAR
STARTCHAR bullet
ENCODING 8226
SWIDTH 457 0
DWIDTH 7 0
BBX 4 4 2 2
BITMAP
E0
F0
F0
E0
ENDCHAR
STARTCHAR twodotenleader
ENCODING 8229
SWIDTH 500 0
DWIDTH 8 0
BBX 6 2 1 0
BITMAP
84
CC
ENDCHAR
STARTCHAR ellipsis
ENCODING 8230
SWIDTH 887 0
DWIDTH 14 0
BBX 11 2 2 0
BITMAP
8C40
CC60
ENDCHAR
STARTCHAR uni202F
ENCODING 8239
SWIDTH 125 0
DWIDTH 2 0
BBX 1 1 0 0
BITMAP
00
ENDCHAR
STARTCHAR perthousand
ENCODING 8240
SWIDTH 1017 0
DWIDTH 16 0
BBX 15 11 1 0
BITMAP
7100
9F00
9200
9400
9400
EB8C
0E92
1462
24A2
24A4
4318
ENDCHAR
STARTCHAR uni2031
ENCODING 8241
SWIDTH 1342 0
DWIDTH 21 0
BBX 20 11 1 0
BITMAP
710000
9F0000
920000
940000
940000
EB8C60
0E9290
146290
24A310
24A5A0
4318C0
ENDCHAR
STARTCHAR minute
ENCODING 8242
SWIDTH 296 0
DWIDTH 5 0
BBX 3 5 1 6
BITMAP
60
40
40
80
80
ENDCHAR
STARTCHAR second
ENCODING 8243
SWIDTH 436 0
DWIDTH 7 0
BBX 5 5 1 6
BITMAP
68
58
50
90
A0
ENDCHAR
STARTCHAR uni2034
ENCODING 8244
SWIDTH 576 0
DWIDTH 9 0
BBX 7 5 1 6
BITMAP
6A
5E
54
94
A8
ENDCHAR
STARTCHAR uni2035
ENCODING 8245
SWIDTH 296 0
DWIDTH 5 0
BBX 3 5 1 6
BITMAP
80
C0
40
40
20
ENDCHAR
STARTCHAR uni2036
ENCODING 8246
SWIDTH 436 0
DWIDTH 7 0
BBX 5 5 1 6
BITMAP
B0
D0
50
48
28
ENDCHAR
STARTCHAR uni2037
ENCODING 8247
SWIDTH 576 0
DWIDTH 9 0
BBX 7 5 1 6
BITMAP
B4
D4
56
4A
2A
ENDCHAR
STARTCHAR uni2038
ENCODING 8248
SWIDTH 523 0
DWIDTH 8 0
BBX 7 5 1 -3
BITMAP
10
30
48
84
82
ENDCHAR
STARTCHAR guilsinglleft
ENCODING 8249
SWIDTH 307 0
DWIDTH 5 0
BBX 3 6 1 1
BITMAP
20
40
80
80
40
20
ENDCHAR
STARTCHAR guilsinglright
ENCODING 8250
SWIDTH 307 0
DWIDTH 5 0
BBX 3 6 1 1
BITMAP
80
40
20
20
40
80
ENDCHAR
STARTCHAR uni203B
ENCODING 8251
SWIDTH 701 0
DWIDTH 11 0
BBX 9 9 1 0
BITMAP
8C80
6900
3200
DD80
CD80
1600
2200
4900
8C80
ENDCHAR
STARTCHAR exclamdbl
ENCODING 8252
SWIDTH 565 0
DWIDTH 9 0
BBX 7 11 1 0
BITMAP
46
C6
C6
44
44
44
44
44
00
C6
C6
ENDCHAR
STARTCHAR uni203E
ENCODING 8254
SWIDTH 512 0
DWIDTH 8 0
BBX 8 1 0 13
BITMAP
FF
ENDCHAR
STARTCHAR uni2040
ENCODING 8256
SWIDTH 810 0
DWIDTH 13 0
BBX 11 3 1 9
BITMAP
1F00
60C0
8020
ENDCHAR
STARTCHAR uni2043
ENCODING 8259
SWIDTH 352 0
DWIDTH 6 0
BBX 4 3 1 3
BITMAP
F0
F0
F0
ENDCHAR
STARTCHAR fraction
ENCODING 8260
SWIDTH 205 0
DWIDTH 3 0
BBX 7 11 -2 0
BITMAP
02
02
04
08
08
10
10
20
40
40
80
ENDCHAR
STARTCHAR uni2047
ENCODING 8263
SWIDTH 822 0
DWIDTH 13 0
BBX 13 11 0 0
BITMAP
78F0
4518
C598
0418
0810
0820
1020
1040
0000
1060
3060
ENDCHAR
STARTCHAR uni204B
ENCODING 8267
SWIDTH 605 0
DWIDTH 10 0
BBX 8 13 1 -2
BITMAP
FE
5A
5B
5B
5B
5A
5C
58
58
58
58
58
DC
ENDCHAR
STARTCHAR uni204C
ENCODING 8268
SWIDTH 479 0
DWIDTH 8 0
BBX 6 5 1 2
BITMAP
7C
E8
E8
68
7C
ENDCHAR
STARTCHAR uni204D
ENCODING 8269
SWIDTH 479 0
DWIDTH 8 0
BBX 5 5 1 2
BITMAP
F8
58
58
58
F8
ENDCHAR
STARTCHAR uni204E
ENCODING 8270
SWIDTH 410 0
DWIDTH 7 0
BBX 5 6 1 -3
BITMAP
20
A8
70
70
A8
20
ENDCHAR
STARTCHAR uni204F
ENCODING 8271
SWIDTH 245 0
DWIDTH 4 0
BBX 2 10 1 -2
BITMAP
C0
C0
00
00
00
00
C0
C0
80
C0
ENDCHAR
STARTCHAR uni2050
ENCODING 8272
SWIDTH 809 0
DWIDTH 13 0
BBX 11 11 1 0
BITMAP
1F00
60C0
8060
8020
0000
0000
0000
8020
8020
40C0
3F00
ENDCHAR
STARTCHAR uni2051
ENCODING 8273
SWIDTH 410 0
DWIDTH 7 0
BBX 5 13 1 -1
BITMAP
20
A8
70
70
A8
20
00
20
A8
70
70
A8
20
ENDCHAR
STARTCHAR uni2052
ENCODING 8274
SWIDTH 482 0
DWIDTH 8 0
BBX 6 16 1 -4
BITMAP
04
CC
C8
08
18
10
10
10
20
20
20
40
40
40
8C
88
ENDCHAR
STARTCHAR uni2057
ENCODING 8279
SWIDTH 727 0
DWIDTH 12 0
BBX 10 5 1 6
BITMAP
6AC0
5E80
5480
9500
A900
ENDCHAR
STARTCHAR uni205F
ENCODING 8287
SWIDTH 222 0
DWIDTH 4 0
BBX 1 1 0 0
BITMAP
00
ENDCHAR
STARTCHAR uni2061
ENCODING 8289
SWIDTH 0 0
DWIDTH 0 0
BBX 1 1 0 0
BITMAP
00
ENDCHAR
STARTCHAR uni2062
ENCODING 8290
SWIDTH 0 0
DWIDTH 0 0
BBX 1 1 0 0
BITMAP
00
ENDCHAR
STARTCHAR uni2063
ENCODING 8291
SWIDTH 0 0
DWIDTH 0 0
BBX 1 1 0 0
BITMAP
00
ENDCHAR
STARTCHAR uni2064
ENCODING 8292
SWIDTH 0 0
DWIDTH 0 0
BBX 1 1 0 0
BITMAP
00
ENDCHAR
STARTCHAR zerosuperior
ENCODING 8304
SWIDTH 412 0
DWIDTH 7 0
BBX 6 7 0 4
BITMAP
38
44
44
C4
44
44
38
ENDCHAR
STARTCHAR uni2071
ENCODING 8305
SWIDTH 245 0
DWIDTH 4 0
BBX 4 8 0 4
BITMAP
60
00
E0
60
60
60
60
F0
ENDCHAR
STARTCHAR foursuperior
ENCODING 8308
SWIDTH 403 0
DWIDTH 6 0
BBX 6 7 0 4
BITMAP
08
18
28
48
FC
08
08
ENDCHAR
STARTCHAR fivesuperior
ENCODING 8309
SWIDTH 358 0
DWIDTH 6 0
BBX 5 7 0 4
BITMAP
78
40
70
08
08
08
F0
ENDCHAR
STARTCHAR sixsuperior
ENCODING 8310
SWIDTH 390 0
DWIDTH 6 0
BBX 6 7 0 4
BITMAP
18
60
78
4C
C4
44
78
ENDCHAR
STARTCHAR sevensuperior
ENCODING 8311
SWIDTH 364 0
DWIDTH 6 0
BBX 6 7 0 4
BITMAP
7C
88
08
10
10
20
20
ENDCHAR
STARTCHAR eightsuperior
ENCODING 8312
SWIDTH 374 0
DWIDTH 6 0
BBX 6 7 0 4
BITMAP
78
48
48
30
48
CC
78
ENDCHAR
STARTCHAR ninesuperior
ENCODING 8313
SWIDTH 390 0
DWIDTH 6 0
BBX 6 7 0 4
BITMAP
78
C8
4C
7C
08
18
70
ENDCHAR
STARTCHAR uni207A
ENCODING 8314
SWIDTH 536 0
DWIDTH 9 0
BBX 7 7 1 4
BITMAP
10
10
10
FE
10
10
10
ENDCHAR
STARTCHAR uni207B
ENCODING 8315
SWIDTH 536 0
DWIDTH 9 0
BBX 7 1 1 7
BITMAP
FE
ENDCHAR
STARTCHAR uni207C
ENCODING 8316
SWIDTH 534 0
DWIDTH 9 0
BBX 7 4 1 5
BITMAP
FE
00
00
FE
ENDCHAR
STARTCHAR parenleftsuperior
ENCODING 8317
SWIDTH 268 0
DWIDTH 4 0
BBX 4 11 0 2
BITMAP
30
40
40
40
C0
C0
40
40
40
20
10
ENDCHAR
STARTCHAR parenrightsuperior
ENCODING 8318
SWIDTH 268 0
DWIDTH 4 0
BBX 4 11 0 2
BITMAP
C0
20
20
10
10
10
10
10
20
40
80
ENDCHAR
STARTCHAR nsuperior
ENCODING 8319
SWIDTH 491 0
DWIDTH 8 0
BBX 7 6 0 4
BITMAP
FC
64
66
66
66
FE
ENDCHAR
STARTCHAR zeroinferior
ENCODING 8320
SWIDTH 412 0
DWIDTH 7 0
BBX 6 7 0 -4
BITMAP
38
44
44
C4
44
44
38
ENDCHAR
STARTCHAR oneinferior
ENCODING 8321
SWIDTH 333 0
DWIDTH 5 0
BBX 4 7 1 -4
BITMAP
C0
40
40
40
40
40
F0
ENDCHAR
STARTCHAR twoinferior
ENCODING 8322
SWIDTH 373 0
DWIDTH 6 0
BBX 6 7 0 -4
BITMAP
78
88
08
08
30
44
F8
ENDCHAR
STARTCHAR threeinferior
ENCODING 8323
SWIDTH 374 0
DWIDTH 6 0
BBX 4 7 1 -4
BITMAP
F0
10
60
10
10
10
E0
ENDCHAR
STARTCHAR fourinferior
ENCODING 8324
SWIDTH 403 0
DWIDTH 6 0
BBX 6 7 0 -4
BITMAP
08
18
28
48
FC
08
08
ENDCHAR
STARTCHAR fiveinferior
ENCODING 8325
SWIDTH 358 0
DWIDTH 6 0
BBX 5 7 0 -4
BITMAP
78
40
70
08
08
08
F0
ENDCHAR
STARTCHAR sixinferior
ENCODING 8326
SWIDTH 390 0
DWIDTH 6 0
BBX 6 7 0 -4
BITMAP
18
60
78
4C
C4
44
78
ENDCHAR
STARTCHAR seveninferior
ENCODING 8327
SWIDTH 364 0
DWIDTH 6 0
BBX 6 7 0 -4
BITMAP
7C
88
08
10
10
20
20
ENDCHAR
STARTCHAR eightinferior
ENCODING 8328
SWIDTH 374 0
DWIDTH 6 0
BBX 6 7 0 -4
BITMAP
78
48
48
30
48
CC
78
ENDCHAR
STARTCHAR nineinferior
ENCODING 8329
SWIDTH 390 0
DWIDTH 6 0
BBX 6 7 0 -4
BITMAP
78
C8
4C
7C
08
18
70
ENDCHAR
STARTCHAR uni208A
ENCODING 8330
SWIDTH 536 0
DWIDTH 9 0
BBX 7 7 1 -4
BITMAP
10
10
10
FE
10
10
10
ENDCHAR
STARTCHAR uni208B
ENCODING 8331
SWIDTH 536 0
DWIDTH 9 0
BBX 7 1 1 -1
BITMAP
FE
ENDCHAR
STARTCHAR uni208C
ENCODING 8332
SWIDTH 534 0
DWIDTH 9 0
BBX 7 4 1 -3
BITMAP
FE
00
00
FE
ENDCHAR
STARTCHAR parenleftinferior
ENCODING 8333
SWIDTH 268 0
DWIDTH 4 0
BBX 4 11 0 -6
BITMAP
30
40
40
40
C0
C0
40
40
40
20
10
ENDCHAR
STARTCHAR parenrightinferior
ENCODING 8334
SWIDTH 268 0
DWIDTH 4 0
BBX 4 11 0 -6
BITMAP
C0
20
20
10
10
10
10
10
20
40
80
ENDCHAR
STARTCHAR uni20A3
ENCODING 8355
SWIDTH 495 0
DWIDTH 8 0
BBX 8 11 0 0
BITMAP
FF
21
21
21
20
FC
FC
20
20
20
F8
ENDCHAR
STARTCHAR uni20A4
ENCODING 8356
SWIDTH 495 0
DWIDTH 8 0
BBX 8 11 0 0
BITMAP
0E
12
30
30
7C
30
7C
10
10
F1
FE
ENDCHAR
STARTCHAR uni20A7
ENCODING 8359
SWIDTH 1193 0
DWIDTH 19 0
BBX 18 11 1 0
BITMAP
FC0000
464000
424000
42F780
464480
7C4440
404700
404180
4048C0
6044C0
F07780
ENDCHAR
STARTCHAR uni20AB
ENCODING 8363
SWIDTH 495 0
DWIDTH 8 0
BBX 6 11 1 0
BITMAP
18
08
3C
78
88
88
88
88
88
7C
FC
ENDCHAR
STARTCHAR Euro
ENCODING 8364
SWIDTH 495 0
DWIDTH 8 0
BBX 8 11 0 0
BITMAP
1D
22
21
60
FC
40
FC
60
60
21
1E
ENDCHAR
STARTCHAR uni20B9
ENCODING 8377
SWIDTH 495 0
DWIDTH 8 0
BBX 7 11 1 0
BITMAP
FC
18
18
FC
18
E0
20
30
18
08
0E
ENDCHAR
STARTCHAR uni20BA
ENCODING 8378
SWIDTH 495 0
DWIDTH 8 0
BBX 8 11 0 0
BITMAP
F8
20
20
24
78
A8
70
A3
23
22
FC
ENDCHAR
STARTCHAR uni20BD
ENCODING 8381
SWIDTH 495 0
DWIDTH 8 0
BBX 8 11 0 0
BITMAP
FC
22
23
22
22
FC
20
FC
20
20
F8
ENDCHAR
STARTCHAR uni20D0
ENCODING 8400
SWIDTH 0 0
DWIDTH 0 0
BBX 7 3 -7 11
BITMAP
40
40
FE
ENDCHAR
STARTCHAR uni20D1
ENCODING 8401
SWIDTH 0 0
DWIDTH 0 0
BBX 7 3 -7 11
BITMAP
08
04
FE
ENDCHAR
STARTCHAR uni20D2
ENCODING 8402
SWIDTH 0 0
DWIDTH 0 0
BBX 1 14 -4 -3
BITMAP
80
80
80
80
80
80
80
80
80
80
80
80
80
80
ENDCHAR
STARTCHAR uni20D3
ENCODING 8403
SWIDTH 0 0
DWIDTH 0 0
BBX 1 11 -4 -3
BITMAP
80
80
80
80
80
80
80
80
80
80
80
ENDCHAR
STARTCHAR uni20D4
ENCODING 8404
SWIDTH 0 0
DWIDTH 0 0
BBX 9 4 -9 9
BITMAP
0E00
9100
6080
7080
ENDCHAR
STARTCHAR uni20D5
ENCODING 8405
SWIDTH 0 0
DWIDTH 0 0
BBX 8 4 -7 9
BITMAP
38
C5
83
8E
ENDCHAR
STARTCHAR uni20D6
ENCODING 8406
SWIDTH 0 0
DWIDTH 0 0
BBX 7 5 -7 9
BITMAP
40
40
FE
40
40
ENDCHAR
STARTCHAR uni20D7
ENCODING 8407
SWIDTH 0 0
DWIDTH 0 0
BBX 7 5 -7 9
BITMAP
08
04
FE
04
08
ENDCHAR
STARTCHAR uni20D8
ENCODING 8408
SWIDTH 0 0
DWIDTH 0 0
BBX 5 5 -6 2
BITMAP
70
88
88
88
70
ENDCHAR
STARTCHAR uni20D9
ENCODING 8409
SWIDTH 0 0
DWIDTH 0 0
BBX 6 5 -6 2
BITMAP
70
9C
88
88
70
ENDCHAR
STARTCHAR uni20DA
ENCODING 8410
SWIDTH 0 0
DWIDTH 0 0
BBX 6 5 -6 2
BITMAP
70
88
88
BC
70
ENDCHAR
STARTCHAR uni20DB
ENCODING 8411
SWIDTH 0 0
DWIDTH 0 0
BBX 8 2 -8 9
BITMAP
49
D9
ENDCHAR
STARTCHAR uni20DC
ENCODING 8412
SWIDTH 0 0
DWIDTH 0 0
BBX 11 2 -9 9
BITMAP
9220
9B60
ENDCHAR
STARTCHAR uni20DD
ENCODING 8413
SWIDTH 0 0
DWIDTH 0 0
BBX 15 15 -11 -3
BITMAP
07C0
1830
2018
400C
8004
8002
8002
8002
8002
8002
8004
4004
6008
1830
0FC0
ENDCHAR
STARTCHAR uni20DE
ENCODING 8414
SWIDTH 0 0
DWIDTH 0 0
BBX 16 16 -12 -3
BITMAP
FFFF
C001
C001
C001
C001
C001
C001
C001
C001
C001
C001
C001
C001
C001
C001
FFFF
ENDCHAR
STARTCHAR uni20DF
ENCODING 8415
SWIDTH 0 0
DWIDTH 0 0
BBX 19 20 -13 -6
BITMAP
004000
00E000
01B000
031800
060C00
0C0600
180300
300180
6000C0
C00060
C00040
600080
300100
180200
0C0400
060800
031000
01A000
00C000
004000
ENDCHAR
STARTCHAR uni20E1
ENCODING 8417
SWIDTH 0 0
DWIDTH 0 0
BBX 8 5 -8 9
BITMAP
24
42
FF
42
24
ENDCHAR
STARTCHAR uni20E4
ENCODING 8420
SWIDTH 0 0
DWIDTH 0 0
BBX 24 19 -16 -2
BITMAP
000800
001800
001C00
002400
006200
004300
00C100
018180
0100C0
030040
020060
060020
0C0010
080018
180008
100004
200006
600002
FFFFFF
ENDCHAR
STARTCHAR uni20E5
ENCODING 8421
SWIDTH 0 0
DWIDTH 0 0
BBX 7 14 -7 -3
BITMAP
80
80
40
40
20
20
10
10
10
08
08
04
04
06
ENDCHAR
STARTCHAR uni20E6
ENCODING 8422
SWIDTH 0 0
DWIDTH 0 0
BBX 4 14 -6 -3
BITMAP
90
90
90
90
90
90
90
90
90
90
90
90
90
90
ENDCHAR
STARTCHAR uni20E7
ENCODING 8423
SWIDTH 0 0
DWIDTH 0 0
BBX 13 15 -10 -3
BITMAP
FFF8
0008
0008
0008
0008
0008
0008
0008
0008
0008
0008
0008
0008
0008
0008
ENDCHAR
STARTCHAR uni20E8
ENCODING 8424
SWIDTH 0 0
DWIDTH 0 0
BBX 8 2 -8 -4
BITMAP
49
D9
ENDCHAR
STARTCHAR uni20E9
ENCODING 8425
SWIDTH 0 0
DWIDTH 0 0
BBX 9 2 -8 9
BITMAP
FF80
8080
ENDCHAR
STARTCHAR uni20EA
ENCODING 8426
SWIDTH 0 0
DWIDTH 0 0
BBX 13 5 -11 2
BITMAP
1000
2000
FFF8
2000
1000
ENDCHAR
STARTCHAR uni20EB
ENCODING 8427
SWIDTH 0 0
DWIDTH 0 0
BBX 11 16 -9 -4
BITMAP
0360
0240
0240
0480
0480
0900
0900
0900
1200
1200
2400
2400
4800
4800
4800
9000
ENDCHAR
STARTCHAR uni20EC
ENCODING 8428
SWIDTH 0 0
DWIDTH 0 0
BBX 7 3 -7 -5
BITMAP
FE
04
08
ENDCHAR
STARTCHAR uni20ED
ENCODING 8429
SWIDTH 0 0
DWIDTH 0 0
BBX 7 3 -7 -5
BITMAP
FE
40
40
ENDCHAR
STARTCHAR uni20EE
ENCODING 8430
SWIDTH 0 0
DWIDTH 0 0
BBX 7 5 -7 -5
BITMAP
40
40
FE
40
40
ENDCHAR
STARTCHAR uni20EF
ENCODING 8431
SWIDTH 0 0
DWIDTH 0 0
BBX 7 5 -7 -5
BITMAP
08
04
FE
04
08
ENDCHAR
STARTCHAR uni20F0
ENCODING 8432
SWIDTH 0 0
DWIDTH 0 0
BBX 5 5 -6 8
BITMAP
20
F8
20
F8
20
ENDCHAR
STARTCHAR uni2100
ENCODING 8448
SWIDTH 939 0
DWIDTH 15 0
BBX 14 11 1 0
BITMAP
6020
9040
1040
7080
9138
9548
FA48
02C0
0440
0844
0838
ENDCHAR
STARTCHAR uni2101
ENCODING 8449
SWIDTH 936 0
DWIDTH 15 0
BBX 13 12 1 0
BITMAP
0020
6020
9040
3080
5080
9138
9548
FA60
0438
0448
0848
0870
ENDCHAR
STARTCHAR uni2102
ENCODING 8450
SWIDTH 695 0
DWIDTH 11 0
BBX 10 11 1 0
BITMAP
1E00
6180
A040
A000
A000
A000
A000
A000
A040
6180
1E00
ENDCHAR
STARTCHAR uni2103
ENCODING 8451
SWIDTH 1028 0
DWIDTH 16 0
BBX 15 11 1 0
BITMAP
70FC
8984
8B04
8A02
7200
0200
0200
0200
0300
0186
00F8
ENDCHAR
STARTCHAR uni2104
ENCODING 8452
SWIDTH 646 0
DWIDTH 10 0
BBX 10 11 0 0
BITMAP
3C00
1800
3C00
5A00
D800
D800
5800
7E40
3840
1840
3FC0
ENDCHAR
STARTCHAR uni2105
ENCODING 8453
SWIDTH 953 0
DWIDTH 15 0
BBX 14 12 1 0
BITMAP
0040
7040
9880
8080
8100
8270
8A88
748C
048C
088C
1088
1070
ENDCHAR
STARTCHAR uni2106
ENCODING 8454
SWIDTH 1072 0
DWIDTH 17 0
BBX 16 11 1 0
BITMAP
7060
9840
8080
8100
8100
8A66
7222
0422
0822
0826
103B
ENDCHAR
STARTCHAR uni2107
ENCODING 8455
SWIDTH 612 0
DWIDTH 10 0
BBX 9 12 0 0
BITMAP
1E80
2180
6080
6080
2000
1C00
6000
4000
C000
6080
6180
1E00
ENDCHAR
STARTCHAR uni2108
ENCODING 8456
SWIDTH 669 0
DWIDTH 11 0
BBX 9 11 1 0
BITMAP
FC00
C300
8100
9180
1180
1F80
1180
0180
8100
8600
7C00
ENDCHAR
STARTCHAR uni2109
ENCODING 8457
SWIDTH 949 0
DWIDTH 15 0
BBX 14 11 1 0
BITMAP
77FC
8904
8900
8908
7108
01F8
0108
0100
0100
0100
07C0
ENDCHAR
STARTCHAR uni210A
ENCODING 8458
SWIDTH 657 0
DWIDTH 11 0
BBX 11 11 -1 -4
BITMAP
03C0
0440
0880
1880
29E0
5A80
8C80
1180
2100
2200
1C00
ENDCHAR
STARTCHAR uni210B
ENCODING 8459
SWIDTH 951 0
DWIDTH 15 0
BBX 16 11 0 0
BITMAP
0F87
130A
2210
2210
2220
07E0
0620
0420
0460
C824
7038
ENDCHAR
STARTCHAR uni210C
ENCODING 8460
SWIDTH 728 0
DWIDTH 12 0
BBX 10 14 1 -3
BITMAP
0900
3E00
2000
6200
6F80
7180
30C0
18C0
18C0
F0C0
E080
0100
3A00
4C00
ENDCHAR
STARTCHAR uni210D
ENCODING 8461
SWIDTH 715 0
DWIDTH 11 0
BBX 9 11 1 0
BITMAP
E180
A180
A180
A180
A180
BE80
A180
A180
A180
A180
E180
ENDCHAR
STARTCHAR uni210E
ENCODING 8462
SWIDTH 569 0
DWIDTH 9 0
BBX 8 11 1 0
BITMAP
60
20
20
6E
52
52
66
C4
C4
85
86
ENDCHAR
STARTCHAR uni210F
ENCODING 8463
SWIDTH 569 0
DWIDTH 9 0
BBX 8 11 1 0
BITMAP
60
2C
70
EE
52
52
66
C4
C4
85
86
ENDCHAR
STARTCHAR uni2110
ENCODING 8464
SWIDTH 496 0
DWIDTH 8 0
BBX 8 11 0 0
BITMAP
0F
32
22
62
06
06
04
04
08
C8
70
ENDCHAR
STARTCHAR uni2111
ENCODING 8465
SWIDTH 673 0
DWIDTH 11 0
BBX 9 12 1 -1
BITMAP
1000
7C80
CF00
8200
8380
7600
0600
0300
E300
A100
3100
1E00
ENDCHAR
STARTCHAR uni2112
ENCODING 8466
SWIDTH 699 0
DWIDTH 11 0
BBX 10 11 0 0
BITMAP
0380
0480
0880
0800
1800
1000
1000
2040
6040
F880
8780
ENDCHAR
STARTCHAR uni2113
ENCODING 8467
SWIDTH 529 0
DWIDTH 8 0
BBX 8 11 0 0
BITMAP
03
05
09
11
12
2C
B0
60
44
48
30
ENDCHAR
STARTCHAR uni2114
ENCODING 8468
SWIDTH 787 0
DWIDTH 13 0
BBX 12 12 0 0
BITMAP
2200
EE00
FFC0
2200
22E0
2330
2230
2210
2210
2230
2220
73C0
ENDCHAR
STARTCHAR uni2115
ENCODING 8469
SWIDTH 692 0
DWIDTH 11 0
BBX 9 11 1 0
BITMAP
E080
A080
D080
C880
A480
9480
8A80
8980
8480
8280
8180
ENDCHAR
STARTCHAR uni2116
ENCODING 8470
SWIDTH 1070 0
DWIDTH 17 0
BBX 17 11 0 0
BITMAP
381800
182C00
1C4000
144600
124900
134980
114880
11C900
10C600
D04000
E04F00
ENDCHAR
STARTCHAR uni2117
ENCODING 8471
SWIDTH 781 0
DWIDTH 13 0
BBX 11 12 1 0
BITMAP
1E00
2180
4040
9E40
9920
9920
9E20
9820
9C40
4040
2080
1F00
ENDCHAR
STARTCHAR uni2118
ENCODING 8472
SWIDTH 846 0
DWIDTH 14 0
BBX 12 13 1 -4
BITMAP
1C00
6400
41E0
C230
8C10
9830
D030
7220
7A40
4980
4800
D800
6000
ENDCHAR
STARTCHAR uni2119
ENCODING 8473
SWIDTH 665 0
DWIDTH 11 0
BBX 9 11 1 0
BITMAP
FE00
A300
A280
A280
A280
A300
BE00
A000
A000
A000
E000
ENDCHAR
STARTCHAR uni211A
ENCODING 8474
SWIDTH 751 0
DWIDTH 12 0
BBX 10 12 1 -1
BITMAP
1E00
6180
A0C0
A140
A140
A140
A140
A140
A140
4C80
3F00
00C0
ENDCHAR
STARTCHAR uni211B
ENCODING 8475
SWIDTH 789 0
DWIDTH 13 0
BBX 12 11 0 0
BITMAP
0FC0
1220
2220
2220
0660
0680
0500
0580
0880
88D0
F060
ENDCHAR
STARTCHAR uni211C
ENCODING 8476
SWIDTH 778 0
DWIDTH 12 0
BBX 11 11 1 0
BITMAP
7380
9D80
9880
C880
6980
6F00
C980
1980
1180
71A0
E0C0
ENDCHAR
STARTCHAR uni211D
ENCODING 8477
SWIDTH 729 0
DWIDTH 12 0
BBX 10 11 1 0
BITMAP
FE00
A300
A280
A280
A280
A300
BE00
A900
A480
A280
E1C0
ENDCHAR
STARTCHAR uni211E
ENCODING 8478
SWIDTH 725 0
DWIDTH 12 0
BBX 10 12 1 -1
BITMAP
FC00
4300
4300
4300
4600
7800
4C40
4680
4300
6300
F5C0
0800
ENDCHAR
STARTCHAR uni211F
ENCODING 8479
SWIDTH 659 0
DWIDTH 11 0
BBX 10 17 1 -4
BITMAP
1C00
0200
FC00
6600
6700
6B00
6B00
6E00
7800
7C00
6600
6200
6300
F1C0
4000
5800
3000
ENDCHAR
STARTCHAR uni2120
ENCODING 8480
SWIDTH 937 0
DWIDTH 15 0
BBX 13 7 1 4
BITMAP
F618
9310
8330
6330
12D0
92D0
E698
ENDCHAR
STARTCHAR uni2121
ENCODING 8481
SWIDTH 1200 0
DWIDTH 19 0
BBX 19 7 0 4
BITMAP
FDF700
948A00
109200
10E200
108200
108A20
39F7E0
ENDCHAR
STARTCHAR trademark
ENCODING 8482
SWIDTH 881 0
DWIDTH 14 0
BBX 14 6 0 5
BITMAP
FF0C
A598
21A8
2168
2148
335C
ENDCHAR
STARTCHAR uni2123
ENCODING 8483
SWIDTH 680 0
DWIDTH 11 0
BBX 11 17 0 -4
BITMAP
0E00
0100
F2E0
6240
2280
3480
3480
1900
1900
0A00
1E00
1E00
2400
2000
2000
2800
1800
ENDCHAR
STARTCHAR uni2124
ENCODING 8484
SWIDTH 648 0
DWIDTH 10 0
BBX 10 11 0 0
BITMAP
7FC0
0240
0280
0500
0900
1200
1400
2800
4800
5000
FFC0
ENDCHAR
STARTCHAR uni2125
ENCODING 8485
SWIDTH 434 0
DWIDTH 7 0
BBX 5 15 1 -4
BITMAP
F8
90
20
60
F8
10
20
70
18
08
08
08
08
90
E0
ENDCHAR
STARTCHAR uni2126
ENCODING 8486
SWIDTH 763 0
DWIDTH 12 0
BBX 12 11 0 0
BITMAP
0F00
30C0
2060
6060
6060
6060
6060
3060
10C0
8910
F9F0
ENDCHAR
STARTCHAR uni2127
ENCODING 8487
SWIDTH 763 0
DWIDTH 12 0
BBX 12 11 0 0
BITMAP
F9F0
8910
9990
3060
6060
6060
6060
6060
2060
30C0
0F00
ENDCHAR
STARTCHAR uni2128
ENCODING 8488
SWIDTH 641 0
DWIDTH 10 0
BBX 9 14 1 -3
BITMAP
1C00
6300
4300
8100
0300
2200
1C00
3300
0300
0180
E180
E100
3300
1C00
ENDCHAR
STARTCHAR uni2129
ENCODING 8489
SWIDTH 368 0
DWIDTH 6 0
BBX 4 8 1 0
BITMAP
E0
E0
70
70
70
70
70
70
ENDCHAR
STARTCHAR uni212A
ENCODING 8490
SWIDTH 702 0
DWIDTH 11 0
BBX 10 11 1 0
BITMAP
F380
6300
6200
6400
6800
7000
7800
6C00
6600
6300
F3C0
ENDCHAR
STARTCHAR uni212B
ENCODING 8491
SWIDTH 722 0
DWIDTH 12 0
BBX 11 14 0 0
BITMAP
0600
0A00
0A00
0400
0600
0A00
0B00
1300
1100
1F80
2080
20C0
40C0
E1E0
ENDCHAR
STARTCHAR uni212C
ENCODING 8492
SWIDTH 754 0
DWIDTH 12 0
BBX 10 11 1 0
BITMAP
1F80
2440
4C40
CC40
4C80
0F80
08C0
1840
10C0
2080
FF00
ENDCHAR
STARTCHAR uni212D
ENCODING 8493
SWIDTH 639 0
DWIDTH 10 0
BBX 9 11 1 0
BITMAP
3A80
4700
C800
9800
8C00
8C00
C600
C400
D900
6200
3C00
ENDCHAR
STARTCHAR estimated
ENCODING 8494
SWIDTH 863 0
DWIDTH 14 0
BBX 12 12 1 -1
BITMAP
1F00
20C0
4020
C030
C030
FFF0
C000
C000
C000
4020
20C0
1F00
ENDCHAR
STARTCHAR uni212F
ENCODING 8495
SWIDTH 527 0
DWIDTH 8 0
BBX 8 8 0 0
BITMAP
0E
12
22
2C
70
E1
66
38
ENDCHAR
STARTCHAR uni2130
ENCODING 8496
SWIDTH 572 0
DWIDTH 9 0
BBX 8 11 1 0
BITMAP
1E
23
62
20
3C
40
80
80
82
C4
78
ENDCHAR
STARTCHAR uni2131
ENCODING 8497
SWIDTH 713 0
DWIDTH 11 0
BBX 13 11 0 0
BITMAP
0F98
1170
2300
2300
0200
0FC0
0200
0600
0400
8800
F000
ENDCHAR
STARTCHAR uni2132
ENCODING 8498
SWIDTH 588 0
DWIDTH 9 0
BBX 9 11 0 0
BITMAP
0F80
0200
0200
0200
4200
3E00
2200
4200
8200
8200
FF80
ENDCHAR
STARTCHAR uni2133
ENCODING 8499
SWIDTH 1038 0
DWIDTH 17 0
BBX 17 11 0 0
BITMAP
1C0380
260E80
471400
071400
092C00
094C00
094800
098800
118800
910900
E10E00
ENDCHAR
STARTCHAR uni2134
ENCODING 8500
SWIDTH 691 0
DWIDTH 11 0
BBX 12 8 -1 0
BITMAP
0380
04D0
08E0
0840
18C0
6880
8980
0600
ENDCHAR
STARTCHAR uni2135
ENCODING 8501
SWIDTH 698 0
DWIDTH 11 0
BBX 9 11 1 0
BITMAP
8200
C380
6180
3180
5900
CE00
C600
C300
6180
2080
C080
ENDCHAR
STARTCHAR uni2136
ENCODING 8502
SWIDTH 654 0
DWIDTH 10 0
BBX 8 11 1 0
BITMAP
80
FE
7F
03
01
01
01
01
02
3F
FF
ENDCHAR
STARTCHAR uni2137
ENCODING 8503
SWIDTH 517 0
DWIDTH 8 0
BBX 7 11 1 0
BITMAP
40
78
38
08
08
08
08
08
1C
76
E2
ENDCHAR
STARTCHAR uni2138
ENCODING 8504
SWIDTH 613 0
DWIDTH 10 0
BBX 7 11 1 0
BITMAP
80
FE
FE
02
04
04
04
04
06
06
04
ENDCHAR
STARTCHAR uni2139
ENCODING 8505
SWIDTH 361 0
DWIDTH 6 0
BBX 6 11 0 0
BITMAP
30
70
30
10
F0
70
70
70
70
70
FC
ENDCHAR
STARTCHAR uni213A
ENCODING 8506
SWIDTH 907 0
DWIDTH 15 0
BBX 13 11 1 0
BITMAP
0008
3F08
7F88
C048
8058
8030
8020
8040
C040
7F80
1F00
ENDCHAR
STARTCHAR uni213B
ENCODING 8507
SWIDTH 1216 0
DWIDTH 19 0
BBX 18 7 1 4
BITMAP
F90CC0
C98480
D28300
F24300
C3C500
C46480
EE7DC0
ENDCHAR
STARTCHAR uni213C
ENCODING 8508
SWIDTH 689 0
DWIDTH 11 0
BBX 11 8 0 0
BITMAP
FFC0
3500
3500
3500
3500
3500
3360
3180
ENDCHAR
STARTCHAR uni213D
ENCODING 8509
SWIDTH 552 0
DWIDTH 9 0
BBX 9 11 0 -4
BITMAP
6180
9100
4A00
2C00
1400
0C00
0A00
1A00
1600
1600
0C00
ENDCHAR
STARTCHAR uni213E
ENCODING 8510
SWIDTH 550 0
DWIDTH 9 0
BBX 8 11 1 0
BITMAP
FF
A0
A0
A0
A0
A0
A0
A0
A0
A0
E0
ENDCHAR
STARTCHAR uni213F
ENCODING 8511
SWIDTH 714 0
DWIDTH 11 0
BBX 9 11 1 0
BITMAP
FF80
A180
A180
A180
A180
A180
A180
A180
A180
A180
E180
ENDCHAR
STARTCHAR uni2140
ENCODING 8512
SWIDTH 945 0
DWIDTH 15 0
BBX 13 17 1 -4
BITMAP
FFF0
8800
4800
2400
2200
1200
1100
0900
0480
0900
1100
1200
2200
2400
4800
8800
FFF8
ENDCHAR
STARTCHAR uni2141
ENCODING 8513
SWIDTH 711 0
DWIDTH 11 0
BBX 10 11 1 0
BITMAP
7E00
C300
C180
C0C0
C0C0
E0C0
00C0
00C0
8080
C300
7E00
ENDCHAR
STARTCHAR uni2142
ENCODING 8514
SWIDTH 572 0
DWIDTH 9 0
BBX 8 11 0 0
BITMAP
FF
01
01
01
01
01
01
01
01
01
01
ENDCHAR
STARTCHAR uni2143
ENCODING 8515
SWIDTH 572 0
DWIDTH 9 0
BBX 8 11 0 0
BITMAP
01
01
01
01
01
01
01
01
01
01
FF
ENDCHAR
STARTCHAR uni2144
ENCODING 8516
SWIDTH 645 0
DWIDTH 10 0
BBX 10 11 0 0
BITMAP
0C00
0C00
0C00
0C00
0C00
0C00
1E00
1300
3100
6180
C0C0
ENDCHAR
STARTCHAR uni2145
ENCODING 8517
SWIDTH 717 0
DWIDTH 11 0
BBX 11 11 0 0
BITMAP
3F80
2840
2840
30A0
50A0
50A0
50A0
5140
6140
A180
FE00
ENDCHAR
STARTCHAR uni2146
ENCODING 8518
SWIDTH 607 0
DWIDTH 10 0
BBX 10 12 0 0
BITMAP
00C0
0140
0140
0140
1D80
7280
5280
A280
A280
A500
6500
3F00
ENDCHAR
STARTCHAR uni2147
ENCODING 8519
SWIDTH 520 0
DWIDTH 8 0
BBX 8 8 0 0
BITMAP
1C
32
65
A5
BF
A0
62
3C
ENDCHAR
STARTCHAR uni2148
ENCODING 8520
SWIDTH 285 0
DWIDTH 5 0
BBX 5 11 0 0
BITMAP
38
30
00
30
50
50
50
60
A0
A0
E0
ENDCHAR
STARTCHAR uni2149
ENCODING 8521
SWIDTH 284 0
DWIDTH 5 0
BBX 7 15 -2 -4
BITMAP
0E
0A
0C
00
0C
14
14
14
18
28
28
28
30
30
E0
ENDCHAR
STARTCHAR uni214A
ENCODING 8522
SWIDTH 680 0
DWIDTH 11 0
BBX 9 11 1 0
BITMAP
1000
1000
FE00
9100
9080
9080
1180
1F00
1000
1000
1F00
ENDCHAR
STARTCHAR uni214B
ENCODING 8523
SWIDTH 736 0
DWIDTH 12 0
BBX 11 11 0 0
BITMAP
71C0
9E60
0420
0E20
1360
1180
7B80
0480
0480
0480
0300
ENDCHAR
STARTCHAR uni214C
ENCODING 8524
SWIDTH 794 0
DWIDTH 13 0
BBX 12 11 0 0
BITMAP
71E0
5A30
8A30
1F30
3CB0
5AE0
3F20
1A20
1A00
1A00
0C00
ENDCHAR
STARTCHAR uni214D
ENCODING 8525
SWIDTH 1010 0
DWIDTH 16 0
BBX 16 11 0 0
BITMAP
1008
1810
2810
2820
3C4E
4452
C698
0106
0103
0211
021E
ENDCHAR
STARTCHAR uni214E
ENCODING 8526
SWIDTH 473 0
DWIDTH 8 0
BBX 5 8 1 0
BITMAP
08
08
08
F8
08
08
08
F8
ENDCHAR
STARTCHAR uni214F
ENCODING 8527
SWIDTH 1161 0
DWIDTH 19 0
BBX 18 7 0 0
BITMAP
1CE700
252900
252900
252900
14A500
18C600
FFFFC0
ENDCHAR
STARTCHAR onethird
ENCODING 8531
SWIDTH 899 0
DWIDTH 14 0
BBX 13 11 1 0
BITMAP
C0C0
4080
4100
4100
4270
4490
F410
0870
1018
1008
20F0
ENDCHAR
STARTCHAR twothirds
ENCODING 8532
SWIDTH 948 0
DWIDTH 15 0
BBX 15 11 0 0
BITMAP
7820
8820
0840
0880
109C
2524
F904
021C
0406
0404
083C
ENDCHAR
STARTCHAR uni2155
ENCODING 8533
SWIDTH 867 0
DWIDTH 14 0
BBX 12 11 1 0
BITMAP
C0C0
4080
4100
4100
4270
4480
F4E0
0810
1010
1010
20E0
ENDCHAR
STARTCHAR uni2156
ENCODING 8534
SWIDTH 916 0
DWIDTH 15 0
BBX 14 11 0 0
BITMAP
7820
8820
0840
1880
34BC
6520
F938
0204
0404
0404
0878
ENDCHAR
STARTCHAR uni2157
ENCODING 8535
SWIDTH 896 0
DWIDTH 14 0
BBX 13 11 1 0
BITMAP
E040
9080
2080
7100
1278
9240
E4F0
0818
0808
1008
30F0
ENDCHAR
STARTCHAR uni2158
ENCODING 8536
SWIDTH 929 0
DWIDTH 15 0
BBX 13 11 1 0
BITMAP
1060
3040
5080
9100
F938
1240
0270
0408
0808
0808
1070
ENDCHAR
STARTCHAR uni2159
ENCODING 8537
SWIDTH 871 0
DWIDTH 14 0
BBX 12 11 1 0
BITMAP
C0C0
4080
4100
4100
4270
4480
F4F0
0990
1190
1090
20F0
ENDCHAR
STARTCHAR uni215A
ENCODING 8538
SWIDTH 871 0
DWIDTH 14 0
BBX 13 11 0 0
BITMAP
7860
4040
7080
0888
0930
8A40
7278
04C8
04C8
0848
1078
ENDCHAR
STARTCHAR oneeighth
ENCODING 8539
SWIDTH 887 0
DWIDTH 14 0
BBX 13 11 1 0
BITMAP
C0C0
4080
4100
4100
4270
4490
F490
0860
1090
1088
20F0
ENDCHAR
STARTCHAR threeeighths
ENCODING 8540
SWIDTH 911 0
DWIDTH 15 0
BBX 13 11 1 0
BITMAP
E040
9080
2080
7100
1270
9288
E4D0
0870
0888
1088
3070
ENDCHAR
STARTCHAR fiveeighths
ENCODING 8541
SWIDTH 891 0
DWIDTH 14 0
BBX 14 11 0 0
BITMAP
7860
4040
7080
0880
0938
8A48
7268
0430
044C
0844
1078
ENDCHAR
STARTCHAR seveneighths
ENCODING 8542
SWIDTH 847 0
DWIDTH 14 0
BBX 13 11 0 0
BITMAP
7840
8880
1100
1100
2270
2288
44D0
0870
0898
1088
20F0
ENDCHAR
STARTCHAR uni2190
ENCODING 8592
SWIDTH 948 0
DWIDTH 15 0
BBX 13 7 1 1
BITMAP
0800
1000
2000
FFF8
2000
1000
0800
ENDCHAR
STARTCHAR uni2191
ENCODING 8593
SWIDTH 523 0
DWIDTH 8 0
BBX 6 14 1 -3
BITMAP
10
10
30
78
94
10
10
10
10
10
10
10
10
10
ENDCHAR
STARTCHAR uni2192
ENCODING 8594
SWIDTH 948 0
DWIDTH 15 0
BBX 13 7 1 1
BITMAP
0040
0040
0020
FFF8
0030
0040
0040
ENDCHAR
STARTCHAR uni2193
ENCODING 8595
SWIDTH 523 0
DWIDTH 8 0
BBX 6 14 1 -3
BITMAP
10
10
10
10
10
10
10
10
10
10
94
78
30
10
ENDCHAR
STARTCHAR uni2194
ENCODING 8596
SWIDTH 948 0
DWIDTH 15 0
BBX 14 7 1 1
BITMAP
1040
2020
4010
FFFC
4010
2020
1040
ENDCHAR
STARTCHAR uni2195
ENCODING 8597
SWIDTH 523 0
DWIDTH 8 0
BBX 6 16 1 -4
BITMAP
10
10
38
54
94
10
10
10
10
10
10
10
94
78
30
10
ENDCHAR
STARTCHAR uni2196
ENCODING 8598
SWIDTH 948 0
DWIDTH 15 0
BBX 13 13 1 -3
BITMAP
F800
6000
7000
5800
8C00
0600
0300
0100
0080
0040
0020
0010
0008
ENDCHAR
STARTCHAR uni2197
ENCODING 8599
SWIDTH 948 0
DWIDTH 15 0
BBX 13 13 1 -3
BITMAP
00F8
0038
0068
00C8
0088
0100
0200
0400
0800
1000
2000
4000
8000
ENDCHAR
STARTCHAR uni2198
ENCODING 8600
SWIDTH 948 0
DWIDTH 15 0
BBX 13 13 1 -2
BITMAP
8000
4000
2000
1000
0800
0400
0200
0100
0088
00C8
0068
0038
00F8
ENDCHAR
STARTCHAR uni2199
ENCODING 8601
SWIDTH 948 0
DWIDTH 15 0
BBX 13 13 1 -2
BITMAP
0008
0010
0020
0040
0080
0100
0300
0600
8C00
5800
7000
6000
F800
ENDCHAR
STARTCHAR uni219A
ENCODING 8602
SWIDTH 948 0
DWIDTH 15 0
BBX 13 7 1 1
BITMAP
1040
1040
2080
FFF8
2100
1200
1200
ENDCHAR
STARTCHAR uni219B
ENCODING 8603
SWIDTH 948 0
DWIDTH 15 0
BBX 13 7 1 1
BITMAP
0240
0220
0430
FFF8
0810
1020
1040
ENDCHAR
STARTCHAR uni219C
ENCODING 8604
SWIDTH 948 0
DWIDTH 15 0
BBX 13 6 1 1
BITMAP
0C00
F000
60F0
5F08
4000
4000
ENDCHAR
STARTCHAR uni219D
ENCODING 8605
SWIDTH 948 0
DWIDTH 15 0
BBX 13 6 1 1
BITMAP
0180
0078
7830
C7D0
0010
0010
ENDCHAR
STARTCHAR uni219E
ENCODING 8606
SWIDTH 948 0
DWIDTH 15 0
BBX 13 7 1 1
BITMAP
0900
1200
2400
FFF8
2400
1200
0900
ENDCHAR
STARTCHAR uni219F
ENCODING 8607
SWIDTH 523 0
DWIDTH 8 0
BBX 6 14 1 -3
BITMAP
10
10
30
58
94
30
78
94
10
10
10
10
10
10
ENDCHAR
STARTCHAR uni21A0
ENCODING 8608
SWIDTH 948 0
DWIDTH 15 0
BBX 13 7 1 1
BITMAP
0440
0240
0120
FFF8
0130
0240
0440
ENDCHAR
STARTCHAR uni21A1
ENCODING 8609
SWIDTH 523 0
DWIDTH 8 0
BBX 6 14 1 -3
BITMAP
10
10
10
10
10
10
94
54
38
30
94
78
30
10
ENDCHAR
STARTCHAR uni21A2
ENCODING 8610
SWIDTH 948 0
DWIDTH 15 0
BBX 13 7 1 1
BITMAP
0808
1010
2030
FFE0
2020
1010
0808
ENDCHAR
STARTCHAR uni21A3
ENCODING 8611
SWIDTH 948 0
DWIDTH 15 0
BBX 13 7 1 1
BITMAP
8040
4040
2020
3FF8
2030
4040
8040
ENDCHAR
STARTCHAR uni21A4
ENCODING 8612
SWIDTH 948 0
DWIDTH 15 0
BBX 13 7 1 1
BITMAP
0808
1008
2008
FFF8
2008
1008
0808
ENDCHAR
STARTCHAR uni21A5
ENCODING 8613
SWIDTH 523 0
DWIDTH 8 0
BBX 6 14 1 -3
BITMAP
10
10
30
58
94
10
10
10
10
10
10
10
10
FC
ENDCHAR
STARTCHAR uni21A6
ENCODING 8614
SWIDTH 948 0
DWIDTH 15 0
BBX 13 7 1 1
BITMAP
8040
8040
8020
FFF8
8020
8040
8040
ENDCHAR
STARTCHAR uni21A7
ENCODING 8615
SWIDTH 523 0
DWIDTH 8 0
BBX 6 13 1 -2
BITMAP
FC
10
10
10
10
10
10
10
10
94
58
30
10
ENDCHAR
STARTCHAR uni21A8
ENCODING 8616
SWIDTH 523 0
DWIDTH 8 0
BBX 6 14 1 -3
BITMAP
10
10
30
58
94
10
10
10
10
94
78
30
10
FC
ENDCHAR
STARTCHAR uni21A9
ENCODING 8617
SWIDTH 948 0
DWIDTH 15 0
BBX 13 8 1 1
BITMAP
0070
0018
1008
2008
FFF0
2000
1000
0800
ENDCHAR
STARTCHAR uni21AA
ENCODING 8618
SWIDTH 948 0
DWIDTH 15 0
BBX 13 8 1 1
BITMAP
7000
C000
8040
C020
7FF8
0030
0040
0040
ENDCHAR
STARTCHAR uni21AB
ENCODING 8619
SWIDTH 948 0
DWIDTH 15 0
BBX 13 9 1 0
BITMAP
0070
0098
1088
2088
FFF0
2080
1080
0880
0080
ENDCHAR
STARTCHAR uni21AC
ENCODING 8620
SWIDTH 948 0
DWIDTH 15 0
BBX 13 9 1 0
BITMAP
7000
C800
8840
CC20
7FF8
0C30
0C40
0C40
0C00
ENDCHAR
STARTCHAR uni21AD
ENCODING 8621
SWIDTH 1229 0
DWIDTH 20 0
BBX 18 7 1 1
BITMAP
100400
20C200
414100
F927C0
452900
261200
100200
ENDCHAR
STARTCHAR uni21AE
ENCODING 8622
SWIDTH 948 0
DWIDTH 15 0
BBX 14 7 1 1
BITMAP
1140
2120
4110
FFFC
4210
2420
1440
ENDCHAR
STARTCHAR uni21AF
ENCODING 8623
SWIDTH 523 0
DWIDTH 8 0
BBX 6 14 1 -3
BITMAP
04
04
08
10
30
60
FC
08
18
90
A0
E0
F8
80
ENDCHAR
STARTCHAR uni21B0
ENCODING 8624
SWIDTH 474 0
DWIDTH 8 0
BBX 7 13 0 -3
BITMAP
18
20
FE
22
12
0A
02
02
02
02
02
02
02
ENDCHAR
STARTCHAR uni21B1
ENCODING 8625
SWIDTH 474 0
DWIDTH 8 0
BBX 6 13 1 -3
BITMAP
20
10
FC
98
A0
A0
80
80
80
80
80
80
80
ENDCHAR
STARTCHAR uni21B2
ENCODING 8626
SWIDTH 474 0
DWIDTH 8 0
BBX 7 14 0 -3
BITMAP
02
02
02
02
02
02
02
0A
12
22
FE
20
10
08
ENDCHAR
STARTCHAR uni21B3
ENCODING 8627
SWIDTH 474 0
DWIDTH 8 0
BBX 6 14 1 -3
BITMAP
80
80
80
80
80
80
80
A0
A0
90
FC
18
20
20
ENDCHAR
STARTCHAR uni21B4
ENCODING 8628
SWIDTH 948 0
DWIDTH 15 0
BBX 13 14 1 -3
BITMAP
FFC0
0040
0040
0040
0040
0040
0040
0040
0040
0248
0150
00E0
0040
0040
ENDCHAR
STARTCHAR uni21B5
ENCODING 8629
SWIDTH 948 0
DWIDTH 15 0
BBX 13 14 1 -3
BITMAP
0008
0008
0008
0008
0008
0008
0008
0808
1008
2008
FFF8
2000
1000
0800
ENDCHAR
STARTCHAR uni21B6
ENCODING 8630
SWIDTH 948 0
DWIDTH 15 0
BBX 13 9 1 0
BITMAP
03C0
0C30
1818
1008
A408
A808
7000
2000
2000
ENDCHAR
STARTCHAR uni21B7
ENCODING 8631
SWIDTH 948 0
DWIDTH 15 0
BBX 13 9 1 0
BITMAP
1F00
3180
4040
8060
8128
80A8
0070
0020
0020
ENDCHAR
STARTCHAR uni21B8
ENCODING 8632
SWIDTH 948 0
DWIDTH 15 0
BBX 13 15 1 -3
BITMAP
FFF8
0000
F800
E000
B000
9800
8C00
0600
0300
0180
00C0
0060
0030
0018
0008
ENDCHAR
STARTCHAR uni21B9
ENCODING 8633
SWIDTH 948 0
DWIDTH 15 0
BBX 13 12 1 -2
BITMAP
8800
9000
A000
FFF8
A000
9000
08C8
0028
FFF8
0028
0048
0088
ENDCHAR
STARTCHAR uni21BA
ENCODING 8634
SWIDTH 997 0
DWIDTH 16 0
BBX 12 13 2 -2
BITMAP
0070
1380
31C0
60A0
C0B0
8090
8010
8010
8010
C030
4020
30C0
1F80
ENDCHAR
STARTCHAR uni21BB
ENCODING 8635
SWIDTH 997 0
DWIDTH 16 0
BBX 12 13 2 -2
BITMAP
C000
3880
39C0
5020
D030
9010
8010
8010
8010
C030
4020
30C0
1F80
ENDCHAR
STARTCHAR uni21BC
ENCODING 8636
SWIDTH 978 0
DWIDTH 16 0
BBX 14 4 1 4
BITMAP
0800
1000
2000
FFFC
ENDCHAR
STARTCHAR uni21BD
ENCODING 8637
SWIDTH 978 0
DWIDTH 16 0
BBX 14 5 1 0
BITMAP
FFFC
2000
1000
0800
0800
ENDCHAR
STARTCHAR uni21BE
ENCODING 8638
SWIDTH 523 0
DWIDTH 8 0
BBX 3 13 4 -3
BITMAP
80
80
C0
A0
80
80
80
80
80
80
80
80
80
ENDCHAR
STARTCHAR uni21BF
ENCODING 8639
SWIDTH 523 0
DWIDTH 8 0
BBX 4 13 1 -3
BITMAP
10
30
70
90
10
10
10
10
10
10
10
10
10
ENDCHAR
STARTCHAR uni21C0
ENCODING 8640
SWIDTH 978 0
DWIDTH 16 0
BBX 14 4 1 4
BITMAP
00C0
0020
0030
FFFC
ENDCHAR
STARTCHAR uni21C1
ENCODING 8641
SWIDTH 978 0
DWIDTH 16 0
BBX 14 5 1 0
BITMAP
FFFC
0030
0020
0040
0080
ENDCHAR
STARTCHAR uni21C2
ENCODING 8642
SWIDTH 523 0
DWIDTH 8 0
BBX 3 14 4 -3
BITMAP
80
80
80
80
80
80
80
80
80
80
A0
C0
80
80
ENDCHAR
STARTCHAR uni21C3
ENCODING 8643
SWIDTH 523 0
DWIDTH 8 0
BBX 4 14 1 -3
BITMAP
10
10
10
10
10
10
10
10
10
90
50
30
10
10
ENDCHAR
STARTCHAR uni21C4
ENCODING 8644
SWIDTH 948 0
DWIDTH 15 0
BBX 13 11 1 -2
BITMAP
0040
0020
FFF8
0020
0040
1000
2000
FFF8
2000
1000
0800
ENDCHAR
STARTCHAR uni21C5
ENCODING 8645
SWIDTH 791 0
DWIDTH 13 0
BBX 12 14 0 -3
BITMAP
1000
1080
3880
5C80
D280
1080
1080
1080
1080
1080
1290
11E0
10C0
1080
ENDCHAR
STARTCHAR uni21C6
ENCODING 8646
SWIDTH 948 0
DWIDTH 15 0
BBX 13 11 1 -2
BITMAP
1000
2000
FFF8
2000
1000
0040
0020
FFF8
0020
0040
0040
ENDCHAR
STARTCHAR uni21C7
ENCODING 8647
SWIDTH 948 0
DWIDTH 15 0
BBX 13 11 1 -2
BITMAP
1000
2000
FFF8
2000
1000
1000
2000
FFF8
2000
1000
0800
ENDCHAR
STARTCHAR uni21C8
ENCODING 8648
SWIDTH 791 0
DWIDTH 13 0
BBX 11 14 1 -3
BITMAP
2100
2100
3180
7BC0
A520
2100
2100
2100
2100
2100
2100
2100
2100
2100
ENDCHAR
STARTCHAR uni21C9
ENCODING 8649
SWIDTH 948 0
DWIDTH 15 0
BBX 13 11 1 -2
BITMAP
0040
0020
FFF8
0020
0040
0040
0020
FFF8
0020
0040
0040
ENDCHAR
STARTCHAR uni21CA
ENCODING 8650
SWIDTH 791 0
DWIDTH 13 0
BBX 11 14 1 -3
BITMAP
2100
2100
2100
2100
2100
2100
2100
2100
2100
2100
A520
7BC0
3180
2100
ENDCHAR
STARTCHAR uni21CB
ENCODING 8651
SWIDTH 948 0
DWIDTH 15 0
BBX 13 9 1 -1
BITMAP
1000
2000
FFF8
0000
0000
FFF8
0020
0040
0040
ENDCHAR
STARTCHAR uni21CC
ENCODING 8652
SWIDTH 948 0
DWIDTH 15 0
BBX 13 9 1 -1
BITMAP
0040
0020
FFF8
0000
0000
FFF8
2000
1000
0800
ENDCHAR
STARTCHAR uni21CD
ENCODING 8653
SWIDTH 948 0
DWIDTH 15 0
BBX 13 10 1 -1
BITMAP
0410
0810
1820
3FF8
4020
C040
3FF8
1880
0480
0500
ENDCHAR
STARTCHAR uni21CE
ENCODING 8654
SWIDTH 948 0
DWIDTH 15 0
BBX 15 8 0 0
BITMAP
04E0
18B0
3FF8
6104
C106
3FF8
0930
0640
ENDCHAR
STARTCHAR uni21CF
ENCODING 8655
SWIDTH 948 0
DWIDTH 15 0
BBX 13 10 1 -1
BITMAP
0500
0880
08C0
FFE0
1018
1018
FFE0
20C0
4080
4100
ENDCHAR
STARTCHAR uni21D0
ENCODING 8656
SWIDTH 887 0
DWIDTH 14 0
BBX 13 10 1 -1
BITMAP
0400
0400
1800
3FF8
4000
C000
3FF8
1800
0800
0400
ENDCHAR
STARTCHAR uni21D1
ENCODING 8657
SWIDTH 720 0
DWIDTH 12 0
BBX 10 13 1 -2
BITMAP
0800
0C00
1200
3200
7300
9280
9240
1200
1200
1200
1200
1200
1200
ENDCHAR
STARTCHAR uni21D2
ENCODING 8658
SWIDTH 887 0
DWIDTH 14 0
BBX 13 10 0 -1
BITMAP
0100
0080
00C0
FFE0
0018
0018
FFE0
00C0
0080
0100
ENDCHAR
STARTCHAR uni21D3
ENCODING 8659
SWIDTH 720 0
DWIDTH 12 0
BBX 10 14 1 -3
BITMAP
1200
1200
1200
1200
1200
1200
1200
1200
9240
7380
3300
1200
0C00
0800
ENDCHAR
STARTCHAR uni21D4
ENCODING 8660
SWIDTH 948 0
DWIDTH 15 0
BBX 15 8 0 0
BITMAP
0440
0830
3FF8
6004
C006
3FF8
1830
0460
ENDCHAR
STARTCHAR uni21D5
ENCODING 8661
SWIDTH 720 0
DWIDTH 12 0
BBX 10 16 1 -4
BITMAP
0800
0C00
1200
3200
7300
9280
9240
1200
1200
1240
9280
7300
3200
1200
0C00
0800
ENDCHAR
STARTCHAR uni21D6
ENCODING 8662
SWIDTH 948 0
DWIDTH 15 0
BBX 13 14 1 -3
BITMAP
8000
FF00
8800
8400
C200
6100
9080
8840
0420
0230
0118
0088
0040
0020
ENDCHAR
STARTCHAR uni21D7
ENCODING 8663
SWIDTH 948 0
DWIDTH 15 0
BBX 13 14 1 -3
BITMAP
0008
03F8
00C8
0188
0318
0638
0C48
1888
3100
6200
C400
8800
1000
2000
ENDCHAR
STARTCHAR uni21D8
ENCODING 8664
SWIDTH 948 0
DWIDTH 15 0
BBX 13 14 1 -3
BITMAP
2000
1000
8800
C400
6200
3100
1888
0C48
0638
0318
0188
00C8
03F8
0008
ENDCHAR
STARTCHAR uni21D9
ENCODING 8665
SWIDTH 948 0
DWIDTH 15 0
BBX 13 14 1 -3
BITMAP
0020
0040
0088
0118
0230
0420
8840
9080
6100
C200
8400
8800
FF00
8000
ENDCHAR
STARTCHAR uni21DA
ENCODING 8666
SWIDTH 872 0
DWIDTH 14 0
BBX 13 14 1 -3
BITMAP
0400
0400
0800
0FF8
1000
2000
4000
FFF8
4000
2000
1FF8
0800
0400
0400
ENDCHAR
STARTCHAR uni21DB
ENCODING 8667
SWIDTH 872 0
DWIDTH 14 0
BBX 13 14 0 -3
BITMAP
0100
0100
0080
FF80
0040
0020
0010
FFF8
0010
0020
FFC0
0080
0100
0100
ENDCHAR
STARTCHAR uni21DC
ENCODING 8668
SWIDTH 948 0
DWIDTH 15 0
BBX 13 7 1 1
BITMAP
1000
1100
2180
FBB8
6660
1440
1000
ENDCHAR
STARTCHAR uni21DD
ENCODING 8669
SWIDTH 948 0
DWIDTH 15 0
BBX 13 7 1 1
BITMAP
0040
0440
0C20
EAF8
3310
1120
0040
ENDCHAR
STARTCHAR uni21DE
ENCODING 8670
SWIDTH 523 0
DWIDTH 8 0
BBX 6 14 1 -3
BITMAP
10
10
38
54
94
10
10
FC
10
FC
10
10
10
10
ENDCHAR
STARTCHAR uni21DF
ENCODING 8671
SWIDTH 523 0
DWIDTH 8 0
BBX 6 13 1 -2
BITMAP
10
10
10
10
FC
10
FC
10
10
94
54
38
10
ENDCHAR
STARTCHAR uni21E0
ENCODING 8672
SWIDTH 948 0
DWIDTH 15 0
BBX 13 7 1 1
BITMAP
1000
1000
2000
FB58
6000
1000
1000
ENDCHAR
STARTCHAR uni21E1
ENCODING 8673
SWIDTH 523 0
DWIDTH 8 0
BBX 6 14 1 -3
BITMAP
10
10
30
58
94
10
10
10
00
10
10
00
10
10
ENDCHAR
STARTCHAR uni21E2
ENCODING 8674
SWIDTH 948 0
DWIDTH 15 0
BBX 13 7 1 1
BITMAP
0040
0040
0020
D6F8
0010
0020
0040
ENDCHAR
STARTCHAR uni21E3
ENCODING 8675
SWIDTH 523 0
DWIDTH 8 0
BBX 6 14 1 -3
BITMAP
10
10
00
10
10
00
10
10
00
10
94
78
30
10
ENDCHAR
STARTCHAR uni21E4
ENCODING 8676
SWIDTH 948 0
DWIDTH 15 0
BBX 13 7 1 1
BITMAP
8800
9000
A000
FFF8
A000
9000
8800
ENDCHAR
STARTCHAR uni21E5
ENCODING 8677
SWIDTH 948 0
DWIDTH 15 0
BBX 13 7 1 1
BITMAP
0088
0048
0028
FFF8
0028
0048
0088
ENDCHAR
STARTCHAR uni21E6
ENCODING 8678
SWIDTH 948 0
DWIDTH 15 0
BBX 13 11 1 -1
BITMAP
0200
0400
0C00
37F8
4008
C008
4008
37F8
0C00
0400
0200
ENDCHAR
STARTCHAR uni21E7
ENCODING 8679
SWIDTH 720 0
DWIDTH 12 0
BBX 10 14 1 -3
BITMAP
0800
0C00
1200
2200
2100
4080
E3C0
2200
2200
2200
2200
2200
2200
1E00
ENDCHAR
STARTCHAR uni21E8
ENCODING 8680
SWIDTH 948 0
DWIDTH 15 0
BBX 13 11 1 -1
BITMAP
0100
0100
0180
FF60
8010
8018
8010
FF60
0180
0100
0100
ENDCHAR
STARTCHAR uni21E9
ENCODING 8681
SWIDTH 720 0
DWIDTH 12 0
BBX 10 13 1 -3
BITMAP
1E00
2200
2200
2200
2200
2200
2200
E3C0
4080
2100
1200
1C00
0800
ENDCHAR
STARTCHAR uni21EA
ENCODING 8682
SWIDTH 720 0
DWIDTH 12 0
BBX 10 14 1 -3
BITMAP
0800
1C00
1200
2100
4080
E3C0
2200
2200
2200
1E00
0000
1E00
2200
1E00
ENDCHAR
STARTCHAR uni21F4
ENCODING 8692
SWIDTH 948 0
DWIDTH 15 0
BBX 13 7 1 1
BITMAP
0040
0E40
1120
FFF8
1120
0E40
0040
ENDCHAR
STARTCHAR uni21F5
ENCODING 8693
SWIDTH 791 0
DWIDTH 13 0
BBX 12 14 0 -3
BITMAP
0080
1080
10C0
11E0
1290
1080
1080
1080
1080
1080
D280
3C80
1880
1080
ENDCHAR
STARTCHAR uni21F6
ENCODING 8694
SWIDTH 948 0
DWIDTH 15 0
BBX 13 16 1 -4
BITMAP
0040
0020
FFF8
0030
0040
0040
0020
FFF8
0030
0040
0040
0020
FFF8
0030
0020
0040
ENDCHAR
STARTCHAR uni21F7
ENCODING 8695
SWIDTH 948 0
DWIDTH 15 0
BBX 13 7 1 1
BITMAP
1100
1100
2100
FFF8
2100
1100
1100
ENDCHAR
STARTCHAR uni21F8
ENCODING 8696
SWIDTH 948 0
DWIDTH 15 0
BBX 13 7 1 1
BITMAP
0440
0420
0420
FFF8
0430
0440
0440
ENDCHAR
STARTCHAR uni21F9
ENCODING 8697
SWIDTH 948 0
DWIDTH 15 0
BBX 13 7 1 1
BITMAP
1240
2220
4210
FFF8
4210
2220
1240
ENDCHAR
STARTCHAR uni21FA
ENCODING 8698
SWIDTH 948 0
DWIDTH 15 0
BBX 13 7 1 1
BITMAP
1240
1240
2240
FFF8
2240
1240
1240
ENDCHAR
STARTCHAR uni21FB
ENCODING 8699
SWIDTH 948 0
DWIDTH 15 0
BBX 13 7 1 1
BITMAP
0A40
0A20
0A30
FFF8
0A10
0A20
0A40
ENDCHAR
STARTCHAR uni21FC
ENCODING 8700
SWIDTH 948 0
DWIDTH 15 0
BBX 14 7 1 1
BITMAP
1540
2520
4510
FFFC
4510
2520
1540
ENDCHAR
STARTCHAR uni21FD
ENCODING 8701
SWIDTH 948 0
DWIDTH 15 0
BBX 13 7 1 1
BITMAP
0800
1000
3000
CFF8
3000
1000
0800
ENDCHAR
STARTCHAR uni21FE
ENCODING 8702
SWIDTH 948 0
DWIDTH 15 0
BBX 13 7 1 1
BITMAP
0080
0040
0060
FFD8
0070
0040
0040
ENDCHAR
STARTCHAR uni21FF
ENCODING 8703
SWIDTH 948 0
DWIDTH 15 0
BBX 15 7 0 1
BITMAP
0820
1830
3828
CFE6
2828
1830
0820
ENDCHAR
STARTCHAR uni2200
ENCODING 8704
SWIDTH 573 0
DWIDTH 9 0
BBX 9 11 0 1
BITMAP
8080
C080
4100
4100
7F00
2200
2200
1600
1400
1400
0800
ENDCHAR
STARTCHAR uni2201
ENCODING 8705
SWIDTH 474 0
DWIDTH 8 0
BBX 6 13 1 0
BITMAP
78
88
84
84
80
80
80
80
80
84
84
8C
78
ENDCHAR
STARTCHAR partialdiff
ENCODING 8706
SWIDTH 478 0
DWIDTH 8 0
BBX 6 11 1 0
BITMAP
70
88
08
04
74
CC
84
84
84
88
78
ENDCHAR
STARTCHAR uni2203
ENCODING 8707
SWIDTH 573 0
DWIDTH 9 0
BBX 7 11 1 0
BITMAP
FE
02
02
02
02
FE
02
02
02
02
FE
ENDCHAR
STARTCHAR uni2204
ENCODING 8708
SWIDTH 573 0
DWIDTH 9 0
BBX 7 14 1 -2
BITMAP
04
FE
0A
0A
12
12
FE
22
22
22
42
FE
40
80
ENDCHAR
STARTCHAR uni2205
ENCODING 8709
SWIDTH 780 0
DWIDTH 12 0
BBX 11 11 1 -1
BITMAP
1E60
3180
41C0
8140
8260
8420
8820
9040
6040
6180
DF00
ENDCHAR
STARTCHAR uni2206
ENCODING 8710
SWIDTH 748 0
DWIDTH 12 0
BBX 10 11 1 0
BITMAP
0800
0C00
1400
1600
1600
2300
2300
4100
4180
8080
FFC0
ENDCHAR
STARTCHAR uni2207
ENCODING 8711
SWIDTH 748 0
DWIDTH 12 0
BBX 10 11 1 0
BITMAP
FFC0
4080
6080
6080
3100
3100
1200
1A00
0A00
0C00
0400
ENDCHAR
STARTCHAR uni2208
ENCODING 8712
SWIDTH 720 0
DWIDTH 12 0
BBX 9 9 1 0
BITMAP
1F80
6000
4000
C000
FF80
C000
4000
6000
3F80
ENDCHAR
STARTCHAR uni2209
ENCODING 8713
SWIDTH 720 0
DWIDTH 12 0
BBX 9 13 1 -2
BITMAP
0180
0100
1F80
6200
4400
C400
FF80
C800
5000
7000
3F80
2000
4000
ENDCHAR
STARTCHAR uni220A
ENCODING 8714
SWIDTH 497 0
DWIDTH 8 0
BBX 6 7 1 1
BITMAP
3C
40
80
FC
80
40
7C
ENDCHAR
STARTCHAR uni220B
ENCODING 8715
SWIDTH 720 0
DWIDTH 12 0
BBX 9 9 1 0
BITMAP
FE00
0100
0080
0080
FF80
0080
0080
0100
FE00
ENDCHAR
STARTCHAR uni220C
ENCODING 8716
SWIDTH 720 0
DWIDTH 12 0
BBX 9 13 1 -2
BITMAP
0180
0100
FE00
0300
0480
0480
FF80
0880
1080
1100
FE00
2000
4000
ENDCHAR
STARTCHAR uni220D
ENCODING 8717
SWIDTH 497 0
DWIDTH 8 0
BBX 6 7 1 1
BITMAP
F0
08
04
FC
04
08
F8
ENDCHAR
STARTCHAR uni220E
ENCODING 8718
SWIDTH 558 0
DWIDTH 9 0
BBX 7 11 1 0
BITMAP
FE
FE
FE
FE
FE
FE
FE
FE
FE
FE
FE
ENDCHAR
STARTCHAR uni220F
ENCODING 8719
SWIDTH 1135 0
DWIDTH 18 0
BBX 16 17 1 -4
BITMAP
FFFF
300C
300C
300C
300C
300C
300C
300C
300C
300C
300C
300C
300C
300C
300C
380C
FE7F
ENDCHAR
STARTCHAR uni2210
ENCODING 8720
SWIDTH 1135 0
DWIDTH 18 0
BBX 16 17 1 -4
BITMAP
FE7F
380C
300C
300C
300C
300C
300C
300C
300C
300C
300C
300C
300C
300C
300C
300C
FFFF
ENDCHAR
STARTCHAR uni2211
ENCODING 8721
SWIDTH 936 0
DWIDTH 15 0
BBX 13 17 1 -4
BITMAP
FFF0
6030
3010
3810
1800
0C00
0600
0300
0200
0400
0400
0800
1008
3010
2010
7FF0
FFF0
ENDCHAR
STARTCHAR uni2212
ENCODING 8722
SWIDTH 720 0
DWIDTH 12 0
BBX 10 1 1 4
BITMAP
FFC0
ENDCHAR
STARTCHAR uni2213
ENCODING 8723
SWIDTH 720 0
DWIDTH 12 0
BBX 10 9 1 -1
BITMAP
FFC0
0000
0800
0800
0800
FFC0
0800
0800
0800
ENDCHAR
STARTCHAR uni2214
ENCODING 8724
SWIDTH 720 0
DWIDTH 12 0
BBX 10 12 1 0
BITMAP
0C00
0C00
0000
0800
0800
0800
0800
FFC0
0800
0800
0800
0800
ENDCHAR
STARTCHAR uni2215
ENCODING 8725
SWIDTH 535 0
DWIDTH 9 0
BBX 7 16 1 -4
BITMAP
02
04
04
04
08
08
18
10
10
20
20
60
40
40
C0
80
ENDCHAR
STARTCHAR uni2216
ENCODING 8726
SWIDTH 535 0
DWIDTH 9 0
BBX 7 16 1 -4
BITMAP
80
80
40
40
40
20
20
30
10
10
08
08
08
04
04
06
ENDCHAR
STARTCHAR uni2217
ENCODING 8727
SWIDTH 536 0
DWIDTH 9 0
BBX 6 7 1 1
BITMAP
10
94
DC
30
DC
94
10
ENDCHAR
STARTCHAR uni2218
ENCODING 8728
SWIDTH 436 0
DWIDTH 7 0
BBX 5 6 1 1
BITMAP
70
88
88
88
88
70
ENDCHAR
STARTCHAR uni2219
ENCODING 8729
SWIDTH 457 0
DWIDTH 7 0
BBX 4 4 2 2
BITMAP
E0
F0
F0
E0
ENDCHAR
STARTCHAR uni221A
ENCODING 8730
SWIDTH 794 0
DWIDTH 13 0
BBX 13 19 0 -4
BITMAP
0018
0020
0020
0020
0020
0040
0040
0040
2080
7080
B080
1080
1900
0900
0D00
0D00
0600
0600
0200
ENDCHAR
STARTCHAR uni221B
ENCODING 8731
SWIDTH 794 0
DWIDTH 13 0
BBX 13 19 0 -4
BITMAP
3018
4820
1020
3020
0820
0840
7040
0040
2080
7080
B080
1080
1900
0900
0D00
0D00
0600
0600
0200
ENDCHAR
STARTCHAR uni221C
ENCODING 8732
SWIDTH 794 0
DWIDTH 13 0
BBX 13 19 0 -4
BITMAP
0818
1820
2820
4820
7C20
0840
0840
0040
2080
7080
B080
1080
1900
0900
0D00
0D00
0600
0600
0200
ENDCHAR
STARTCHAR uni221D
ENCODING 8733
SWIDTH 720 0
DWIDTH 12 0
BBX 10 7 1 0
BITMAP
78C0
8D80
8600
8600
8300
C580
78C0
ENDCHAR
STARTCHAR uni221E
ENCODING 8734
SWIDTH 953 0
DWIDTH 15 0
BBX 13 7 1 0
BITMAP
38F0
4D98
8708
8308
C308
6D90
38E0
ENDCHAR
STARTCHAR uni221F
ENCODING 8735
SWIDTH 720 0
DWIDTH 12 0
BBX 10 9 1 0
BITMAP
8000
8000
8000
8000
8000
8000
8000
8000
FFC0
ENDCHAR
STARTCHAR uni2220
ENCODING 8736
SWIDTH 720 0
DWIDTH 12 0
BBX 10 9 1 0
BITMAP
0080
0180
0300
0600
0C00
1800
3000
6000
FFC0
ENDCHAR
STARTCHAR uni2221
ENCODING 8737
SWIDTH 720 0
DWIDTH 12 0
BBX 10 10 1 -1
BITMAP
0080
0180
0B00
0600
0E00
1A00
3100
6100
FFC0
0100
ENDCHAR
STARTCHAR uni2222
ENCODING 8738
SWIDTH 720 0
DWIDTH 12 0
BBX 10 9 1 0
BITMAP
0100
03C0
0700
1D00
F100
7100
0F00
0380
0340
ENDCHAR
STARTCHAR uni2223
ENCODING 8739
SWIDTH 272 0
DWIDTH 4 0
BBX 1 15 2 -3
BITMAP
80
80
80
80
80
80
80
80
80
80
80
80
80
80
80
ENDCHAR
STARTCHAR uni2224
ENCODING 8740
SWIDTH 413 0
DWIDTH 7 0
BBX 6 15 0 -3
BITMAP
10
10
10
10
10
10
14
18
70
90
10
10
10
10
10
ENDCHAR
STARTCHAR uni2225
ENCODING 8741
SWIDTH 535 0
DWIDTH 9 0
BBX 4 15 2 -3
BITMAP
90
90
90
90
90
90
90
90
90
90
90
90
90
90
90
ENDCHAR
STARTCHAR uni2226
ENCODING 8742
SWIDTH 623 0
DWIDTH 10 0
BBX 10 15 0 -3
BITMAP
1200
1200
1200
1200
1200
12C0
1380
1600
1A00
F200
1200
1200
1200
1200
1200
ENDCHAR
STARTCHAR uni2227
ENCODING 8743
SWIDTH 636 0
DWIDTH 10 0
BBX 9 10 1 0
BITMAP
0800
0800
1800
1C00
2400
2600
4200
4200
8100
8180
ENDCHAR
STARTCHAR uni2228
ENCODING 8744
SWIDTH 636 0
DWIDTH 10 0
BBX 9 10 1 0
BITMAP
8180
8100
C100
4200
6200
2400
3400
1800
1800
0800
ENDCHAR
STARTCHAR uni2229
ENCODING 8745
SWIDTH 636 0
DWIDTH 10 0
BBX 8 9 1 0
BITMAP
3C
42
81
81
81
81
81
81
81
ENDCHAR
STARTCHAR uni222A
ENCODING 8746
SWIDTH 636 0
DWIDTH 10 0
BBX 8 10 1 0
BITMAP
81
81
81
81
81
81
81
81
42
3C
ENDCHAR
STARTCHAR uni222B
ENCODING 8747
SWIDTH 684 0
DWIDTH 11 0
BBX 10 16 0 -4
BITMAP
00C0
0140
0240
0200
0600
0600
0400
0400
0C00
0C00
0C00
0800
0800
5800
D000
6000
ENDCHAR
STARTCHAR uni222C
ENCODING 8748
SWIDTH 1016 0
DWIDTH 16 0
BBX 16 16 0 -4
BITMAP
00C6
014B
025A
0210
0610
0630
0430
0430
0C20
0C20
0C60
0860
0840
5A40
D280
6300
ENDCHAR
STARTCHAR uni222D
ENCODING 8749
SWIDTH 1348 0
DWIDTH 22 0
BBX 21 16 0 -4
BITMAP
00C638
014B48
025A58
0210C0
061080
063080
043180
043180
0C2180
0C2180
0C6100
086100
084300
5A5A00
D29A00
630C00
ENDCHAR
STARTCHAR uni222E
ENCODING 8750
SWIDTH 684 0
DWIDTH 11 0
BBX 10 16 0 -4
BITMAP
00C0
0140
0240
0200
0E00
1700
2480
2480
2C80
2C80
1D00
0E00
0800
5800
D000
6000
ENDCHAR
STARTCHAR uni222F
ENCODING 8751
SWIDTH 1016 0
DWIDTH 16 0
BBX 16 16 0 -4
BITMAP
00C6
014B
025A
0210
07F0
1E38
2434
2434
2C24
2C24
1C78
0FE0
0840
5A40
D280
6300
ENDCHAR
STARTCHAR uni2230
ENCODING 8752
SWIDTH 1348 0
DWIDTH 22 0
BBX 21 16 0 -4
BITMAP
00C638
014B58
025A48
0210C0
07FF80
1E30C0
2431B0
243190
4C2190
2C21B0
1C61C0
0BFF00
084300
5A4A00
D29A00
630C00
ENDCHAR
STARTCHAR uni2231
ENCODING 8753
SWIDTH 684 0
DWIDTH 11 0
BBX 10 16 0 -4
BITMAP
00C0
0140
0240
0200
0600
0600
0F00
14C0
2DC0
2C40
0C00
0800
0800
5800
D000
6000
ENDCHAR
STARTCHAR uni2232
ENCODING 8754
SWIDTH 684 0
DWIDTH 11 0
BBX 10 16 0 -4
BITMAP
00C0
0140
0240
0200
0E00
3740
25C0
4480
4C40
2C80
2D00
1E00
0800
5800
D000
6000
ENDCHAR
STARTCHAR uni2233
ENCODING 8755
SWIDTH 684 0
DWIDTH 11 0
BBX 10 16 0 -4
BITMAP
00C0
0140
0240
0200
0E00
3700
24C0
2580
2C80
2C80
3D00
0E00
0800
5800
D000
6000
ENDCHAR
STARTCHAR uni2234
ENCODING 8756
SWIDTH 635 0
DWIDTH 10 0
BBX 9 9 1 0
BITMAP
1800
1800
0000
0000
0000
0000
0000
C380
C100
ENDCHAR
STARTCHAR uni2235
ENCODING 8757
SWIDTH 635 0
DWIDTH 10 0
BBX 9 9 1 0
BITMAP
C100
C380
0000
0000
0000
0000
0000
1800
1800
ENDCHAR
STARTCHAR uni2236
ENCODING 8758
SWIDTH 523 0
DWIDTH 8 0
BBX 2 9 3 0
BITMAP
C0
C0
00
00
00
00
00
C0
C0
ENDCHAR
STARTCHAR uni2237
ENCODING 8759
SWIDTH 720 0
DWIDTH 12 0
BBX 9 9 1 0
BITMAP
4180
E180
0000
0000
0000
0000
0000
E180
4180
ENDCHAR
STARTCHAR uni2238
ENCODING 8760
SWIDTH 720 0
DWIDTH 12 0
BBX 10 5 1 4
BITMAP
0C00
0C00
0000
0000
FFC0
ENDCHAR
STARTCHAR uni2239
ENCODING 8761
SWIDTH 720 0
DWIDTH 12 0
BBX 10 8 1 0
BITMAP
01C0
0080
0000
FC00
0000
0000
01C0
0080
ENDCHAR
STARTCHAR uni223A
ENCODING 8762
SWIDTH 720 0
DWIDTH 12 0
BBX 10 8 1 0
BITMAP
C1C0
C080
0000
FFC0
0000
0000
C1C0
C080
ENDCHAR
STARTCHAR uni223B
ENCODING 8763
SWIDTH 720 0
DWIDTH 12 0
BBX 10 9 1 0
BITMAP
0C00
0C00
0000
7040
9C80
8700
0000
0C00
0C00
ENDCHAR
STARTCHAR uni223C
ENCODING 8764
SWIDTH 720 0
DWIDTH 12 0
BBX 10 3 1 3
BITMAP
7040
8C80
8700
ENDCHAR
STARTCHAR uni223D
ENCODING 8765
SWIDTH 720 0
DWIDTH 12 0
BBX 10 3 1 3
BITMAP
8300
8C80
7040
ENDCHAR
STARTCHAR uni223E
ENCODING 8766
SWIDTH 720 0
DWIDTH 12 0
BBX 10 5 1 2
BITMAP
6180
9040
8840
8440
4380
ENDCHAR
STARTCHAR uni223F
ENCODING 8767
SWIDTH 720 0
DWIDTH 12 0
BBX 10 7 1 1
BITMAP
7000
D800
8800
8800
0CC0
0480
0700
ENDCHAR
STARTCHAR uni2240
ENCODING 8768
SWIDTH 293 0
DWIDTH 5 0
BBX 3 10 1 -1
BITMAP
80
40
20
20
40
40
80
80
80
60
ENDCHAR
STARTCHAR uni2241
ENCODING 8769
SWIDTH 720 0
DWIDTH 12 0
BBX 10 5 1 2
BITMAP
0600
7440
8C80
8F00
1000
ENDCHAR
STARTCHAR uni2242
ENCODING 8770
SWIDTH 720 0
DWIDTH 12 0
BBX 10 6 1 1
BITMAP
FFC0
0000
0000
7040
8C80
8700
ENDCHAR
STARTCHAR uni2243
ENCODING 8771
SWIDTH 720 0
DWIDTH 12 0
BBX 10 6 1 1
BITMAP
7040
8C80
8700
0000
0000
FFC0
ENDCHAR
STARTCHAR uni2244
ENCODING 8772
SWIDTH 720 0
DWIDTH 12 0
BBX 10 9 1 -1
BITMAP
0200
7440
8C80
8F00
0800
0800
FFC0
1000
2000
ENDCHAR
STARTCHAR uni2245
ENCODING 8773
SWIDTH 720 0
DWIDTH 12 0
BBX 10 9 1 0
BITMAP
7040
9C80
8700
0000
0000
FFC0
0000
0000
FFC0
ENDCHAR
STARTCHAR uni2246
ENCODING 8774
SWIDTH 720 0
DWIDTH 12 0
BBX 10 12 1 -2
BITMAP
7040
9C80
8700
0000
0200
0200
FFC0
0400
0800
FFC0
1000
2000
ENDCHAR
STARTCHAR uni2247
ENCODING 8775
SWIDTH 720 0
DWIDTH 12 0
BBX 10 14 1 -3
BITMAP
0100
0100
7240
8E80
8700
0400
0400
FFC0
0800
1000
FFC0
1000
2000
2000
ENDCHAR
STARTCHAR uni2248
ENCODING 8776
SWIDTH 720 0
DWIDTH 12 0
BBX 10 7 1 1
BITMAP
7040
8C80
8700
0000
7040
8C80
8700
ENDCHAR
STARTCHAR uni2249
ENCODING 8777
SWIDTH 720 0
DWIDTH 12 0
BBX 10 9 1 0
BITMAP
0200
7240
8C80
8700
0800
7840
8C80
9700
2000
ENDCHAR
STARTCHAR uni224A
ENCODING 8778
SWIDTH 720 0
DWIDTH 12 0
BBX 10 10 1 -1
BITMAP
7040
9880
8480
8300
7040
8C80
8700
0000
0000
FFC0
ENDCHAR
STARTCHAR uni224B
ENCODING 8779
SWIDTH 720 0
DWIDTH 12 0
BBX 10 9 1 0
BITMAP
7040
9C80
8700
7040
9C80
8700
7040
9C80
8780
ENDCHAR
STARTCHAR uni224C
ENCODING 8780
SWIDTH 720 0
DWIDTH 12 0
BBX 10 9 1 0
BITMAP
8700
8C80
7040
0000
0000
FFC0
0000
0000
FFC0
ENDCHAR
STARTCHAR uni224D
ENCODING 8781
SWIDTH 720 0
DWIDTH 12 0
BBX 10 8 1 0
BITMAP
8040
4080
3F00
0000
0000
3E00
4180
8040
ENDCHAR
STARTCHAR uni224E
ENCODING 8782
SWIDTH 720 0
DWIDTH 12 0
BBX 10 7 1 1
BITMAP
1C00
F3C0
0000
0000
0000
F3C0
1E00
ENDCHAR
STARTCHAR uni224F
ENCODING 8783
SWIDTH 720 0
DWIDTH 12 0
BBX 10 6 1 2
BITMAP
0C00
1200
E3C0
0000
0000
FFC0
ENDCHAR
STARTCHAR uni2250
ENCODING 8784
SWIDTH 720 0
DWIDTH 12 0
BBX 10 8 1 2
BITMAP
0C00
0C00
0000
0000
FFC0
0000
0000
FFC0
ENDCHAR
STARTCHAR uni2251
ENCODING 8785
SWIDTH 720 0
DWIDTH 12 0
BBX 10 12 1 -2
BITMAP
0C00
0C00
0000
0000
FFC0
0000
0000
FFC0
0000
0000
0C00
0C00
ENDCHAR
STARTCHAR uni2252
ENCODING 8786
SWIDTH 720 0
DWIDTH 12 0
BBX 10 12 1 -2
BITMAP
C000
C000
0000
0000
FFC0
0000
0000
FFC0
0000
0000
00C0
0080
ENDCHAR
STARTCHAR uni2253
ENCODING 8787
SWIDTH 720 0
DWIDTH 12 0
BBX 10 12 1 -2
BITMAP
0080
00C0
0000
0000
FFC0
0000
0000
FFC0
0000
0000
C000
C000
ENDCHAR
STARTCHAR uni2254
ENCODING 8788
SWIDTH 844 0
DWIDTH 14 0
BBX 12 5 1 1
BITMAP
DFF0
C000
0000
DFF0
C000
ENDCHAR
STARTCHAR uni2255
ENCODING 8789
SWIDTH 844 0
DWIDTH 14 0
BBX 12 5 1 1
BITMAP
FF30
0030
0000
FF30
0030
ENDCHAR
STARTCHAR uni2256
ENCODING 8790
SWIDTH 720 0
DWIDTH 12 0
BBX 10 5 1 2
BITMAP
FFC0
1C00
1200
1400
FFC0
ENDCHAR
STARTCHAR uni2257
ENCODING 8791
SWIDTH 720 0
DWIDTH 12 0
BBX 10 10 1 2
BITMAP
0C00
1200
1200
0C00
0000
0000
FFC0
0000
0000
FFC0
ENDCHAR
STARTCHAR uni2258
ENCODING 8792
SWIDTH 720 0
DWIDTH 12 0
BBX 10 10 1 2
BITMAP
1E00
2100
4080
0000
0000
0000
FFC0
0000
0000
FFC0
ENDCHAR
STARTCHAR uni2259
ENCODING 8793
SWIDTH 720 0
DWIDTH 12 0
BBX 10 12 1 2
BITMAP
0800
0C00
1400
1200
2200
6100
0000
0000
FFC0
0000
0000
FFC0
ENDCHAR
STARTCHAR uni225A
ENCODING 8794
SWIDTH 720 0
DWIDTH 12 0
BBX 10 12 1 2
BITMAP
4100
2200
3200
1400
0C00
0800
0000
0000
FFC0
0000
0000
FFC0
ENDCHAR
STARTCHAR uni225B
ENCODING 8795
SWIDTH 720 0
DWIDTH 12 0
BBX 10 10 1 2
BITMAP
0800
2E00
1C00
0C00
1200
0000
FFC0
0000
0000
FFC0
ENDCHAR
STARTCHAR uni225C
ENCODING 8796
SWIDTH 720 0
DWIDTH 12 0
BBX 10 12 1 2
BITMAP
0800
0C00
1400
1200
2300
7F00
0000
0000
FFC0
0000
0000
FFC0
ENDCHAR
STARTCHAR uni225D
ENCODING 8797
SWIDTH 720 0
DWIDTH 12 0
BBX 11 12 0 2
BITMAP
3020
1040
72E0
9540
9740
9540
76C0
0000
7FE0
0000
0000
7FE0
ENDCHAR
STARTCHAR uni225E
ENCODING 8798
SWIDTH 720 0
DWIDTH 12 0
BBX 10 10 1 2
BITMAP
7E00
2900
2900
2900
6F00
0000
FFC0
0000
0000
FFC0
ENDCHAR
STARTCHAR uni225F
ENCODING 8799
SWIDTH 720 0
DWIDTH 12 0
BBX 10 12 1 2
BITMAP
1C00
1600
0400
0800
0000
0800
0000
0000
FFC0
0000
0000
FFC0
ENDCHAR
STARTCHAR uni2260
ENCODING 8800
SWIDTH 720 0
DWIDTH 12 0
BBX 10 14 1 -3
BITMAP
0100
0100
0200
0200
0400
FFC0
0400
0800
FFC0
1000
1000
2000
2000
4000
ENDCHAR
STARTCHAR uni2261
ENCODING 8801
SWIDTH 720 0
DWIDTH 12 0
BBX 10 7 1 1
BITMAP
FFC0
0000
0000
FFC0
0000
0000
FFC0
ENDCHAR
STARTCHAR uni2262
ENCODING 8802
SWIDTH 720 0
DWIDTH 12 0
BBX 10 13 1 -2
BITMAP
0100
0200
0200
FFC0
0400
0400
FFC0
0800
1000
FFC0
2000
2000
6000
ENDCHAR
STARTCHAR uni2263
ENCODING 8803
SWIDTH 720 0
DWIDTH 12 0
BBX 10 9 1 0
BITMAP
FFC0
0000
FFC0
0000
0000
FFC0
0000
0000
FFC0
ENDCHAR
STARTCHAR uni2264
ENCODING 8804
SWIDTH 720 0
DWIDTH 12 0
BBX 9 12 1 -2
BITMAP
0080
0180
0600
1800
6000
E000
1800
0600
0180
0080
0000
FF80
ENDCHAR
STARTCHAR uni2265
ENCODING 8805
SWIDTH 720 0
DWIDTH 12 0
BBX 9 12 1 -2
BITMAP
8000
C000
3000
0C00
0300
0380
0E00
3800
C000
8000
0000
FF80
ENDCHAR
STARTCHAR uni2266
ENCODING 8806
SWIDTH 720 0
DWIDTH 12 0
BBX 9 15 1 -3
BITMAP
0080
0180
0600
1800
E000
3000
0C00
0300
0080
0000
0000
FF80
0000
0000
FF80
ENDCHAR
STARTCHAR uni2267
ENCODING 8807
SWIDTH 720 0
DWIDTH 12 0
BBX 9 15 1 -3
BITMAP
8000
6000
1800
0600
0180
0300
0C00
3000
C000
0000
0000
FF80
0000
0000
FF80
ENDCHAR
STARTCHAR uni2268
ENCODING 8808
SWIDTH 720 0
DWIDTH 12 0
BBX 9 16 1 -4
BITMAP
0080
0380
0E00
3800
E000
3000
0C00
0300
0080
0000
0200
FF80
0400
0800
FF80
3000
ENDCHAR
STARTCHAR uni2269
ENCODING 8809
SWIDTH 720 0
DWIDTH 12 0
BBX 9 16 1 -4
BITMAP
8000
6000
1800
0600
0180
0700
1C00
7000
C000
0000
0200
FF80
0400
0800
FF80
3000
ENDCHAR
STARTCHAR uni226A
ENCODING 8810
SWIDTH 955 0
DWIDTH 15 0
BBX 15 9 0 0
BITMAP
0042
018E
0638
18E0
E380
3180
0C60
0318
00C6
ENDCHAR
STARTCHAR uni226B
ENCODING 8811
SWIDTH 955 0
DWIDTH 15 0
BBX 15 9 0 0
BITMAP
8400
6300
18C0
0630
01CE
031C
0C70
31C0
C300
ENDCHAR
STARTCHAR uni226C
ENCODING 8812
SWIDTH 477 0
DWIDTH 8 0
BBX 5 16 1 -4
BITMAP
88
50
30
30
50
48
48
48
48
48
48
30
20
30
48
88
ENDCHAR
STARTCHAR uni226D
ENCODING 8813
SWIDTH 720 0
DWIDTH 12 0
BBX 10 11 1 -2
BITMAP
0300
8240
C480
3F00
0400
0800
3E00
5180
9040
2000
2000
ENDCHAR
STARTCHAR uni226E
ENCODING 8814
SWIDTH 720 0
DWIDTH 12 0
BBX 9 14 1 -3
BITMAP
0100
0100
0200
0280
0300
0C00
3400
E800
3800
0E00
1180
1080
2000
2000
ENDCHAR
STARTCHAR uni226F
ENCODING 8815
SWIDTH 720 0
DWIDTH 12 0
BBX 9 14 1 -3
BITMAP
0100
0100
0200
C200
3400
0C00
0B00
0980
0E00
1800
7000
A000
2000
4000
ENDCHAR
STARTCHAR uni2270
ENCODING 8816
SWIDTH 720 0
DWIDTH 12 0
BBX 9 15 1 -4
BITMAP
0100
0200
0280
0700
1C00
7400
E400
1800
0E00
1180
1080
1000
FF80
2000
6000
ENDCHAR
STARTCHAR uni2271
ENCODING 8817
SWIDTH 720 0
DWIDTH 12 0
BBX 9 15 1 -4
BITMAP
0100
0200
C200
3200
0C00
0700
0980
0E00
3800
F000
9000
2000
FF80
2000
4000
ENDCHAR
STARTCHAR uni2272
ENCODING 8818
SWIDTH 720 0
DWIDTH 12 0
BBX 10 13 1 -2
BITMAP
0180
0700
1C00
7000
E000
1800
0600
0180
0040
0000
7040
8C80
8700
ENDCHAR
STARTCHAR uni2273
ENCODING 8819
SWIDTH 720 0
DWIDTH 12 0
BBX 10 13 1 -2
BITMAP
C000
3000
0C00
0300
0180
0600
1800
6000
8000
0000
7040
8C80
8700
ENDCHAR
STARTCHAR uni2274
ENCODING 8820
SWIDTH 720 0
DWIDTH 12 0
BBX 10 15 1 -3
BITMAP
0200
0280
0300
0C00
7400
E400
1800
0E00
0980
0840
1000
7040
9C80
A700
2000
ENDCHAR
STARTCHAR uni2275
ENCODING 8821
SWIDTH 720 0
DWIDTH 12 0
BBX 10 15 1 -3
BITMAP
0200
C400
3400
0C00
0B00
0980
0E00
1800
7000
9000
1000
7040
AC80
A700
6000
ENDCHAR
STARTCHAR uni2276
ENCODING 8822
SWIDTH 720 0
DWIDTH 12 0
BBX 9 15 1 -3
BITMAP
0080
0180
0600
3800
C000
3800
0600
8180
6080
1800
0700
0180
0E00
3000
C000
ENDCHAR
STARTCHAR uni2277
ENCODING 8823
SWIDTH 720 0
DWIDTH 12 0
BBX 9 15 1 -3
BITMAP
8000
E000
3800
0600
0180
0600
1800
E080
8380
0E00
3000
E000
1800
0700
0180
ENDCHAR
STARTCHAR uni2278
ENCODING 8824
SWIDTH 720 0
DWIDTH 12 0
BBX 10 17 1 -4
BITMAP
0200
0240
0380
0E00
3400
C400
3C00
0600
89C0
6840
1C00
0B00
09C0
1E00
3000
D000
1000
ENDCHAR
STARTCHAR uni2279
ENCODING 8825
SWIDTH 720 0
DWIDTH 12 0
BBX 10 17 1 -4
BITMAP
0200
8200
E200
1C00
0700
05C0
0600
3800
C840
8B80
0C00
7800
E800
1800
1700
10C0
1000
ENDCHAR
STARTCHAR uni227A
ENCODING 8826
SWIDTH 720 0
DWIDTH 12 0
BBX 9 9 1 0
BITMAP
0080
0080
0180
0E00
F800
7C00
0700
0180
0080
ENDCHAR
STARTCHAR uni227B
ENCODING 8827
SWIDTH 720 0
DWIDTH 12 0
BBX 9 9 1 0
BITMAP
8000
8000
6000
3800
0780
0F00
3000
4000
8000
ENDCHAR
STARTCHAR uni227C
ENCODING 8828
SWIDTH 720 0
DWIDTH 12 0
BBX 9 12 1 -2
BITMAP
0080
0080
0300
3C00
F000
0E00
0300
F080
1C80
0300
0080
0080
ENDCHAR
STARTCHAR uni227D
ENCODING 8829
SWIDTH 720 0
DWIDTH 12 0
BBX 9 12 1 -2
BITMAP
8000
4000
3000
1E00
0780
1C00
6000
C380
9E00
3000
C000
8000
ENDCHAR
STARTCHAR uni227E
ENCODING 8830
SWIDTH 720 0
DWIDTH 12 0
BBX 10 13 1 -2
BITMAP
0080
0180
0700
7C00
F800
0E00
0100
0080
0040
0000
7040
8C80
8700
ENDCHAR
STARTCHAR uni227F
ENCODING 8831
SWIDTH 720 0
DWIDTH 12 0
BBX 10 13 1 -2
BITMAP
8000
4000
3000
0F00
0780
3800
6000
8000
8000
0000
7040
8C80
8700
ENDCHAR
STARTCHAR uni2280
ENCODING 8832
SWIDTH 720 0
DWIDTH 12 0
BBX 9 14 1 -3
BITMAP
0080
0100
0100
0180
0380
0300
3C00
F400
0E00
0B00
0880
1080
1000
3000
ENDCHAR
STARTCHAR uni2281
ENCODING 8833
SWIDTH 720 0
DWIDTH 12 0
BBX 9 14 1 -3
BITMAP
0200
0200
0400
8400
4400
3800
0E00
1780
1C00
7000
E000
A000
4000
4000
ENDCHAR
STARTCHAR uni2282
ENCODING 8834
SWIDTH 720 0
DWIDTH 12 0
BBX 9 9 1 0
BITMAP
1F80
6000
4000
C000
8000
C000
4000
6000
3F80
ENDCHAR
STARTCHAR uni2283
ENCODING 8835
SWIDTH 720 0
DWIDTH 12 0
BBX 9 9 1 0
BITMAP
FE00
0100
0080
0080
0080
0080
0080
0100
FE00
ENDCHAR
STARTCHAR uni2284
ENCODING 8836
SWIDTH 720 0
DWIDTH 12 0
BBX 9 13 1 -2
BITMAP
0100
0100
1F80
6200
4400
C400
8800
C800
4800
7000
3F80
2000
2000
ENDCHAR
STARTCHAR uni2285
ENCODING 8837
SWIDTH 720 0
DWIDTH 12 0
BBX 9 13 1 -2
BITMAP
0100
0200
FE00
0300
0580
0480
0880
0880
1080
1100
FE00
2000
4000
ENDCHAR
STARTCHAR uni2286
ENCODING 8838
SWIDTH 720 0
DWIDTH 12 0
BBX 9 12 1 -2
BITMAP
1F80
6000
4000
C000
8000
C000
4000
6000
3F80
0000
0000
FF80
ENDCHAR
STARTCHAR uni2287
ENCODING 8839
SWIDTH 720 0
DWIDTH 12 0
BBX 9 12 1 -2
BITMAP
FE00
0100
0080
0080
0080
0080
0080
0100
FE00
0000
0000
FF80
ENDCHAR
STARTCHAR uni2288
ENCODING 8840
SWIDTH 720 0
DWIDTH 12 0
BBX 9 15 1 -4
BITMAP
0100
1F80
6200
4200
C400
8400
C800
4800
6800
3F80
1000
1000
FF80
2000
6000
ENDCHAR
STARTCHAR uni2289
ENCODING 8841
SWIDTH 720 0
DWIDTH 12 0
BBX 9 15 1 -4
BITMAP
0100
FE00
0300
0280
0480
0480
0880
0880
0900
FE00
1000
1000
FF80
2000
6000
ENDCHAR
STARTCHAR uni228A
ENCODING 8842
SWIDTH 720 0
DWIDTH 12 0
BBX 9 14 1 -4
BITMAP
1F80
6000
4000
C000
8000
C000
4000
6000
3F80
0000
0400
FF80
1000
1000
ENDCHAR
STARTCHAR uni228B
ENCODING 8843
SWIDTH 720 0
DWIDTH 12 0
BBX 9 14 1 -4
BITMAP
FE00
0100
0080
0080
0080
0080
0080
0100
FE00
0000
0400
FF80
0800
1000
ENDCHAR
STARTCHAR uni228C
ENCODING 8844
SWIDTH 636 0
DWIDTH 10 0
BBX 8 10 1 0
BITMAP
81
81
89
91
BD
91
89
81
42
3C
ENDCHAR
STARTCHAR uni228D
ENCODING 8845
SWIDTH 636 0
DWIDTH 10 0
BBX 8 10 1 0
BITMAP
81
81
81
81
99
99
81
81
42
3C
ENDCHAR
STARTCHAR uni228E
ENCODING 8846
SWIDTH 636 0
DWIDTH 10 0
BBX 8 10 1 0
BITMAP
81
81
89
89
BF
89
89
81
42
3C
ENDCHAR
STARTCHAR uni228F
ENCODING 8847
SWIDTH 720 0
DWIDTH 12 0
BBX 9 9 1 0
BITMAP
FF80
8000
8000
8000
8000
8000
8000
8000
FF80
ENDCHAR
STARTCHAR uni2290
ENCODING 8848
SWIDTH 720 0
DWIDTH 12 0
BBX 9 9 1 0
BITMAP
FF80
0080
0080
0080
0080
0080
0080
0080
FF80
ENDCHAR
STARTCHAR uni2291
ENCODING 8849
SWIDTH 720 0
DWIDTH 12 0
BBX 9 12 1 -2
BITMAP
FF80
8000
8000
8000
8000
8000
8000
8000
FF80
0000
0000
FF80
ENDCHAR
STARTCHAR uni2292
ENCODING 8850
SWIDTH 720 0
DWIDTH 12 0
BBX 9 12 1 -2
BITMAP
FF80
0080
0080
0080
0080
0080
0080
0080
FF80
0000
0000
FF80
ENDCHAR
STARTCHAR uni2293
ENCODING 8851
SWIDTH 635 0
DWIDTH 10 0
BBX 8 9 1 0
BITMAP
FF
81
81
81
81
81
81
81
81
ENDCHAR
STARTCHAR uni2294
ENCODING 8852
SWIDTH 635 0
DWIDTH 10 0
BBX 8 9 1 0
BITMAP
81
81
81
81
81
81
81
81
FF
ENDCHAR
STARTCHAR uni2295
ENCODING 8853
SWIDTH 862 0
DWIDTH 14 0
BBX 12 12 1 -2
BITMAP
1F80
6440
4420
8430
8410
FFF0
8410
8410
4420
6460
3D80
0600
ENDCHAR
STARTCHAR uni2296
ENCODING 8854
SWIDTH 862 0
DWIDTH 14 0
BBX 12 12 1 -2
BITMAP
0F00
30C0
4020
8020
8010
FFF0
8010
8010
C020
4060
30C0
1F80
ENDCHAR
STARTCHAR uni2297
ENCODING 8855
SWIDTH 862 0
DWIDTH 14 0
BBX 12 12 1 -2
BITMAP
0F00
30C0
6060
F0A0
9910
8E10
8610
8910
D0A0
6060
30C0
1F80
ENDCHAR
STARTCHAR uni2298
ENCODING 8856
SWIDTH 862 0
DWIDTH 14 0
BBX 12 12 1 -2
BITMAP
0F00
30C0
6060
C0A0
8110
8210
8410
8810
9020
6020
30C0
1F80
ENDCHAR
STARTCHAR uni2299
ENCODING 8857
SWIDTH 862 0
DWIDTH 14 0
BBX 12 12 1 -2
BITMAP
0F00
30C0
4060
C020
8010
8610
8610
8010
C020
4020
30C0
1F80
ENDCHAR
STARTCHAR uni229A
ENCODING 8858
SWIDTH 862 0
DWIDTH 14 0
BBX 12 12 1 -2
BITMAP
0F00
30C0
4060
C020
8E10
8910
8910
8E10
C020
4020
30C0
1F80
ENDCHAR
STARTCHAR uni229B
ENCODING 8859
SWIDTH 862 0
DWIDTH 14 0
BBX 12 12 1 -2
BITMAP
0F00
30C0
4060
C620
9490
8D10
8A10
9590
C620
4420
30C0
1F80
ENDCHAR
STARTCHAR uni229C
ENCODING 8860
SWIDTH 862 0
DWIDTH 14 0
BBX 12 12 1 -2
BITMAP
0F00
30C0
4060
C020
BF90
8010
8010
BF90
C020
4020
30C0
1F80
ENDCHAR
STARTCHAR uni229D
ENCODING 8861
SWIDTH 862 0
DWIDTH 14 0
BBX 12 12 1 -2
BITMAP
0F00
30C0
4060
C020
8010
BF90
8010
8010
C020
4020
30C0
1F80
ENDCHAR
STARTCHAR uni229E
ENCODING 8862
SWIDTH 932 0
DWIDTH 15 0
BBX 13 13 1 -2
BITMAP
FFF8
8208
8208
8208
8208
8208
FFF8
8208
8208
8208
8208
8208
FFF8
ENDCHAR
STARTCHAR uni229F
ENCODING 8863
SWIDTH 932 0
DWIDTH 15 0
BBX 13 13 1 -2
BITMAP
FFF8
8008
8008
8008
8008
8008
FFF8
8008
8008
8008
8008
8008
FFF8
ENDCHAR
STARTCHAR uni22A0
ENCODING 8864
SWIDTH 932 0
DWIDTH 15 0
BBX 13 13 1 -2
BITMAP
FFF8
C018
A028
9048
8888
8508
8208
8508
8888
9048
A028
C018
FFF8
ENDCHAR
STARTCHAR uni22A1
ENCODING 8865
SWIDTH 932 0
DWIDTH 15 0
BBX 13 13 1 -2
BITMAP
FFF8
8008
8008
8008
8008
8208
8608
8008
8008
8008
8008
8008
FFF8
ENDCHAR
STARTCHAR uni22A2
ENCODING 8866
SWIDTH 720 0
DWIDTH 12 0
BBX 9 11 1 0
BITMAP
8000
8000
8000
8000
8000
FF80
8000
8000
8000
8000
8000
ENDCHAR
STARTCHAR uni22A3
ENCODING 8867
SWIDTH 720 0
DWIDTH 12 0
BBX 9 11 1 0
BITMAP
0080
0080
0080
0080
0080
FF80
0080
0080
0080
0080
0080
ENDCHAR
STARTCHAR uni22A4
ENCODING 8868
SWIDTH 720 0
DWIDTH 12 0
BBX 10 11 1 0
BITMAP
FFC0
0800
0800
0800
0800
0800
0800
0800
0800
0800
0800
ENDCHAR
STARTCHAR uni22A5
ENCODING 8869
SWIDTH 720 0
DWIDTH 12 0
BBX 10 11 1 0
BITMAP
0800
0800
0800
0800
0800
0800
0800
0800
0800
0800
FFC0
ENDCHAR
STARTCHAR uni22A6
ENCODING 8870
SWIDTH 509 0
DWIDTH 8 0
BBX 6 11 1 0
BITMAP
80
80
80
80
80
FC
80
80
80
80
80
ENDCHAR
STARTCHAR uni22A7
ENCODING 8871
SWIDTH 510 0
DWIDTH 8 0
BBX 6 10 1 0
BITMAP
80
80
80
FC
80
80
FC
80
80
80
ENDCHAR
STARTCHAR uni22A8
ENCODING 8872
SWIDTH 720 0
DWIDTH 12 0
BBX 9 10 1 0
BITMAP
8000
8000
8000
FF80
8000
8000
FF80
8000
8000
8000
ENDCHAR
STARTCHAR uni22A9
ENCODING 8873
SWIDTH 880 0
DWIDTH 14 0
BBX 12 11 1 0
BITMAP
9000
9000
9000
9000
9000
9FF0
9000
9000
9000
9000
9000
ENDCHAR
STARTCHAR uni22AA
ENCODING 8874
SWIDTH 880 0
DWIDTH 14 0
BBX 12 11 1 0
BITMAP
9200
9200
9200
9200
9200
93F0
9200
9200
9200
9200
9200
ENDCHAR
STARTCHAR uni22AB
ENCODING 8875
SWIDTH 880 0
DWIDTH 14 0
BBX 12 10 1 0
BITMAP
9000
9000
9000
9FF0
9000
9000
9FF0
9000
9000
9000
ENDCHAR
STARTCHAR uni22AC
ENCODING 8876
SWIDTH 805 0
DWIDTH 13 0
BBX 12 11 0 0
BITMAP
1030
1060
10C0
1180
1300
1FF0
1400
1800
1000
3000
D000
ENDCHAR
STARTCHAR uni22AD
ENCODING 8877
SWIDTH 805 0
DWIDTH 13 0
BBX 12 10 0 0
BITMAP
1030
1040
1080
1FF0
1200
1400
1FF0
1000
3000
D000
ENDCHAR
ENDFONT
